<mxfile host="app.diagrams.net" modified="2021-08-23T01:29:03.532Z" agent="5.0 (Windows NT 10.0; Win64; x64) AppleWebKit/537.36 (KHTML, like Gecko) Chrome/92.0.4515.159 Safari/537.36" etag="So5Ij0ojBOnnXeBinuP-" version="14.9.7" type="github">
  <diagram id="Bkf0CoFkKbtnCoWpFf5M" name="Page-1">
    <mxGraphModel dx="1209" dy="626" grid="1" gridSize="10" guides="1" tooltips="1" connect="1" arrows="1" fold="1" page="1" pageScale="1" pageWidth="850" pageHeight="1100" math="0" shadow="0">
      <root>
        <mxCell id="0" />
        <mxCell id="1" parent="0" />
        <mxCell id="dDoI7u6ORTxiVec4iSAH-1" value="" style="shape=image;verticalLabelPosition=bottom;labelBackgroundColor=#ffffff;verticalAlign=top;aspect=fixed;imageAspect=0;image=data:image/png,iVBORw0KGgoAAAANSUhEUgAAATIAAAH5CAYAAAAC6bKyAAAgAElEQVR4Aey993cVyZYmWv/WvPXWzFvdP0yvWT0993X3TJu6VZSDC3ULCqjCe+RAICEvJIG8AAnvBLKAhLz33tvjvZGhvlnfzgwpOSWBoKi6ZY60YkVmnsjMyMgdX+69Y5uPZh0Ay5wdmFHFBsyGlDkbYCz8PXR/xgaw8Ddei/WU5RVmrD9gfDGI8QUvnEvA0ivgFYBXP/yAldUVrEpZxurqMlZfrWD11Spe/fBKCrdVWXm1ipUfNihsjx/wAyAF7/jHM+X/h1f4wVCkD7y2obCv7DP/fH4fLFYLzBbzO97xwzdXz846/BcegV/DCCwvL8PlcmFhcQHcDv374YcfwPK+f8bzP+obtWKtjNnQyzJqRe+oRQp/6x+1YWDMLmVwzIHBUTsGRu1ynL+x9I1YpfDcnhELukfM6Bk2o3vIhJ4R1gvoG13Eot0Hl28J3kAQXr8fHq8HHo8bbo9LisfrhpfHDMXt9eCNxeeBx+eFz++HfwvF5/NBFa/Pi7Xi9ci9ef/Nitvrlv6yfzzP7XbD6XTK9QL+AFj8Pj88bg98Pr9sc3+tbNI/1R9jvdGzGH9X216fDx5D4b6xqHahtd/ngxSvD77Xihc+r1d+Cz3np+4b+xW6vdm11/qp+htSb3Ze+Pg6nf9cY7ERjQYCAZmHvKfH4xEw83q9a3OOx3ke69Djb+pn6L3UucFgEB91989Cla6BWbB09E+jo39KSlf/jPzeMzCH3oE59A3Mo5elfx48psraNfpn0dk3jY7eqbXS3jOB9p5x9AxMYXLWgrlFKxbNViyYTILWCwvzmF+Yw/z8nNTaPo9pZW5hHm8si/NYNC3CZDK9tSwuLoJlYWHhjYX3Zj82K+wrvzRS9GuZFk1gWVxYxNwcz+W9TFJMJrO+rd1f9UPV7I/aVv0z7m+2vcBnWVzE/CZF/c469BqmhUWYFhakLM4vYIF9ZpnXnnuRz7X4er9Cr7HVfWM/3tZXXtPYX/bTvLjeV/ZZ21+Usd5qHz5EO/Uc6lpq39hf9dtW6jUaes9xfhsdb/b7Vvr2vm3MZvPaPOQ15ubmZK6FXm+zvoUe53k8Fnr+vNDpAqxWKz4anzRDldEJE1iGJxYwND6H4fF52R6dWMT4hEkvZkxOWjCxVsyYmNQKrzM6yWssYmR8Ya0Mjc5haHQWI2OzmJpZxMTkDMYnpzAxNYWJyQmtTIxjIqSMT4xjfHIcY28pbDM5NSllamoKbyqTk5PYSpF+hfTH2L/x8TGMjo1KGRsfw/j4OCYnJtfL+CQmxycxNTGFyUn2aVp+m5iYAAvbs6h91qpfxmOq3WZtec6EXsYnJxFa1G+s1fWnJichZYL9m5AyOT6BibFxKdye1PupzvkQtepLaB+5r34z9pP3VH2dnpxEaJnieBue64+4baSVd902jpeaM8Zj77JtvDfPU9cj3Q4PDwudq2P8XbXf6j1Ue2PNa4+Ojsq9PvJ4luDVC7fdniCcbj8cbh+cbh9cbj/c7gA87uBa8XqC0IrhXP13tzsIFl7L49WK17sML7c9vI4PLpcHTqcLDqcDdocdjk2K3WmHKjanHRsV9TuvRRHvQxZec7O+rR3X7+tyuuByubdWnK4P2k8+s8PphH2DwuOqsJ3rHcuHHE/Vz436qvqo6nftJ9t/6L6Gr/f+Y0rd2Ebjt9nxjdpu5Ri5PYLbRz5vAH6PVrjt9fjh8njhdLvhclN/5YXX44Pf49+k6Od6/PB5/HI+r8Fr+XxB+I2Fx7w+eD2absnl5uR3vrE43E5spci13C7RWVFv9VPLVvqm+s578Zk4Vqq49bFT+2s1j7s9m/aPL1r13bitjm1Uu+RdueWd8b1tVtjO845lo/v9lGPsw2b9U8fZhvd4l77+lD79Uc/VaNy1Ns4cB9KcFM5NVXjsJ8wteY8e0v1Pn5fGd8V+UrwkV/cRwUeBlAZE5MLcAh7svCit3V74Nil+jw8+tw9et1fasj0nLcGP11sv3PdKkUmvT2ZtMDcHs62AGNuoQTc+qLwYwwtQEyS0zWb7b+vbpkDGZ3NxImpjsQZiCujeAmQKwBRRbdY/dZzPxaKAYLOabd4FHD404bG/W+0n275LX9VYhOt1sKCifbPxIG07dSaCi23qXSuaU7TNWmu3MZgp2lP3Cb2neodeA5CFnqPOfZ+aQKZxZCFAxknHGxEc+AC8uJcrcJsWghyBbH3QOIEJZF45rtUelxcel0eKAj2t42/nymRQ1ddhIy5u7TdtoqwPCLkbVdg/VbQvz3q79Zevjslqy0b32oCD5DmKI9NqbaVGe4kaBybj4eEqjgb46j6htSIkHl8jIAOXFtqe+4owNgMwdZztFGFttd7ofj/lGPug+rNZzTa8x1b7yHY/pU+/t3PVh9AIKvJR1aUBBWKkL6fTIXNE/c4PsEZ368yFtBO6X5cWOGaK7tT7kndGwNIB1Pj+NgIy43nv9Q48buHIRkZG8BEBxqsXbnOyO12a/oo6Ig6Kh9yFyw230wU3J5VetOMaOHH79QfmBPbC7fToRTtfrqMPqPagBDIH3ARNVdbARwMhBWTS3kMQ0gZZ3U8DnfUJog2KAkg+AwHZwB3xGakrCgEII4hoL0pnr9X9RB+mX8/QD7b1ejWQIpDxpa0TCCekDuw6kL127TUQ1u6lEZHG3ov+UH8HPEcRm7HWrvU6URkJLHTbSFxv2+a1P3QJ7c9m+9rzbg3MPnQff0vXM9KCtq0+0i6hQ20ctY8pP6KcBw63S1PXuDQdsMft0hgR6nipvw35WIv+WXFmbKtzV0oKUu9Q7qUDmZG22N4rXJ8+nwiCAnZ6vwxM0LuMPc2fqCPr6uoikLnhlaIBEh+USmsFEm9SuImCm0puXXktynEqyKVQsUwQ1K4n224PlgJBBANBsbHiwAt4uZ3wul3wed0I+LzwB/xSNDst15rCnQpdssF+vw+BAPVxHjgdGkhxYFxeL9wsHDTaprnZ3ongUgBLS8vweHyyyMDns9vt8uWgbQoH70cgpusK1sdBey4FLrwHX6TD4YDD7oDX64fToY2F9hJdCAYDWFlZxsrKCpaXVuD3UQfpFdsZPiNt0dae1euR6xEAhXBESa8tYCgxVdWviarvQQRGItto+12I6edsu1HfQo/9nPf/tV9bgEs+juucPsdHfehlrgT8Yoy6urKKpeVlmXc2LrK5HHC6NebB6yKQacwK55PTQbpT81hbkONCG88hzYudp14HggEEloIILi0JLYv9p0goBClKc5RW+EFywe/zgu1pP+pWahaDhMJrv8uY015tZmYGjx8/JpARbFwCZgQ1tfJGrkwm8RZXgwS8HHZZheRkt3OCC9ejf9VdLlitFtBsYWF+AQ6HU4CI3JjdZsbsNM0V+Ns8ent7QdMLq80qg8ZBFQ5H5wRnZ2cwODiA8bFx2G124YbcXh+cXi+cRHqCmHxVHDBbFjE0Mojx8QmYzTZZjCAQ8LzZ2VlMT0/DYrEIl8mB50AqUNO+TOuckoA6r0vdoXBdTgFErsASyBxrQOaC3W7F8PAgWltbUF9fj+amFoyNTWB2Zlaerbe3B4vmRbF/o02aybQo4Esi5LPyHtqKLrlVTXR9javcgBDehQjCbT88t/lLjymBjAtrsrgmNdUWpF/SjwMWmxmDQ4NobG5GXX09Ojo6MTM3J6vbTo9LgEy4MR0DKHE57Y41IFNgpqwFFJARkMymRfT396Guvg41L2vR1dOD+YUFMcRmH6To1/XRoN3pwMjIMDo6OzA0MgIHpTyvX5gLjVPUGIN3ATMaz3L+Pnz4EB/xBm5yOgQJYSsJYDqIubh0r5s1CFITrTcqIejtsMOmgxn1IJrM7MLU1ATu3r2NZ8+eC7DQYtvjdmBifATVlRV4WlqKgf4B3L9/XwaIgEUE9+nW92Ix73Kju7sLT58+QVNjI2xWGywWK+YWTDDb7BpX5qG1vR1Opw1jY8PIy89BTk4umptaxfyDHCGN9vgSKisrRVlIcZn9UdbGSs4ncaptAhy3yUWxneJW+SK4SkuzEhKXy+nAzMwkrl8vRHz8RVy4eAEZGZl4+bIOPT09aGiox917dzAxOY7Wtha8qHmOnp5ujYvUuUneQwGq9uUlJ0dLaP3rGwJkbPNLT6Tw/f62YKjRBa0A9EU1N+cT++TA3Nw0mlsakZObi4SkJMRejEPWlatoammBxW6Dy6vpwQlkHpcT5Mo4/12UcJyUckjrbhDwFJCJ3tztxKJpAfV1L1FYWIC4+DjEXryAvPx8tHd0wC1iJCUtXo+SFqUsH2amJnHv7h1cuXoF1c+fw6pLMSJdcM4Y9dFb5Mxo2U8gq66uxkcuhx1acchDiI2Pg+ykBk7kCgSlidSbFIfdDhaNE9NATAEZH4yd9HpcGB7qw8kTRxEREYGamlosrywjGPSi9kUVIs6cxtkzZzHQNyjg0t7ehsXFBawsL4s/lvhVvfpBxNKhoUE8e1aFzs522O021Dc0oLyyGn2DwwiurorrEIHM4bCipbUR2z77BP/lv/w/iIo6h4nJabx69QpT09O4mn1VXkRnV5cMPO/1anVV7kf/ToIJxVsWAhiBhQBGX8slnZUW4PP54fPTBk8DQrvdgs6OVnz//T7s2/ctLsZdRFHRNTQ0NKK/v1/A6/GTR5iZm8a1G0WIT4hD6dNS4UDJTRK8lR8ZfdQojlI03xDEdNY8DGR/W1D5W4C6+sBRZSJWAjqQuVx2VFWX4/iJo/jzJ5/gwsU4JCQkISk5BQ8fPcbUzIyIiQQmkVwcdvi9XixT5UNXIq8HAV19Q39ixb15/V6x63z+/BkOHTqIvfv2IvbCBSQlJyMhMRHlFRUwmU3CEIgejfPFQ3VSAE8fP0bEmTOIjo5GY0sLrARLr09fgNO5MaWb2yKQUbSkjqy2ttYIZORgFHg5dI5KA6fNACz0OPVFBEBjITDyul6vC3OzEyi+XoBDBw+iuLhEJq7P50JRYS5ioqOQn1cAq8WOjo4OjI2OwGa1wLJoQnVlNR7ef4i6l/WYmZnF8Mgwunq60Nffi7bWFhw7dgw7//oNktMuo7d/UFZT+IKcDis6O1tx+PAB/K8//Ql/2fk1iktuic6ASM6v1aXERPT09orv1/zcHOrr6lBSUoJHjx/JfSh+UtQdGBgQVwi6SnB/cHBQuFWzyYyh4RGMjU3BZnMI6NlsZnR1tiI6OgIlJTdAy3+2s9sdmJ2bRf9gHzo627Bgmsf14mu4lBAvQMYvDMVZcm337t1DcXGxjIXVYsWy6PjW7dTkS6a4Mn3x5G8xmcL3/NsB6DqQaXShLTS50dPTicsZaTh24igqKisxOjaGaao0JqcwOT0Nk8UCK43QqcJwOkQaGxoYQEdbO2YmpxDw+8XLhmJgT1+vAJkvQNtSh8y5M2fO4FL8JZSXl2NmdkbE1UFa709Owma3CRgSyAhibocDE6OjOHn0GL76/AvERMegu68PdnKOXs1C4jVuTFfdbIWuCLLUkb148WJjICM3pXFUmtW9KP+oAHxLEcX3GjdnsCh3OeD1OGGzLaCzvRmHDx1Eeno6yFmRa0pMiEdycjIqK6sxNTGNkuJiNDc2YGigH2WlT5CckISE+ETcvHkbHZ1dqHpejXsP7qH6eRVqa2uwc+dO/O9/+w9ExpxHW0eXcE5UMAqQdbXizNmTOHX6FA4cOoy4+EsivtL2JL+gAInJyQJkHJDysjJcycpCWlqafGlu37mDJ0+f4MaNG7h9+7awsa2trUhMTJT+00Wpu6sbt2/fRe3LRphMViECu92Mnp52nDsXhWvXigT06H9Jwusb6MOT8lLce3AH07OTuH6jCJcS4/Gk7Ino21qaW3Dj+g2kpqQi4VICrmRdQX1dvXy5RLTkSrBxBdYAZlt5+eE2fzvg+dBjbwQy7dpUljtx584txMREIS0tFVabDb5AAIHgEjx+/5rpC0GEqhoGOSDHVFdbi6KCAty/exfTE5N4cO8+CguLRBSlGBpc8ou4Wlr6CH/5y07cvXsfM7NzWFpZkesrSY6Sy1IwiOWlJawsLQmQ9Xf3YO83e7Dt408QE3MOvQMDsJHB4RzVRUonFx+o23sHIKPERNfEBw8evB3IyE2JzExWcJNCuZqFOiM+0FoRXZtmBuF22eF2WWE1zyEmKgKX4uNQW1OD6ZlpREVGyqD19PSira0dEWfP4tGDB6h5/hzno2Nw/OgxZFzORGVVNdq7ulBw4xriLsXh9p1b6OzswMnjJ7B7zz5kXc3F2PikTHSyxwSy9o5mnDpzHAXXCnE5MxMX4+JRWFAoXFUegSwlBZ3d3aiqrMSF8+dx+uRJXLlyBYcOH8bZiAgRPePj43H+/Hm0t7fLoH355ZfYsWMHal/WovRxKWIvxKGy6gVMZqusptptJvT1duDkyWM4feY08nLz8PRpmfiE1dS+QOaVy4hLuICR8SFcu1GIxKQEPC17KoCXnpaO06dOIyUpBYmJSdi3bz8uX84Qn81AgK5frwOZEjc/9CQJX+/XD3gakGnimXA1btqEOZCSnCRz6N7dexLWyhcIiu5YAw43zFYrpqdnMDY6Jv6/lKyaGhqQlZEh4t+t4hLEXYhDVtYVDAwNS+SZpSU/hof6kZ19BV9+uR2NjS3w+oMCjgQlNecZ1op+uuOjY5gl90eD1dExRJw8g+/3fofMjCxMTE3DQlUUvXZoAuKyS3lXIKNoSat+MhoGHdm6aGnkyN4NyNaV/rJIsLZYQBbWJkAW8DmRn3cVyYkJuHXzFlpa2nD6TAQePy7F7NwcGpsaER0VJTL1s8pKHD10CCePHUcduRKvDxaHA0UlNxCfeAnlFeWy+njj2nVcuZIrg/tq9ZW+EuKGw2lFe2czjhw7gOKbxaioqkLR9evYu3ev6OEyr1xBUmoqWtrbcf7cOez48kt8t28fsrOzcfDwYezesxtko7OysnDy5EncuXMHubm5+Oabb4QLvHX7Fq5mZyM65jz6+ofhcLplidlmWUBPdyv279+Lf/+Pf8eXX3yJE8dPoLm5GZVV5cjISlsDsuvFRUhJTRbO7+GDh9i5cxe++mo7UlPTkJqcis+2fYbjcm4LlpdX4PcHXlP6C5CJycy7LV2HgerXD1Rve0eKIxOTKRqwe+xwex1ITLiE6KhoPH1SBob78voDsppP+zG7qC56UVJyEwnxCfLB7GzvkGgijXV1OLB/P/7tf/8bLpy7gJbmVqyuvhIrAH/Ai/7+bmRlXsZfv96NtrYu+PzLMidt1Ke7XDBbLOjq7kLG5cu4EBuLvJwctLa0iD75ev415GbloK62Hqs/vJJ+aCYdNOuwvReQUXc9NT0lapgPAmRGkXPNmZqLBLrOTTMpsMPpssHvd+Hly2fIykzHhfOxyM0tQlJSOppb2mC1WVDf8FL0ZU8el2JkaAi1L57jfEwMjh09hpzcPPT29+PGzRIkJiUKF2NeNKEgtwBpqZmorW3A0sorWZmkjE6lZ0d3Cw4c2Y/rJdfRO9CPtvZ2HDp0CGfPnsXJU6eQnJaGuoYGHPz+e+zasUM4sry8PFFeXrt+HVVVVVLORpxFSkoKUlNTERMTg6ioKBEx4y9dQnZOLiwWhywnBwM+EMjaW+oREXFGuLumpmaJhEFw5/MRyC4mxGJsYgQ3Sq4jJSUZjx49Qm5uHrZv34Hdu/fIKmvm5Uz5KpaVlYtukIsU5MpYaBfHemV5RRZASNQkfLXC+rZJEP79tw9k2jvkYhqV5U64PKRBJ9LTUoWrJ1jxLxBYEsBhzDrakg0ODoHcWlpKGjLSM9Dc2ASrxYLuri6cPHYM//X//a9ISkgWc6GV1VeyWOf3ezA6MoDCvFx89cUONDW2IxBYgc/PIBNuiYdHrqx/YAB5ublITkzE9aIidLS3Yym4hPyreUhPSkdV5TOsvPoxkCkwexfRkhwZdd2cO28FMlEI6qKjEiFD61AgsztsYHGICYTmAiEd1HVlE+PDyMm5gl07d+Hrr/eioKAYo2MTcs7Luhc4e/YM7t+9J+zp1MQ46l/WIjY2FhFRUaDeqvDaNSSnJItOy7xgQu7VXMTHJYl4FwiuwOmgjQo9FOxo62zGwSPfoeBaAYZGhiWuEZXoX+/aJSs6vCaXpM+ePoMD330nXxMq85uam9HR2YmxsTER+aKio/Dt3m9x7tw54cwKCgqEszt67BgePHgIDx3uJTihB1bzPNpa6hEdHSlcJxcoaPJB3UFjUz0yrqQjPuECxidGUVxyA6mpKSgtLcXtW7exd+8+nDlzVlY4qX9rb+/AwMCgiAL9ff2YnprGxMQkRkZGJb4ZxYOZ6RnhTAliYSD7vQDU1p5DAzHNJsztccLjdaG09LFwZDFRMRga0iQFp9sDs80qXBP9E4eHhtHV2YXOzi7M6zHoqqurcPjAAXzx2Rc4H3MeNS9q4WWQUA9XMT0wzc+gurwcf921G3m5RejpHZQAE+TGFs1miS9IqYoLY50dnRgcGBBOL+gP4GrGVSTGJ6HsaQWCyyvCkYlY6X5/0ZIBFanb3jKQUfcVCl6h+wrMQjkyAhhtUtTKBJWR1F3dulksItc//dO/4HFpOcwWq1jw1zfUIioqEnfv3EVPV7co/WtePEdSchLOnT8vIEZOKe0y0b0KVrMFN4tv4eyZSOTnX8P4xDRsdn6ZPLLK0tnVjpOnj+PajWsYHh2R1cnRkREcPXoU//8//zMOHDqE7t5e3CwuEc4vJTkZDY0NqHn5Ei2trYL4XFJOSEzAtm3bBMi6qVOrqgJ1ZQcPHRL7sEBwWayVuchgs5rQ3dWGCxdicev2bQEaAhnNKppbmpCdQ5E2EROTY7h5qwTp6WmoqKhAa2sbLl6Mw7lz5/HkyVO0tLSguakZ1B32dPcgNycXtTW1KHtahlu3bgux3Cy5iRfPXwgx0hQkzGltDQB+L+OkgIzzi/PM63VjdHQERYVFopLIyMhCVfUz1NS+xPPaGrR3dsBmswmXRFWFcPfBJXR1daIwPw9REREoyC9A7LlYkQomJqc0TxQfVyBtGBkaREpSKiLORuPK1Rw8e1GDF7W1qKmtRV9/v1xbFP0rK1hl4T28PmRnZct5leVVsvCg+dlqAExu0qgf057l7e9RAdmWlP2i63oX636Da8OaZbwhNAgHm+5FdXUvERUdjR07dqKtvUPC+7B9e0eb6KRo5PaythaX4uKwa+dOHDx4UIzuyCU9Ki1F0bVrYjFP+ypOduqRjp84iUePS2ETa3/NVYkro+R4npQ9Fdux1dVVWVmkNfC+/ftx7PhxjI2PY252Fvm5efh2zx5s37EDe779Fjm5Oejr65NFjJs3b0ofcnJyJPolwezEiRMiXg4MDmJ5ZVWL+kETCqcDw8NDyM7JRumTJ5iemQHZYA48dQi3bt9EQUE+pmem8PDxQ+Tl5+krk26Ul1cgIiJSEzG/2S3L3ASul7UvceTwEeHwsjKzRLQl+J0+fRpFRUVi1KvcrdQkVQa1qlbHw/XbJ8lvcozELc8lnP/I8IgA0qefbsOuXV9j9549OBNxFqVlTyWK8foikUeMyu/fu4e01BQ8evhQPG8KC4qQlJiM2to6zX5RD0lPg9uxsXFcSkjEX7/Zjb/s2oWvv/lGbCVpBkEvGdqUsh3NOCiF0Cj29s1bAq5cgQ9yBZXG8LT41139tMUKjeHZ6tiT3hms8e7du28WLan0fxcgU5buqlYTSNWqg+wALeuHhobQ3tYuNlb8jecxxDSP036LpbOjA8+qqwW0RkZHRR8wMzuLsYlx8XzngNltNnR2doqIODg0JHZs4vPl8cjAUm7nOZTheW/qz+Zm54TL6e7plgQi5GYYjZQKeXJb/MKMjI5InwhC7AuNWblKwn4y7C5BbnhkRNh15dpFXRXBVZ5jeFjA02bw62RYXi4Zj42NigHxzMy0RMgl18c+MFx3X28favile/FCHGL5smi/xvtRJ8DImBwjstXizjU+vuY7yrFW4xyuf6eAtYkzP989aZPvnds0FqV7HDn2Z8+foam5CVMz08JhcfWbrnWsad9IWqfLET/odImj+kKpNPzMr0EfZurCJFeFD9Ozs6J6efb8udiqUfdMsZLzi/OFICaeMl7NbWqGEZLHJ0RyUE7mrH8KjXK+cC4UFhb+bYBM9Di0IXHRtswmg65eAp25xZtAfA61380mkwASXxITjLAQwdVL42DwPIvVKka2BCzxt6Q/pMslNnE8xm1hWznZxdPfKU7fvI56UbwOQZZfFh5nX9Vv3GdhX1V/uS+GwHSPoouHTkS8Dp+NBoL8XV2L5yl7O/aFHwoWPoO6jzyL2SL9IPCxvXrhofdV/eHvYf3YT5sYaox/q7WRLtU2aZC0zJwWzPZFmiOdkVYZ7IDzQAzY6Z3joHWBRvPipkjdOCPeiAuRNrakMQ9t0AJ+mU+LJpN8ZHkP3pNAxkKQ4X3IaKhoOaRVFo6v6p+xftdx533IWNy6deuXAzLVSTXZFECofT6QelDhpoSV1UBEDY4MjMcjIhoHSl2T53Kflr5ckpWXICs5XM1hhiaPhA3hcQE0fTDlHB9Db2vAxL7wXvJFCVB5r32F1O/qBbCfbMvzWXOfTuhsp/rEY9xnrYDM+Pvac4tBoHaeOsb7Up/GfqhnZs37sVbHeC/2l/vcVuerPoTrPyawKboj7ZGGqNIg8Aj9MPOXGItrdCmiHYNG6H7Gio4IVjI/aESrzw9FT7wufxPaC/FPJg2G0iH7I8d1DozbPBZa1PW3WvP+lFYk+sW6r+W6uYSyI/tQoqXqGB8gdCJyUPi7cfC5r/wbyZ3wN3WNzWoZKD1FG18CV1JYqFRkTTBjUWCmuByep+7/poENBST1LKx5Xuj12G/1bOr60kf9RRvBSD27+l3GSPfv5DgooDISENvyuqpW21sZK7YNl9/nGJAeFG0pejLW6jdFJ8aPo/rNSFM8poq6jjqXNek+dI7yuCqkM+O2oq4ZdD4AACAASURBVFPSsjqu6nelSWVHRlepN5pffCggY0ff1Ek1cMYHItqyqAdnra6j2qtjxuN8OAKWEcgYq4zgZgQyI8gYtzfqp/EFqrbsG4lA9UX1XbVVfWOt2qht7pM4jPdS5xlrY/uN2hqPcVuNQ+jx8P7vE7RC36uindDj3Nd0W1rwAwVYqp2iR3VcXUfVirblOvoHVJ3LejNQUudtRJebnWO87tu22V9yZIxg84sB2UYPozrKAVPbqhbW1UfFPCOurk/6jdqqc9YGXufCFEdGvzKukigg+xGrLCYiocSuJ2XQOSh1X/Uc6kum7qn6wDr0mNo31hsBmfFctjVeM7wd+n7C++9CE6SnUKBS56vfQn9X9EqaV8CjzjHW/N1YjL+pbTVvuG9sa9xWbbdas38EMuHInHoYH9bKEv9Di5bGh9iokzJgIfG01gZXB7I3Wa6zLUFKFerFCFYUKyWkLtljiUq5LptLP7hcrS//GvslCwJ6PCYJR6LkfrmHpnOTPiuQM4hqxuO8pnF/o21jG+M22xr7FN4OA9dPoYFQ2gu9Vujvxv23gY3x983muvF4aHu1H9qnt+1TKmLwB1H2C4ARxHRTC66gfWggY4e4eqEmJ4FCFfmNgCBAxsm7PoF5THFkRiBT11HXZQwl/r6m2FcZYggwFOEIZLoYaBxQbWVTgZm2MKBATBnySpheCXa4DpQETN6L/RCgMygxjQTwU7ff9iLDv4fB7V1owDhvQs8z0qrxN3XOm8BG/aZq4/lq2zjvVLvQWrXdas1FDHre0LbzI6MlvjIFeF8gUyuCZEMVK6oeQAMyEh7ZUCr69KKHjTYCGbdVUUCmHi50YHld5spcO19ARk+gIGCjR1bVAxDyOnIN3XiQ/WGRcCIKYPUkKBI9U//dRc6N11ZlDcg00Zf3V319U20kmLdtq2cO12HA+rlpQNFi6H1krhjEwdDfub8VQFI4sFF7df5G137TMap3aJNJ974PBmQaiFGW1hJwqM7RDkUDJS0BgSQEkUQjHrHwZ4IOmhr4aWogpgRaWBIjMIjNl2EJeO3a+iICYypp4W20AHP8XXkV8LiPujY9MbCADDk4Hcjo0rEkyROCkkSBy9SStMHrkUgWDAfEffbR639dz2bsI6/LexmLdi8tPLW6vyKMN72g8G9h4ArTwNtpQCn7acD+QYCMIPYakBFg9LIGZAIcNLVwwONxwbS4IAlEmpoawcKor1a7TfywNPFS53AMK4PC6dFoTwc14frEpsUPyZvJUL/MlGRQPhIECS6SV1IHMwEgnxcWixlj46Po6GxHa1srOrs6xcJ5YWFeItSOjg5jdmZakqYwsqvZaoFDAr/p9mlMCmLgxIwgJvfUY+wLiBnuHSbStxNpeIzCY/Q2GlBA9uzZMw3IVKz99xUtFZA5JC2cgSPTuTMBDtp4ia7JiYWFObysrUFO9lVcjLuA2AuxuHb9Gto62jXlvK4vIwBQoUejPrKRBEc6pxPI5CF1wBJuSOKVaxllCGTUf/G+cm/3OpARYMitMaUcMzox4mXshfMSQDEjM1PigtFPsrq6EpUVZWhtbcbI6DCeVpShd6APFmZ2omEqiyQd8cHv1VZX3wpkFIENIu7bXlT49/BkDtPA5jRATFhLPqJAjPWHAjKlI9M4Jk20pIgW8HuxvOTH48cPcfToEezatRPpl9PE4XT/998hIjISHV1dYgPm0TkYKvSYgOPVyipWlpiIQ8vQQt1YMBCAOIEzRM4yk4UsSSYj2pLRyp/JRPDqB/yw+gOWAsuS6YhAQkBcCgbQ0tyEuLgL+OTTP+Pc+XPIzslB9bNqTE9OoKmhDo0NdWhpacLz59U4fvI4yirLMbcwvwZkK0xU8uoHrC6vCqgpIFMcGPfVNmsFYgTXMIFuTqDhsQmPzVZogEwOgUzMLxSQKePX91m1VBwZ9WMsmpipK/x1HRlTQnmY225oAKdPn0JkVKQk+JiampQ8jw8ePhBAuxgXh5HRMYm/NTA0JE7TT548wdMnT9DW2gqbxSIZXwhkE+MToNPq9es38LymFlNTM3C5PWAs/f6BfjQ2NKCqohK1z2sxP7coQMYkuQQyZolpbKxDejoDJUaLWEnHcjpvWywmyYI0OMAkI314XvNMA7LyMvFZ46olHcjLy8rxpPQJGGdfgZgRvEK3w0AWnqBbmaDhNlujE0pqDJxAfPiIQKZWKd+XIyPnZdSRGYGMeTCpRwoy4sXiPB7cvYPv9u9HTl4eZufnEVwKYnV1RcS3/Pxc7PjLDok8UVZeIZFXk1JScDkjAxcvXEBGejpevngBl8OB0eFhPCktRVp6uuTtY+6+p+XlGBkbkzA/SSnJSExIQGpSMiLPRKCyrBpzM4sI+Mm10bnVi8bGemRcTkds7HmJbMngcEwKzJyA9+7ewvMX1ejs7sDL+locP3EMZeVPZZVkeHhYQudcvXIVaWnpyL6aLaG4zWaLhKLm4gLLhkAWFi3D3KjB7jAMWlsDrY3GiUD2Gkf2IYBMEyc1jswoWhLIfG4Plvx+zEyMI+HiBQlbXVZRheDKClwel2RosVpNePz4AT7++D9w5+4dpKSmYe/+/fh23z4Ul5SAAQ+ZGOTSxYuYHBvDnVvMFBODM2fPIuvqVWkbG3cRT8rKkJyWis8+/xwnTp7A1cws7NqxEwlxSWhv7UIgsCwTiUDW1NSApMQEfLP7G1y/XozK6mfCmQ0N9eN8bBTyCnJQW1eDhqZ6HDl6GGVlT9HR3obbt27hu/3fIS01DQkJiRILLSoqWqK2MlAd4+oHfNpKqgIz4cZ0EAuLlu9PvBsRdPjYH3M8lWgpCXo/FEem9GFcpTQCGfcVkE2OjiD6zBmcPn0W1c9rECCQMayIzw2LdRFPnz7Ctk8/RnFJMdLTLyPm/HkUFBXJKiRzTpbcuIE9f/2rJCZhkpCPP/4YR44eRUZWFr7Y/hV27/1WIscmpiTj5JnTqKiskPhHuVeycfo4ubLnCPg1PVsg4ENTYwMiIs7i7/7+77Ht8y8kMCOTlPQPdCP+UiwKruW9BmQV5WV4eP8+9u/di3/9l39FXFy8pJf79tu9YAA7JuDliisDx1Enxm0FYNzmWMgqalhHFubKwlzZT6YBBWSyavlzAxnTsPs9zGIcwOzkJNKTknDyxGmUVVQjuPJK7MeWVoIwmeZx//5tfPrpx8L55OblgWJlWUWFrFgyeOLDe/cEyIqvXcNftm/Htk+34cLFi2A2pPiES7h+47rkvCRHlpiUhMaGRpgXFnGj4BrOnIhAxdNnCPio9PeJsp9AxtRZx48dR0NDk+jmaGYxPjWK2LgY5BXmoKbuxRpHVllRLmD65RdfYMdX25GUlIzMzCzhHqmnm5qc1kMHLwuAkTsjqKnMRwSxMJD9MbmHMNf44d87Vy2ZRen5s+cfTkdmFC1DdWTkyJb9fthMJklecOrkGVzNzsPA8KgAmc/vRXNzA9JSkyQreEdHO/IL8hEZFSViJc0pGGc/Nzsbe3fvRllpKb7fvx/79u5Fyc2baG1rw4uaF2jvaEdXbzdS0tNFd8aY96aFRVwvKMLxwydR+qgcPt/Sa0CWmZEh4aRnZuYEdLjaOTkzjvMXopGbn/0aR1ZVWSEJTMkNfv/dd2JR3NzaCmZJ6urqxuTkFKYmpzA+Ni5ZjxgSmPkDJTv68IgEslMmIWHC/vCEHR7TP9aY0jVxempKIuD+bMr+NTBzOLVVQgYidLkwPzMjCWejz8ciJ79AQKixsQFXr2ZJZu7ikuuYnZ1GfkEe9u7fJ6ubTAZys6QEsefOSRnq78fltDRERkSAiUgYx5/JchkPv39oEJezspCekYHmlhaJP16UX4gjB4/h0cMn8DLbkc+LYMCP5uYmZF+9iqTEJExOMgSwFkd8anoCcfGxyC/URMvG5gacPHkcz6qrUF/3UhYIjh45IvH4GeJXZTpi2O6K8go8fvRYwO3h/YeorKxCzfMa3LtzD8w2rtm8hc0vwqDzxwKdn+N90xRrcmJSrAc+CJARtDYrYmVPv0QJ5ewRd6C+wX4kp6fis6++wJdffYmvtn+Fw4cOobCoECbTImx2C67dKMI3e/6KTz/7FLu+3oXPPvsMEWfOorW5WcwvmPjz0qVL+HTbNlHs7923D9eLb6CnvxcF14qQm58vBrYLiwvC1UVERoEroW7advm8YhDLLOXMUsxkHnPzCyIOckVzdnYGV65kouRWCeoa6tDa1oL4+ItoqK/D3OwM2tpacejQQXz11Vf4cvt2yY9ZVV0taakyMjIQHxeP27fvSHr49NR0XLlyFZFnIzE8PCJ6srCyPzyJf46J/Ue7Jt39mGSFap2fHcgYE4yRIlTx+L0wOyzoGexFdc0zSbJbVlYmiXOZvIAW+XaHFddLinA28gwyrmRKRnEm4ujp7obDZhcgY6aWoeEhESmflpXh+YsXGBoehsVuw+DIMAaGhzG/uCgAy0QlNLSdmJqShQPqBbnIwAQho6OjstrIzEuSQERPZjI4OCAJQmbmZzG3MIfevh7Mzc1KqCO6NrW3t6GqukoSLzQ0NkoiFOacHBocQm9vH8bHJ9DX1y/JUEeGRmSb9wiLlmEQ+6MBzs/xvGSMlC0pJZ+fH8gYCYPxwVSMMI8LdrdDwGzBsghyTAsLi5LJRYl2Nua9vHsTSSmJKCsvw9z8nCTyYFhdFTaHflZ0NbJYLTCZzZLJiFwhXYeM0WHVfZlggdwhI2USxHiu2M1JwgWG7NVt4Qx+omwjMdro9aDHa1Phfex2mxjPMpsSU8Ur/09t1Va7HrPT8Lo0EuazyfOF7ch+8mrVzzExwtf8bX1glIQ3NTGJO7fv/PxARgBRkVoJKg63EzaXHQ6PA26fB4FgUFb6OMlplU+reWYgfllXgweP7otdF0GLxm9kJdcAQ/e35MoFXZgkegb9H/1+LWcek4roIa8Z5poAx7YsWjhs7cXxmixcrCBQsuY+262DnkNLSc+09Hr4IUbE4MIAl4DZP04EcltcEaUxrJhbcJWSTuVenzyjMpINi5a/rUkTBrlf3/sikPl9Xknh+IsAmejODNFanczg4nEJoBHUGIKaAOZyUQGuAQ6BhlyZ2WKSdGrKLo0gRqJSwKFAjcBDcZH3MiYeEQAVB3JNuc52PFcKY/vrsZR4XG2rezCNFq9JjozFZrNK7aXzu1e7n3ZPzYmd15D+0FFej7jhdmpARlsydUzsysJ2ZDLeYYD49QHEb+WdKCCbnp4CE1j/IqKl4shUUEIGMdQCGVJ3poGY0+mGRM9gvkk9wKFEsNDTwhkHWAGP8ZiACI0MdS5MuD+JS6ZnUNIDIfLcNdDRgVEdU9dT11fcF2uKlkqsVMEhKXoqMOW5oUDmdYfEJzM6jodDWYfBLGwU+940QCBT5hf3793/5YCMyn6CDIsCNNZcRWRRgEZRTAxHGYZHuJ/1xCNGoFHgswY6BBL92qIXU3o5faFBnatqBUAETXXMWPO6AqgGPVkokBnbczsUyORZhPsix6db+Ye5sQ3HO3Qsw/thbu1NNEAgYzZzZjD/xYBMmWAoIJM4+jqAMVwPC8FMufOE1gJshq+XEcT4QAIioUAWEpo6dFAIOqLMl0CJegbykHvwnPVFAU3MNHJpEvPfcM6aCKynome/1wCTCw16fLTQvvyUfQXkP+Ua4XPDoPFbowHO+6VAELPTMyh78guJlgQymfQi1qkYXVr46VDQUqt7qlY6JTEk3UAc4wNpReN4CJIOiq46kKnkI8YXpUBMRfswAppqpwCCbbXVzXV9GXVmwp1JoEhdv+bW28lvGmiF+p3+FCBT/VH9U/Vmx9Xv4ToMUr9HGuBcCvqDmJuZQ23NyzeLlkqZrTiNN9WvG8Q6wNVKVTSOTEvywdU+gpICKtk2cGNrx0PDROuBFvlSlAkG44oRxDSQ00RUEV31BCcET16PYKhepjK9kNpJ8wgdoHTOTLXjggBBgu02ArLX9Hd6SjkjMKr7aOc65Brq2qE17xMKSARQttNEcpXp6XUxeF1cV3Z669mpeP/QYryvAtWNamO78PYfCwhD6YEqEWUDqtVvpiuNZg1t9FV+jRZ1el5Tt7z/2LKfS8ElzEzPoLr62daBzOVwIrQwRE8ouKnJrGq7zr24XORi7PB4GJ/MJUunS8EglpaWpIjJgocW9wEBH6VfIhD5Gd9LBzKCGIsKe83Q1wrIFHcnmZGcDjALEgFHOEIlgoqBrkpO4pQVSCYfWVpeEjMO9kcLrc14Yhq3pQEiwYaiomZbxhejAbKeQJj30Vc4pdaBkeNAmzN+FBQ4KXAI3VeApohJiEjAlGYrLjCT09q5KgkxgVa4Rs0uTkRht3NNbF7bNyywrOnrDB8QNXYa6OvPbRCb1X3D9fo7+K2OhaIvoTevR8yIGBeQZkwsDHag5qPD5V63yyT9ix0m7UI1ywPW1GUrtZG2zQ8vP7pOuNxc9deYBVojSH5Zrw9Ot0dsS9fHUGN01vffPs5MOkQge7ZVIAsFMOP+pkCmG5FyIjtd5EhscDitcLts8HqcsFlMmJwYE2v9np4ejI6NwWKxiuM2wcvt8sDj0hKQrKV7k+gRBBD+5pb4/U67BmQ03RDzDU5OpnNz2uF2OgTwFGAQfESM1PtEkwpa6w8NDaK3txfd3d3o7+sXx29Odt6XA2uxWDA6OoLp2WkxwyCw8VokBMVRrl3XAGYEPSOQsQ3PUy9rDbh0joxcoNi5SThuArC2gEEQs7kcsAthaKGAKLbanE7YDUBm5/3celEGv2qf4Cb31hcdNgExBWjah+TtxKSeJVz/dsZKPvxi36iFhGdSndHxMfT09qK3p1e8Uqw2O9w64Dj0j6aoa3weUduQ1mz8SJNB4QdWFu4IaJwbOoC5tDlvd1hgtpowT+N3sxkOj1eKSxb5tLmk0jJq9dbGcsthfJQdldtJYPhxIaAZgUz2aQCrQEyJbURkB+2waAFvhd1mQkdrM4qvF0lgQ0ZyvXnzJjo7u0QMVOIgJ5UCCn5FKL7a7eTqNK5MdGMuPa+lR8ug5OMEdTrgJUfmcoroyWVaTjQCmsZR2eVrQRuUFy+eIzklWfw24+LikJqSils3b4kPF0MQ8RwmAb3/4L5keyLwBQJ+eWEKyKRvunmGvETdXEONg9KpkaPji2bhuVYbX7RD9tlHv4+Gs1qiFRHHXfxqeUCisThsYkgs54rJiluAzEljXina15Kgp8CMRKa2tZosP7ktDfQ3qxVXxucKA9TWJtVvZZyUPlmBmc1uR1NTEwoKCxF/KQEJCUkouXkLA0PDIND4/EG46EWj05jT6wYLP6xWh10K56WInfoH3uGkTSelEIsUp9OG6ZlJNDQ3oqG5GWYGkuB1xYaU46u4Ma1mH7cynj8bkBHUODHVBF7TP8mDWeHx2BEMelBRXoqzp09i757dyMy4jEuX4nHo0CGJ+NrV3S1gJpFWfX74vT6srmhJPoJLS8KOcuD4oFx+fbWyIglAlpdXEAwsiRjqZx5K5qv0+7DM5CVLyyAbKsp3B4GQLkMudHd3Ij3zMv5z2yeIPndO4oqdPx+LvXu+xfHDR1Hz/AUsZov4UVZUVKClrQVMFbe8vATmv2RiFF5XOCm/Txzil5aD8Adp2e+C3WETbtTr90o471c/vMLqq1Vh3zlW5RUVWoSOxQVJlEIgY0IVsverq6/w6tUP8PoDAmQ2lw0evwvLK0v44ZX229KrV3D7/bDrBse+YECyqhPMNO6MoLZeaJYSBrKtTZKtTKTfShuRSKhzJZ1wfjodwvnTva6yshIHvj8gUY4vxsUjITFJ5kFjUzNsdgcCgSWhKdIO/aSDK0sILAfh9nlFzPT4ffAG/BqQ6YwC1UhuqpC8LgSDPiyvLGNweED8ptOzsjBnssAXXBHaFj2vDmQayGqLd1sZ258NyDSF/+tApoGaDW6XHU67GaMjA4iKPIuoyAjcu3cX42NjGB4awt27dyT5SGJSorC28/MLGBsdQ19PL55VV4PhbBmux2SxyMDy5dDPqrG+Ho8fPERTQ5OsYPBLMzk+hqGBPsmEVF1RgdqaGszNzmmRJzjYTht8XhfaO9uQfiUTe77bj2e1tfIV6u7qlut9t2cv0lPSJLGI2WxGc0szhkeHRbxkLkzGPqNs3tnRCbPJLOInww3RN7SmtgbTM9OiU6POgFwcz39c+hjPXzxHe1sbamtrsf+77yRyxr379yRuGoFsZHhY4is9flyKFy9qJbwQ9YwWuxlDw/3o7GhHfV0dXtTUoK2jEzNz87A7XbDYbBgZHQUTttBZnqu1Yk9nsK0TO7swR7alr/1WJtJvqY0CCX5g6ZnCmrlcz545i/j4S6ioqJQABwODQ+ju7sHU1LT4CXu9Wu4J0jH9opkSsaOrQ9Ii2p1OjE9NobGlRfJviN7Y65F8GASxsbFh1Na+wKNHD3HzdgnOX4xFWmYmphdM8PiX4PH5NcN4qoKoqlmzQNjax+ZnATINxHSdkEG0FCBzanqxxYUZPLzP5CP7kJOTA0a7YMo2Jh8ZHRlCQV4uvt61E3Uv61BZVYXCgkJkZWQiKzMT8fHxyMzKQm1dnYiY1Kkx9tfVrCykJqfgctplVFdVY2JsHOVPniArIx2pSYlITkxAxNkzqKyoxOzMLAJ0TXJYEfC70dnVgSu5OTh+9ixGJqfgDy6J7+fC7BwuxV5A1JkI3L55C6Mjo7h1+xZ6errR29uD+w/uSR7M5ORkcY8YHBwS8CkoKEBaWhqysrJw9+5d4eQmJiYkekdSchLiL8UjJzsbd27fRnFxMf71//wfbPv8c2RmZmJsZAS93d0oKS5GamoqUlPTEB+fgPv3H0hGqPGJUWTnXEFaagoyLl+W0EDJKamoa2jEwqJJIntcv3EDpU+fYmx8HL5AQEQD0UNQF6GXzcRJ4/GwaLm1ifRbAjKl0iBgMMz7zMwU7ty5jV27/oqy8kosLpiwsryC5aAW3Zg6aia1lijHjHS8tARxB6ooQ0pqMjo6O9DZ3YN7Dx8jv/AaxicmRV1C/8floB9Dg/24d/e2RGBOTklCRHQE9n2/HwnJyZhbtPwIyIwgxu2tjO0HB7J1EFsHMjHd0AGNqxbkgCYnRhAXew5Hjx5FeUUllpZXwHyXS0EfbNZFlD5+gE///J+4fee2hKres3sPvt29B9evXRMgO3bsGJgubmJ8HA8ePEDcxThERUZJFqODBw4i4VICysvKkJqcjC8+24YTx44iPS0Fn237VKLAdrR3YCkQgNdlx1LQi+7eLmTn5+FERCSGJibh8voRWFoG9WyP791DTEQkMtIv42XtSxw7fgzV1VWiU7twIRb/+fF/IjExUQCSy7+nT52W+6ckp0gcst3f7EZ9Xb0EWYw9HysJVwjeDBB5/949AbrPv/oK+w8ckCi3w4ODuJKRgcizEeA1bt26jejoGPlikuBamhuxY/uX+HbPHiQnJSM/Lx+7OTbXb2BwYBB8tu+++x5F165jeGRUQJnKWgIUs6/Ltr5vBK2NtsNAtrWJtJXJ9mtpQ26JelKnm+KiFx3tLUhJScY3u/dibHwKfl9QEk0HvFTn+EH3OpfDBavZCtOiSaIbM3Xj06el2L37rygoLEBObj4iY2KRnVuIyakZTa3D/LU+D27fLEZMVCTOxcTg5q2bOHHquMQfjDp3DosWu4iWRo5MAzItofavAsg02zG75sStlP0uu6xUjgz1IeL0SZw6dVqSjwSXVkT8IsgRyMpU8pHiG8KVREVHIz8/H1arFZOTkygqLMTub76RNHAHvz8gMftPHD+B7Owc7Ni+A/v27hMO7nL6ZZw6cULacfDJnUWcjUBVZZUA52tAVpCPkxGRGBgdh8tDPdcy/B4PKkpLERsTg/TUNDC5ATMyPXv+TIAsMTEBp8+cltyWBJGM9Az83d/9PU6cOCkgdObMWfzjP/5PZGVdQUREJI4dOy7p4hhdg4Rts9pATi0yJgbXiovR29eH4YEBCeOdn5eH4ZFh0btR5I44exbJSYl4VlWJvd/ukSCQFH95fkL8JVzJzMSzqmoBVCZBaW5ugcViA0UCFvqwEsi8PuryXjdC3gjENODjYoBGVL+WiRjux/uDq4AYF6C48u20IRD0or6uBvwgf/f9IVFPBIOkez8CnAP+IGwWG9pb2pCfm4/kxCTJHNbf14uF+Tnk5FzF/u/2Y/eevUhKvozZWbPkjA0wBSIX5MwmnIuKFIaitaVVzDuYjSwyJgoX4uOFI/MHV0W/S3ClTu11INvaItPPypERyJhejhyZ4srYUb/PjcnJUSRcuogTJ09pyUeWVxEIBrC05Mfi4izu372JP3/873j8+BFy83KRlJws4aSpTLdZrRIvn1mUmHzk65078cXnnyP24kVczszEhQsXUVR0TRIRMANTUmIi6hvqMT8/h/zcHJw8cVKS6XLV0uu2I+h3o7unEzkF+TgVEYmR8ck1IOOgFhcV4dLFOFwrLBJR9/iJ46iqqsSzF8+Qnp4G6vImJidERxYTcw7/4x/+B87HnEdWRpaIhUxMcvPmLRDUTp8+I3o/Lgxw4YHPw6QJBLKiGzckqGRzYyO2f/EF7t65A+rkaGO3OD+Hi7HnkZKQgIqyMhw/egwlxbcwNjYh41H68AES4y7icmqqcKVcqBgbGYfPFxAlLetggCGOuDihF91Oj1yXxnn9eAUzzJG9P2j8GgGXQCb2hC7OTSsCQQ/a25uRmpKM3Xv2YWx8GkvBFSwFlrDkC2A5sASnzYHOtg4U5BUg8VKCANngwICs+jPk+5///Gd88slnKCwqFtqiKCpWC1YrpsfHcOTAAWSkpWNsZAyrq6uSSyM5LQUpaemYnTfD4+Migk+4RCOQqdXUrYzjOwEZVzjYwc2KtlJJkVIryppfgRl1ZOyoz+eG2TyPJ6UPceLUaeTkFWJ4bEImrM/nQWtrI9LTkrB/3x60tDRL2OuYc+dwo7hYn7c7/AAAIABJREFUTDzGR8dQmJeHfXv24OnDRziwfz/26zkvX9bV4dnzF5IAZGBgUFLJpaaloam5SRTtOdlXceTwETx88FBehMdth9/vEiDLFSCLwOj4JNweH6xWGzra23H21CkwMQkV+g31DThy9AgqqyolIu3ly+lISU0Rrqirs0vSwv3zP/8LrhddR23tS+G+6usbJD1cbOwFHD16DG1t7WsZlKwWqyjmT545g6u5uWhqbpYQ3l99/jlyc3Ikai2Vq0MD/bh4/hwy0tNQ8+w5Th4/ibt37mNifEr8Nvu7u3DxXDS+27dXRNvi4ptYmFuEacGMmalZmBctmJqYlizrc3OLGB+flACWCsSMtZE7CwPZ7xDIdNGSHJnH58TI6CCuX7+Gr7/ejcePyzA3syAuPz63FzazFZZFsyymUWVR9/Ilert7hBsjY3CzpBg7d+7E9h07kZGZDZPZCpfTLYm4XQ47ZiYncOzQISTGXUJXRxdWVlZQU1eLqHMxiEtIwPyCBR5vUFthF0P51zmyrYAY27wzkNGC/12BTMwwdONQApmXlr4uO6amJpCcnILomPMounYDAwMD6OrsEK4pJioCBXk5mJmeQlFRIb77/jtERUehra0N9+7exYVz5xAdEYGBnh6kJScjKjJSokMODQ2JDdro6BhGx8ZxOSNTuCLaxzAfZnb2VRw6dBj3Hz7U3XYc8Ad0HVlODg4cOoxnL2rQ3dMrq4nZV6+IGPfw4QNZUa2rq8Px48dFtGSSk8sZl8X2jPZlE+MTKCkuwZdffoU7d+6io6NTQl0zIQmzKhUUFAqQMW4/2WyKhTS6ZZ/PREQgntxWeQX6enpw4tgxnD93DlzF7OzqxP27dxB3IRa3S0rQ3tq2BmRjY5NCdHaLGalJCfjy889ErG5tbcfiohlNDc14WlqG3u4+3L/3ADW1dXj5sgF37t7D2PiErEbRcpv2ekabPSOwKevvrRJVuN2vF/zIkanicDHMux0m84Ik7Dl96iwiI2Pw6GEp+rr70NPVg9bmFlk0ox3lK5r6rK5KcdhtaG5qlMUz2n6eOxeLmJgLqK1tgNVqFyduH+0jzSakJCYiOjIKN24USwj67NwcfLt/H6LPn8eCyQqPbp+miZaaOdVWdWOK1t4dyBiuegtFcWVrIEZ3HuVrJcaptMp3g+neKJpt374du/+6G1//ZReOHjwsadusJpO4FpUU38Du3d9g27ZPsWvnTmz75BOcPHYMdTU1CHi9aG9pQUJ8PD795FNs/2o7Dhw4KAk/yJHl5xfi6tVsydBEMa2kpARnz0ZIFnLNlsolLkm9fb1ISU3F//rTnySByedffIFdu3bizJlTePjgPqhfY1x/mkpcvHgRdfV1oIkFU9VRcT/O1UGvD8NDwyDntWPHX/DpJ9uwZ8+3kvOSS9iM309d2ccf/xmff/a5iLhU9s/OzOBq9lV8u3cvoqOjhXga6usREx2NHX/5C3bu2omvv96FG9evYaC/XwCVCxsPHz4SMZWrSLRLI9geOXIEERFRYvczN7eAq0xIfPoMHj8qxZEjxwTYMzKv4PsDh0D7IIvVBubb5IrUa+BltPYP68i2tHKmJtWvuRYQM8xDMhZUsZhNJskAdvDAIXzx+Zf46qvt+HbPt6J77WzvkMTa1Ht53R4x1h7o60NeTg4OHzqI1tYWWcxKTEwG7c+YBITmQzTs9nncwpzEx8XJvOJ82LNvrwBZ2uXLmFs0we3zi6Et7RzpcWL059zqWG4ZyCgeEpS2AmIbtaGtlzaImluO5jDuFneFnp4uVFVW4unjJyh7/BStDS2YnZzBsj8oYHf79k1ER0UiKzMDpY8eiY6ojVbBCwuijLeZzcLFVFZU4NHDR2L+wCxFFA1ZE0Dm5ubFdoxA09TcgpGxcc22ikHZ/H6J90/XpNInpXjw8IFwQk/KnqC1nXYxM+IjyUixMzMz6Orqknpubg4jIyPCUdnsVKp7ZTGCJhg0/2AqOKaAY55Lulyp/vDYk8dPUFtTK8BH/SGTpzBpysuXLzE9OQUmIe7p7RERlv2h7dzo2KgcJyB3dHRgfIL6MZv0n4azzAJ17tx55BcWia6C+QH47K3NrZiamBKRluA+MDiM5pY2EOi0BQBdoW8EL+N2GMh+N0BGYFAcmbHmcXrKMI1heVm5qF4YbbW5sQmL8wtijK5AjCBlWlxEb0+PcGXMdrawsAAasFM1QuNaTWFPztQl2dBIr0wM9PDRIzyvrUFDcxP6BgbE5pGeAppdo57PQw+QoBnIbo27/WWBTKx9FZBp0SRoWe9w2GAxmWCiTmfOBKfViaBHUzS6nA7cv3dXTCcqyssk5pCVPlo2G8i6eglEfHCHA1azRXJX0gKflvvip0l3Jj3pBzkw6u3IhdCAj4aiDK/NmoNGoDaZTZiZnREF/Oz8LKx2K9xezZWIYEyQJqCpmP7qmHw56HJEuxeXWwxjF+YXsLhoEl0UjynlJcGHv7GfvJ4Ql8slin0SAbNC0VOBrktmi1lAkz6ebMdjPIdEp+49PT0tq6mxsbHIyMxCY3OLmFxQZJREKja6aDH6LvunKfRVOHHFhb3ReTwMZL8rIBN6M4iYpCNxsaPhtNMpJhY0GmehuQV9mUm7nFNawAYPXKRBmQf0jtHAkTRJeuXcIJBJQAfdUp/HtLk1KwmCmOFM/DONCYlCAqD+qoFMTUYOHL8IjEpBETPAxCHBZawGVxBk4lyXF1Q2UhZ/8fyZgFlXR4cMJIOosb1Ev+CAEcw8TLQbEEM+hvRg5AxOZK7WsTBYIx2vvVwWZjIRPTkJjUXp5CosrdcNX8APr7ha+MQNw+XVkqSwr2JIqBvo8eXzWciFCWHo+2qbDt/0leTqJCN2MOEJiYGEoKJqaG5NfgEkjge/KpLoRAcsni9teB3avBFwdTA1Eh51izSkpV3d07JyLJrMEqBSe35eU9OBcUxUMUY1UGC2aR0Gst8dkJFOFa2SplThMdIs6U4FLVAfYAIZ6U6FzCK9sh3nhcxlMhZ0V1JzgwEQdECjGx/pnpE1mEvDGME5lBvTVD685ta4Mfb5F+XIiPbqIfmAIkP7uPSvOXAL8rvo6O2BJOtwuiSqhYme8vNzsFutsi9O6y6X5LQMcjCZvUgfNG3Ca4prcmTkPFShDVVwaXkdyCQ7khduL52t6ZPoEA6MNfdZjEAmrLj+9eLgKTDhtiryovXf1DG+bA40gYi/qzbclyxOhmtxfMjxqXNVzbHjV42FbdS9WdO2rr+/X1ZOmXaOOi+CEjkwlehEKfLJeanjRi7MuP0jQAsD2Y/eh3ovv/WatGQsitMnXZHmFK0a6Y3PTNpVH1fVRtEla56rCmlcQvro80T052xDSYrzQUlFRhc6Xbzc6vj+okCmBkx1TsDMz0gVbmFV+buEsuYEdGqOrWxD8ZKxxvglYCEHtgaEjBRBQNCjYAjrawjEKKGzDREelGU73XQU8isg46oJQUxFilBgxpovQooel0y9WPUF4v5mhYPMdHH8Eq2HOPnx9UIJQo2TIgw1fqzl/ozppHNpBDMSIQHJCFrkRNW+qglUCtDeCGBKTxYGsj8EkJHeZA6GfJjlg6tLHoomWSt6VceM9KmOGeeEOsZoLlJ0IFPcGWvOSTUvf7Uc2UYPKqIUH4DOohJjTA+xQyDTAYugFVoUcP24Xo84S9CSPAAycTXdEHVEmq+hNmhcKWEMJSOIKSDjMRaKnRIyx5DFSV6QDm7Sz82AjElTCDj06xRxWmOZ5SUZuDP1klVtJBLjuKlt/q4ITLVVZhKvc1RqDLTaCGaazmwLMcnCQPaHATJFf8ba+AHncUWDxjZqm7+pbZkjG9C4AjEFWhvVnB+/OiAjd6UeXh7U8LDCdnKCG46ptmsDYgAyBVwK2NT+eq1ZqavJbJy4a4pucZpW6K+JkEYgUwBmrNd0ZEqhr3+RFIiwr8YXZ9wm4Ci9gHpp6iWpdupZVW28Lo8Zxyf0Xmvn6ICjnl2BtvKtFGBXXJbOlam2b6zDQLY2OdVY/15qNddC6cv4fJxrxn0yHFqMvHXQUr8br7MZbbONmgeb1T8ZyGgKoEwtuIqn9tUxJfdutRYQEzFRm4zkvGi3wmVZljUg04FADYiq1cCEApfsU8QygJy2/WYOQ0RKcoC6PE5ujKKjgJYuVoZyZOzvWpF+h7zY0Bcdsi+gpHNj6sUpIFPP+T51KNgpjkyUszoXqiJdsCawKcBSbdT+G+swkL0+kUPe7/u8u9/KOWp+af2l36MWt1+Jh+p31lt9JtK+mgeb1R8EyMQvUg+6xm1V3mZHtm4Eu67oMwKZJjpSz0UxUitGINNEL83ejCDHwVFAxkHiPhcIyH3JALpcYqgn268B2jqYGTkyTlaRxynvU7ck8cWpcOQXgroxu0ReNQIZAYzhudeAjKD2BjBTYGKs+fKFANbAUyOGrb74d2m3dt8PBWRhENvyBH2X9/RraKtoRfVF+zCuMwfCbKwxHQQq0rG2+k8bRc7t1+aeymvxBlDjPRRIhYKY8bjaVn17W/2asl8LfGhfzyakR3jdCpAZQYzb6kHJub0OZjqQ6QlBaDLhDwRk5YJxwMUMQgc52qqwEAA5ABw0BXCi8NeBjKYXRoDjQxO0CGKa3Yuu3ObXRA/VK6sla6uIBDOnAJon4IUv6BcHdiroCWBcVfV4eU3t/gp8lTmGPKNwh+sAGsrhKLFWxD0d2N72ct7393UCVV9QEo+2rX57l/p9+xE+b+tcyi8/VgZa5cdK4uxr9K3NMUpMWrx9+j8HJaDDMvx+mk/QZEi3S+TcNDIRG+nE9BVMMiXqPjKHfEw8oq1cErg4BgrAVL3VcdkSkBHgFJe2mUi5GZApv0z6aillvnBjjN1vt4prBOPVa5ySR1OuM3Y9C1cquQTMlTjR7dDYVFu55PW8jNFPlwlmXFKcmq7DUucIkMkk1pMiMNclV0l1vRUHllEyrTYLpmam0D/Yj77BfgwzwcjMNEymBUxPT2ByegLzC3OwWi0S4tpqswq3yPsQqAVshSDWxTcjmBmBTNv+eUPjGIFKcYTGY1vd3iohhdv9mkErtG/6R82gLxVGgXNHqX6EE6PJjxUzs1MYGhkUE5+h4REsmmhwrnFnmo3ZOpiRDgSsDNIUTYaIG9o9ONesMrc4vxhCW+aJmqMhYLZVutocyHjzkOQhbxItNwMyATBOdJ0V5YSn/5XLYcPs9KSEe25ta5OQzERpim0SJcNh18wsdKtiApLYnVEslOs514CM3JkyyaD7BL8Qgv5uBnZj+jjNfotyvdlqFSBz6zZkbMuAjuPjY6BL0oX4i7h4KR4ZmZl48qQUQ0MDqKoqR3llGVpamzEyNiJxyIaHh+SFCBCSIHSwJRfI8mPgWl815W/q5fG8rb6scLvQCRnef1ea0OhN48YUjWofXB5zCwNBcycCGj1uJiZG8ejxAySnJiHmXIyEyWppbYdZj3MnKRuVqkfNuw24Mi54EWzINExOTojrHXNfzC8sylzRAFFJXeuc2Vaf72cFMmXUypouMuQMqN/y+zywWU3o6myToIRXsrMxPDoqiTyYlShIK2CysrQu9hKYtHRstNhfXV4R9x1ehy5KElU2EMAq8/AxDyUdUHVzCYqtqysr4rXPr0J3Tw+Kb97E2NQUCGRi1e9yiUdAc3MTLsZfxKefb0P0+XPIzslBVXUVJifHUV9Xi6bmBnR0teNlfS3ORpyReGSLiwuSeISDyNDATIxCY1ThgEQfp4PXBsAWBrIwCG11kn7IdhsBGemV84zio/K0YQgefsSjYyJx8ND3OH32FBKTk3AxPg5V1c8wMzMHH4NzUheri5dkRJhcRJlU8SMv3gG6vaOYC/m8Eia7puaF+BbPL5jgdmuJs9k3Mhbv87w/G5CJuOUkwmsgxnC52uQlB8TIqItoa2vCwcMHkZqejp6+PszPzWJ4aFAcUfmgTU2Nmq+X2wPzohldHZ2oKCuXhBtTExMI+H1YXJhHS1MTqisrUf+yDnMzs5JvkhmOyDUxnlhTYyOePnkiMfQ/++ILXCspQe/gIKyS0NeDlZVlNDY1yFfn5JlTEoRxeHgYs7MzMJsWJBTw4GCfsNc1L1/g6LEjKCt7ikXTothy0XGcIbBfvKiR0D1m+nqS0yIIq9DSa/Zrr68eaoT1fi/vfV54+Jw/9lhvBmRcaCO3RCDzU0IZHcG1a4U4cuQQ8gvy0NjYILkum1taMDIyCpPJrHuIaKoe+l3OTE+jrbVV8lPwPvQppiM5fYFprK0SnTBHQGdnuwRfsNIP2E1A1CQpWWB4w2LaZvT7iwGZoK2gNx1P6YazgNbWBhw+ehgZV65IZNSqygpkX8lCWloKkpISJZNSY2MjxsbG0dzYjMzLmbgUF4/CggK0tjTDajHj+bNq5OflIjkpCZfT0vH44SNJsksOKj8/F6mpKRKgMD0tDQcPHcR/+//+G6JjL6CmoREmKyNWeLC8FERTcyMuZ16WL87wyIgMPNNlmRbnJABkQ+NL9PX3oK7hJU6cPI6KinKR8xm+587tOxIqiElCcnJyUV/fCJPZIj6ejEUuYLYBkPFLqJScm72g8PE/NvB86Pe/EZDxoyt0qIfXcjrseFlbg6NHDiM5OUmisIjPb5ChnjTXJZpR0VCWHBdBxG63obu7C6kpKfJRHxoaRlt7h8wH5qi1mM0y1xg2aKC/B1VVFRLpxW6n7jqwBmQEUoLZmywDNhqTnxnItCXaNWU4uRPRSTEu/zxaW+tx5NhhZOfmor6xEZfi4/DJn/8Tx48flRjiX3z5Ba5euQqmQ8vJzsE3u76WmOHMLsSBbm9rRWTEWcRdvAAGd2PwNkaKLSt7gvyCXGzf8SW+3fstcnNzJcZ/ZGQE/vEf/xHJaZfR2tEFm0MbNIq6TU0NSEhOxN59+3D33n0wqivD+Y6PDePcuUjk5WWj9uULNDTV4+SpE6isrEBXd5eE/Dl65CjSUtMkxPbhw0dw4WKclvTDTx/L4I/0ZVrkCeXzyD6EJ2t4DH4ZGggFMll9XNPTclXRLX7Nt2/dxGfbtkn+B4agolpHW6zT/KLFLEmsGjTfX5vNio72Nhw6eABp6ekovHYdV67m4Njxk2hubRN/YEpiHpcdNc8rkZx0Cdk52bBYnRLqWlLNcR4om813BLOfBci4QqGU/GqVU3NeVvouDchaWutw7MRRAbK6+gYwkcfRo0eE2+nr75PMLjHRMRKDPjEhETu+2i7iI3NHjowMCyf2z3/6E44fO4aUpCScOX0af/qn/4mrVzNxOTMVh48clNRtZG2nJifx+NEjiZ7a1tkDm8sLt0TFoOe8V0RLRqD97//wD/j6628QGRkluTaZP/Ji3DkUFOauARk5MgIZc1My7PXHH3+M+Lh4CXO9d+8+fPbZF5KajX6Oyyura0CmWdb7tBhgInZSzPxlCDh8n/A4kwZCgYwKf800h+NDuzAXZqenUHzjOrZ9+qmEa3fYnWDSaybIZqQammOMjgzj3v27SLucjvzCAjS3NAkAksE4efIU/rLza5w5G4W6hiYsmMxaxAwm63XZUPO8AslJ8RqQ2Vzw+Vbg9VI/R6AzGJ+/xWbTSNO/CJApuzJZJeGqpWRK+r/svfd3FFmWLvr+pvt+vOve997Mvf1mpl+P7Z7prq7u8kXhPQIhIZAFScgDQhJyCAl57z3yXiCQ996lpFRmykBVf299O+JIQSIooBBFUZFrxTphTrgT53y59z57728WHe2NcHW7gDtxcahvbBRjYkhYCDo6OzA5MYG4O3dwyc0duTm5wnrk5+cnYEUaNaqQwUFB+P2//zt8vLyE05Lqpf81P5SWFeHuvXhc8fKQ2RHq58wvTiA7feo0urofY3V9Q1Ls0hdsa2tDbADMVHv6zBmUlZZLEkLa2EZGBxEY6IfEu3EvAFlqWioOHDiAg98dREhIqPADhIaGSU6w/sEhIR1ltg2+NyUzB8k+JKUOJyT0KfCdf0NzoBk7prm+P/1hLyDbMXHoqiVt1czF/9e//hWVFdVYXrLgGcmBmN5nc0O4MIeG+pGVlYHgsBABpMamBiwvLWB6ahIXXF3x+z/8Fy64umNmniml9Mwv62tw2FYFyMJCr2tAtrIO++b3sDu2Pmwg09wySM1OkZS5jJgCZB0ry/Po7GjG+fMuiIm9owNZOG7cuik56hWQuZw9J4xHw8PDKCsrg7u7m/A9kpaKFGh/+fOnuBMdg9qaGjyorZXcZY+fPERGViq8vK9Ibn3OWDKdNHP9Hzp4CK1tnVi1OuDYeirB4JwhpTGT+ffJhzkzPSs5xPjvND42jGvXfJCQuKtaKomMRL1UXZleOic7Bw8e1MlCcpHxiUnJwDo1PYO5OSZrnJHtmdk5mfFhtlg6DWsda386rQkGZrvu3Qd23S801wtNM5DEDevUlpZEKzpx4gRuR0bjSU+vzFAyrx5dsiyWJUxOjQupdU1tjUyOUUPixNij7i6QlvGvn32Bi+4eePSkD2sk+BUXKCs2HFbU1VK1DJIU8csrtpcD2Ruol/sikRG8lDe/8i/joBW3BJHIbFhdWUJXV5sA2Z3YWLGRhUdEiFTW2dUpEllsTAzOnjmLjIwM9A/0C8CRDNTHxwdBgddx/14yjh46jPTUNMllPz42ikcPu8X3JTc3C14+nqiqrpassDOzM0KG+/lnn6O4tFz+KRxivNQkMs6QRkdHISwsDONjE/L8NHrSj8bf3xcJiZpExtlNj8uXxP2CJL0hoSHwuOyBxsZGYfWmw+DY2DgeP+nFg7p6VFRWoZOzrRWVss2JAFLST01Nm0BmqtU/o2lBAzMCmbhQMP5RV+s4AdbX1yvJOk+dPI3799PQ8+ix5OLv7upEf18vFhfn8ez7p/j+h+/x7Ptn2NhwYGR4SNLRk4Ta28cP/oFBiImNx/j4pEwSUC0lFWTdgyrciAhFQkICllescGw+E65Vcb1QquUbgBjB+p0BGW1hmgq5G2fJfQrQaCMTMCOQbdBOtALm6vfx8UbSvXuS6zsuPk7ETeaqp9fv3cREAa24+HhxUNXUuO8QEhyM+gd1QlFF0pETx47jwLff4vSpU2JXIxlCcVGhgAxVVssKIxNWxfn2L3/9C06dPoP8wkIsWZZhd9hEVGZu/qSku4iKjpIUv/wHoc2A/zw3b4YjOSUJdL1obm2G71Vf0D1kbGwUTU2NOHPmtEYQcvCQsIEz935hcTFuRd6Gf0Ag0jMycdU/ALduRyEuLgE+Pn4YGh7Rkh6aquXPOJh/3RIbtQFZdAdWzblbc4zljD2Jn8nJSrsvKd9OHD+Oi64XUFZagpnpKW0Wct0qWV+Z4rq6ugrHjh2VvPxt7R3IzSvAwUOH0djULMlCNR9RBxob64XNLC09HRbLKjZJCLyxqfeDN5+xfOdApgz7xlIBGVVKlfqDyMsYStKz0b2CpB8k9SCTEddnZ2fBHPVPnjwB/Va6Hz4UxqLMzEzk5eaiva0Nc7Oz4hDb+/gxKsrKkZOVLTOIzS3N4s8yPDwk1HHjk5NYFeKTdYxPjKO0rBRFRUXiw7K0TH+vNTg2bJicnkBPzyNZGI7F2Rt+TP7zdHS04cmTHoyNj2JiclxcNQhijEBYXFxAXd0DZOdkg89XXlGBkbFRDI+MoOvhQ7S2taN/YBDtHZ3o7n6ER48eo62tHYtLyyKhmqrlrxtM9lb9fr42MTqk0rb8pLcXZeVlSM9IR0ZGuggIQ4MD4m7BZ6ebBB1hGXZEmzLBbHRkFHNz8zJzX1paJu5TFCTIQ7G9vSX+mY96HknIE4UfiYaRJAdv/97vVCIzAphxXYEZ9zF0iIs6biTyoC2Ljadis1jy+NLysjifEuymp6exYlnRc/yTZckm8Zp0xqMdjACogs15rZVV0sNr+Y/YaPznmJ4hAcKCABXBisGxDMfgFDLBSUI1mPVidUUW2gToJ7Oyqi2WlWU51+awwbHpkGN0nuXs6MzsrCaZCpmJVe5PrgA+hyyiYjM/2a4384fWmc3nefsB9dG1nW1dxsrE5IRoIBxjdH7V1MDdPIMcz2QSI6CpFD/UhEi+w/FLDBDPfqaVt2rkORyfxIJ30WbvBcgUaBGYFJCxpCjLB1AhDZpBcDf2kMfVS7IOKc8YdkRkZygSc/UztlJx6Mk6r0c+PYYgMbreat1hPmekPRMc8h+E6i1LAtnqGhuUwena9DN1eQatE8gIcpxuVl7JrMd1yYZh58QFnQI5K6k5BpJkZIfcREhHSDyiZQvg7CUdZDe2tjUSFD1GU72jWZoA8iH2ARKHbG5typiRsWqwbaqxrSQzOW7XEqVy7HE87IAVx6IOXip1/M4xwzXfpg3eK5DxpY0PrsCMD672KzATfV3sVPRb0RmJdCYh/htwoTTmvCiiDzaUeCvbbJqEROTXcyHxfry+AKVky9h18mPALOPMuBDM6IlMJicJpKUBUv5NLFhnah9d/aQkt5MdhKmF9LREkoNcZ27SnGC1NNuKS1LFW77NhzPPMUFvv/sAx6RaOHYpQRmFC95f7VdCys64MgSQq2uwvvNxnm/c73z9133H9wpk6mXVg6uHVC/K8mX7VAMQuBSQ7QVmkpeMAGjIyKpsZGqf3E+fFZFMG/pMiUhnOmgJoOlZADT1UwMuScLIXGo2SncEYE5uME3JqjbrQ6lOl8roECu+czqbk6zTAdGqzxjpxlb1zmZpgtOH1geMY5Ogw8V5nIoJZ2VFjhmfn/U4btU1jMe4/rL9zvVeZ/u9A5kRgdUDqhdSjeS8reqxdAYyI6ipddajNEZVUtnHKB0RyJT+zntQVycAEYx2AImSmJ7YUZU8JsGspIdT1HUEMmdpTuqta8S/KmBcj7FUIKZKJY2Zxn4TvIz9+0NfV2NUPSfHEQUULmpsq2OqVONZbbNU+1ga97/t+gcNZOpljS8nkpmuWirgci5ZX6XRNQKZpuppVFS8tvKbUUB8irVNAAAgAElEQVQmpS6FKRDbKfVgVgloJfDpoLazrYMh702QojSm8uQr8DKWJpCZAGbs17+UdecxKeNIl9R+DMhYl++prqHKd/Hu7xXIjGhu1IXVC6nS+GLcp7a57gxae22z/suATCQ1pfvrNi8jkBG4lNHfWHL/c/VUlL7Tfi1qn5MUulr5ktIEMhPIVL/+pZXO45TbHNs/BmTqPdX5qlT7f0q5N5CJwXsNTFMtWWJlZo+ze5r4qB76VSXrOteXbQ58ggDVMtuuqqheiqXxhYyqoNq/F3gZ9/H65KvkQkAj0YgsdD41zISyngY8vKc2Y0mwIoBx5lIte6mQRlB7bl0AbtdrWgDruZTCWl42RjmYaqUJZqpP/5JKNVbVM6ttlsqWrY6xVMfVPrWtSrX/p5TPARntRQp8VK59VSpAexV4qWMKxPYqd9U5bUaQGV7pTkG3iq1Npr3R3THIcqRASLdvcVsaS5+qpb+YEcBUPn8NyDTWcIKZBmSa3xbDMewEESEDfh7INDDjjKgGaqoU9XEP6e05AFMAzWeU59OCwiUsSw8Qf3HdHMg/pfOa5344/Yfj8k2+x7sEMd73eSDTDXYEJJWGR5UinRl0YQVazqUzeBEAFQjKMTqfWumoSqdSCzYczHe/jqWFRYyNjmJocFAcS+l1TwfWhcVFCS8SEKPKqHvpsyF4XQEvAodBXVxbXxNaN8vaikhlBDLNe5hpSOzYWLfDQbcI3damJDM+h/Nkwg6I6dKbqrtX6fwhJfxDhYE4lc51ze0PZ1Ca3+KX9y2eAzJNldR1XWZmYJpqfSGgOYPWXts7QLaq08oZgIy+VgSZ1TULlleYKndFgGx0eAQlRcWSHDEgwB+pqffR2d0lHsUtra1gtkkyLSn3CXUPdjiF7PKPIC4RNpCX0kKwXF8VViaeJ6BiZZ5/Bzb1hexLKmBWdV4lGhtLdcwsf3kd3Pxmv45vtu9ApkCHJdXKVTqYWldgXV+VPGDtrW2IvBmJSxfdJTkis73G3IlCUUkh2trbcD0oCEVFxZiemcUmyUW2tsTLePvpNp49Y9S9lutIJC3HhkTib25vwb7pgJXpgta0XOEkViBByd++/wFbjk1s2BgBoCV6NHZ2I4CpdeNxc/3XMTDM7/zL+s77BmSUvna93cnWvSbSEYGMZLhUKycnxxFzOwpBAUG4fy8F3d1daOtoRWdXO7q6O4Sx6PLly8jOzsHs7By2nz7FxOQkGBheXVONltaWnUwVBKW5uTm0d7QLO0tHdxdmF+YkuwUj9bs62vGgpkYITJYWlrFh38Smg7GaGlWcAq29SrNT/7I6tfm9fn3f670AmaT3MQAZmbtJ6lFRXgr3i+6Ij03A+Oi4Rqf2dBOOTRvmFmbQ2FSPK55XkJ+Xj+mpacmKwSwTtyJvITg4CBE3IlCQX4DJCQaMT6OmpkY7FhKC9MwM9Op5k2pqqnA3IV4kvqhbkWhqaMb83CK2Np+K7Wwv8DLuMwfGr29gmN/8l/XN9xXILCKVrYqxnmBG2xUlMpvdirHRIYSHBMPd1R0VZZUCYoyz5Mzpuo1G/lk0NzfAy/MKCvLz0dfbh7LSMjBrpa+fDyJuhsPH1xvHjh0HU4VUVFSCqbBdzrsI+1JmVqbQydXXP0CA/1UEBlzDjfBwnDh+AoEBQWhtacemCWRvNNNkDu5f1uD+NX2vfQMygpgRyJiPiNsEMrvdipHBfvh6ecLrijfqauvx7Nn3kmhQYh/XVzEvElkdrlzxQF5uDqqrqkAikrDQMLS3t2N5eUmyWF644IqEuETcTbiLSx6X4OZ2UQCMgd4kGPX0vIyvvvgcl9zdhOno+PETOHTwCLKycmFZIY27qVr+mjq8+a4fJxjvL5CtrcCytmpYNCAjLdT4yBCCrwfg0sVLqCyvwvfP/oatraeSWmdz04Gl5QU0NdXDy+sysrLSkZOdJZlg76ekCOX69z88k6SGvj5+iIqMFjsac+h7el5BeGgISkuK8KC2Gt9+87Us3t7eiI6OgS/BMCwCdfWNWF1dM21kuk+eOcA/zgH+a/mu7xnINNWSQDY3PYmMtPs4f84FiQlJmJqcwbPt77WZRNs6Zuem0dDwAFc8LyEzKw3Z2Zk4duQoYmPuoH+gD/YNm2R89fH2RUzUHdQ9qJe8/Wlpqbhw/hyu+nkjIT4W3313AGfPnkVsbByqqmtQUFCEuoZGjI6NS4ZW09hvDuBfy2D/mN9z34CM7hZUJ2UR+xhtZNrsJYHMumpB7+MeXLl8Be7uHkhNzRB2odHRMQwNDeHx4x7UPqiGx2V35OXngAZ7H29vXLx4EaWlJQJmtQ9q4e52Can309DZ0SXnkc3l5o1weHl6ICgoEH5+vvD08kRhURFm5+cxNMI01KMg6Shf3mjUf9n6x9wBzHczgfxj6APvHMjoJGv0HaORX5u11EIY6IZBb3nGMTIEqL29A8HBIThw4CBczl/AqdOnhcmoqLhI8vQHhwQJYxFz5Lc0twjwkYLt2IljOH/hPKKjotHT81iOBQUH4eTJEzh16iSiom6jra1V6N7JunTkyFGcOHUKLufPg6QHg0NDcJhAZhr7TdX6o+gD+wJke3n8Gz3wGd5D6Ye+X4uLSwJmOTm5uH8/FfeSk1FZVYW+vj4wTzh9xoaGh4RyfW52Do0NjcjKzkLK/RTk5uWi51EPlhaXMDY6hvKKcty7l4S8vFx0dnZiYWFB8iSRqi07OxupqanIzsmRY/Q5M2ajfZk0xv0fwz+W+Q6m5PUx94H3CmQEOGNjStiQjS4XVswvLAgvJNmHhMBjlbOb9ucStrH+6soqZmZmBOTItkRSA4IN93N7bHxMSmat5PlMk82kb/Pz8xo5yMyMECQQWF8FXuqY8XnNdRMMzD7wYfaB9wpkBBRjR5D4SAZqk0Bkc1MWpe4RhLa3t8Ec/EJoIPn5NVeJzc1NOcbjSmJiyXo//PCDkJRwnfciePIleR3W57kkHlHnGZ/HXP8wO6n5Xczv8mN94L0CGUFFgZcqyWREUOE2F8luoa/z4blPpdLltlJbue6sGnIfgWovkOI+LuoZ1P14jrmYbWD2gV92H3hvQEYAcZbI2HkU6ChgETAzAB7rGPepde4nkBk7II+p66lrK+Da6zpqH8/7scV4H3P9l93pze/38X2/9wpkBBV2IiPY7NWpCCqqnqqrgMa5vtpvLNW5LNU9nc/jtvGcvdb3Osfc9/ENAvOb/vK/6XsFMgUWRhAxSkyqQxnrqbqsZ6zLOsZ96hyW6hzjPrXfeA91Ped6xm1V3yx/+Z3d/IYf7zd8r0BG4OBs4vLyMpaWlmTh+l6LOq7Kveq8ap86T5Uvq2uxWGAuZhuYfeCX3Qc4uTc5OYnq6mr8H5KWWrGhrFlfSHetJKDXKZ93iqWH/woWFxcxOzeLmdkZcaGgGwUXuk0YF7XfuTTW+bH1n3LuXtd2vp65/fw3NNvDbI+fsw/QBLUDZAp8BKiEQYksSoblNXL281x1nefK1RUwD//C4gIWFua1cnFBwI0ApyQnrr9qUfVeVb7sfOdzXlZvr/10rjUXsw0+5D6wX/1WXfd13l3VZfmq+sZ672KdE387QPZcVtfXBC1n6cwZvJiWhwvzjBkXYSDaoWP78HV3o93MXP/xWV6zjd5/G+1lA3T+DqqOcf9e+9RxdUyVav9epapjLF+3nvGct1l/zkZGIFN5xAhIztKVM2jttb0DZDqAvRLIdAo1hiy9zcO/z3P2+iDmvvc/WM02f3mbczxQxTIuzmNEeQFwv2pLVUcde9X5e93DWN95XV3bWDrXeRfbrwSyHVB6A4LenXNeAWTP8UEapDK+kPGFzfUPX1I1v9GH9Y2cQcH4ffYaXwQz1qFq5uyXqc5VgKfqcr+6jzpPXZvb6pg631iqesZ972L9tYBMMrsayHv3ksTUvh8DsudAzEki26+XfBcNZV7jwxqw5vd48XsooHEGErXfuc3UeLPZbZLQVM6za8IEz9Ey1exKbtynFl6L9ckDq7hgVTIIdd297iv3MAgs6no/tfxRIFOqpgIzBVgvK18LyNYZqqQvBrVSNQAbaa9GcP4Q5vaLndlsk19vmygwYB9QgKH2sTSOL2M/MdZVIYMc3zQ18TwCGkueY7wetwXEbGxzHrcK2baQVxvCDPe6l9pnvN5PWX/O/cLZRkZQeldApmxl6zYruBDI1m3rUPaxlzWyemGz/PUOUPPbv963NwIB20ypitzP8cXECdxvrKcEEoYP0tdSAyYbrAQyi2XHA0FJZ+p8nscxbLPxPpTitDHNbZncW13duY9xbBvXjddSz+FcGp/1VevvFcg4a7kjibER7LuGSTb6TmYKXbzli5qL2QZmH3i9PiAgYJCeFFCosSXjy+F4DuAIDqp9FYgIYNCNaoUS2ZoIGyJw2Na1zDF2286+zc0NbEg2GQLkGritAduuVkWQ4UIQ47NwUYD2KnAyPpt6xpeV7021VBKZAjIRQ+02DAwMoLy8HCkpKbh//z4qqyoxOjq686LGB5f8ZesvnxAQkdagqhrPNddfbzCY7fTLbCf2fWpQogYaxgDBgOPpwYMHSE9LR1JSEvJy8yS5KI85A8vO9xfVkOQ8BB+bCB28h7Kn8TxKceMT4ygrL8P9+ylITr6HzMwMYTdbXlraAUjjPQTM9Iw3O/dykhKN4Gas86r19w5kwlu5zjjJVUxMTSAtPQ3BwcFgOmofXx/ExcXh4cOHLwCZAjFVOr+UAjFVOh83t3+ZA9T8bq/33YxAJvYqppK32QTESHAdGBCIq35X4XnFE6GhoSgqKhIgoqREsFqn+qnbvBxMSErJyWbDhmNjR5oiSHJhPj+qnuTWSMvIQGDQdRm7V69dhY+PNx7U1mJ6akquqb4fn0UWNbFAcNQ1Lu5nPSOAcV2d+zrl/gEZZzmFoHdFjIa0vymHWCL84uI8yspLcPr0KYSFh0lK647ODjQ0NEjj8+EZl0nvYGZ3ZUrslRWqpty/CotlRXKXsTEoAlssy1hZscg9GEEwvzAv59GbX7LIrnN2ZVekfZ3GMeu83iAy2+nnbycCmdF0s07QWVtFdlY2Ll3ywCV3D7Q2t6Krs0vSxbe0tEgEjfzx64Z9ASomP6Wkpqeit9sdkn15WbeXcYxtbjgwNTmJnOwcfPX1t7h1Owp1DQ141NODsrJSdHS0Y3JiQsBO9Q2CFSUzgizH59LiIizLywJe3K/ATNVXpYCfAsFXlO8cyKhn78xcGpmUhFFJ07k3NuyYn5tBRnoqDh8+hLj4OAEsPgxfgC9GAKurq4O/vz9cL15EcEgIKquqMTw6hpLycpRXVmJufl7+OVqamlBaXIS2lmbhuszNzcHVq35C2BsfF4/hoWFQkiNHAMGM9zAlt59/8KnOapY//Vuo/rxmpXq5gqWlefT0dOPKFU+Ehd5AV9cjkaw4Btat6xJ6SMCisEFzD8mArGuraGpqFPWwtrZGpLG21g7kZOWhurpWUsQTiBw2K+qqq+HpcQWhYTfR/aQPq0yOarNL6OEyhQoKLquaUz3HHsc2wxPr6h4g6Pp1eF65grjYWAwMDsCqj3kKJVy4zeVN+sW+AJkRzIRhXAc0AhwbzWG3YcWyiM72Vnh7eQqpbnJyMrq7uyWaYHNrU4LIGclOnT7ixg34XbsG36vX0NDUjKg7d3A7Jkb+AVaWl5Fy7x6ibt1CSVEhcnKycDsqErdu3UTkrVtwveCK/PwCjI+Oa2IyP6QByNgB3qTBzLpv1sHM9no/7cV+vEopbH0VNjs5MGZQkJ+Ds+dckJR0H6urNmxvbmNrYwtbG5vYoPGdYKGPxy3daN/V1YnIyFu4FXkLra1tiLwVjbg7iairaxQ2NNGmKIQkJ+PEkWMoLq7EzKIF9u1nWLdvwEbpSk0GrGkE2BQeqIp2dnbA29sL168HIjoqCgUFBRgYHMS6Lq05A9mbgNm+AZkCMzKNL6+tyKKAjDRwNusqVpYXUVRYgIDAAOGrDAkJEaMko+gpkVH85cvGxcfD/ZIHPvviS5SWVyD6TixCw8NRUFgopLwRYWEIDwlBfm42Tp48Dje3iwJksbGx+PKLLxERcQOdnV3Y2NgUqUyAbA8/NnPQvZ9BZ7bzu29nqoUrNPav04a1jrnZSdxLSsDZsy7IyMzF1tYPsK87YLfa4KCJZX1dtJfurk401tehtaUZIyNDmJycAEmuvby84O3tAzdXD2Rl5mF4eAxW4cWwY2J0GHHRUTh84CBa2x5iadUO2+ZTrFptAkp0q+IkQEd7O+of1AlV40B/P6qrq4QwOzAwAEWFheh98gSzc3MCfqJeOklkHxiQrWBp1SKL5mC3JnyW9nUrNjfYoFZ0dfJfIBJffvklLly4IDmFSNdGIIuIiICrmxu++PIr/Pvv/xOl5ZUoKilFbFycGC3z8vIQHhaGxPg4FObn4v/9X3+HP3/yJ+G2dHFxwV//8leEh0eYQPaGoroJNu8ebPazTZVEZrVxJtKKuZkJpKel4MzZc7ifnoWNzWdw2DZgp5on6qUVI8PDiAgPw8kTx+F6wUVMPbSrPep5BF9fX/z3//4/4HbxMrq7H2NzixKXHTaHDRNjI0i8E4Pjh4+ipbkLllUbNnSJTJ5jbRUNjQ2gYHL86DFcvuSBkuJitDQ3wdfHGy7nzuJuYqIAGcFKOeF+4BLZCixr2kKJjGhN8LJaV2FbX8PTpxqzEXOA1dTU4NixY7hx4wbS09Nx8uRJ3Lx5E/kFBYiNT8DBI8dQXlmN9o4OpKWm4uSpk2LIvHnrFgoK8lGUn4vf/fYfEBYWLOjf1t6GhvoGDAwMYnlxGQ7Hxq6NzJTITJX6YwJ3etfT/9JOG7MViwszqCgrwfETJxEZdQfzC8v42w9/ww/Pvsez7aeiWi4uLaKzox21NdVoaKjDQH+v+IH19j4R2/T//J//F7y8/PD4SR82t59ile1lW8fS4jyy0tJw8uhx5GQXYH5+ET/87W949v33O6TXk1OT4uJRW1MrkwvDQ0NYmJ/H4EA/Uu+n4OJFV3h7e6OtvV3saZxc+GCBTKmXyvjPbXlY2zoWaYx8/BDNzU3CBv7kyRNRI48cOSJM4/Hx8fjiiy9w7949lJWVI/zGLfzhj5+goLgU5L4sLi7EN998jc8+/wKJd5PQ8+gR2lub8M2XnyHA3w+lpSV40vtkB8g468kZmB1jvwlkJpB9TEBGtUz397Lb6V2/jOGhQQRdD8LlK164m5SMwaEhjAyPCPl1f38/FhcWZLZ/UfICzmN11YKpqQlkZWbAz9cXHh6X4erqjuycPIyOTcDu2NCM8NY1tDY3IyggEOfOuCAvNx+9vX0YHR1DV1c3+gcGMD09jSVmgl7UMkETxEZGhmW811RXgeqlx2UPFJeUgDOiH7RqSeDSwGxNXCAUmS7F0/nFWdQ11CIq+jaiY6JB4AoMDMTVq1eRn5+P0tJSuLq6ikQWFxcPv2sB+PbgEZHI6FrR2tostrAjx46jrLxSPsrU+Chu3wrHVT8f3LgRgbS0NCTfS5bGXZxfhM1G3xh91tIEMhPIPjIgo1Qjko0h9rGmugahIaGiudDWnHj3LtIzMsQWTYlsa3MTmqGfHvfraG1pwu3bkWKMr2+gehiKO7HxaG5pg8NBqkXNx2xmagqV5eUymeZ/zR8xMXeQknIf9+4lo7WlFbMzs2KT3uTEwsaGpJN/9PAh7t5NRGJiAkJCgsWOTRXUopNpf9ASmQIzghinfekX4nDYsWRZRFtnK8IiwgSZ3d3dcenSJVTSrWJuDtMz08jKyoKnlyf8/QNwO/oOUlIz8PBxrzCTT0yMIy8vF8nJ9zEwOCSisnXVguGhPtxNjJeZ0Esel3Dzxk087H6IpaVlrK9TfNXDK0wgM4HsIwUyMd/YtdhKOpY2NjSKlnPB1RWuF11xKzISdfX14txKtwuaetbXGVu5hKqqCnG/aG5qEuJs1svJzRNvgXWbXcCJwgABk977NOAHBwfhoqsrPDw8EHkrUsabZZlSlkP8PslVS5/Qnp4e3Lp5E+5uFxEWGoKKinJxyeBx2g8/WCBTKiVLApry3KVBcWXVgmWLlvqaDq+a0+ui+KApJziGQHD2kk6tlpVVLK9wetkuti56HNMPhmi+Jh9CmwndsNNHhvwAC+IUu7y0jNVV3pvGWxPI9tPgbF77558g2AGDNStWLCsCEJzRpBMq7dBz83OY18eUmnyTsEHmD1xZxvLSojiWE6gcG5oqSReqFY5f2rEcDo1EWzfS89ylpUXMzc0KHwfH8erKqow1jre1NQasc1LPJpEEVGfpDKvFcWohT3S/0Gznz/uR/aRZS74cFwVCalvtUxLWj5XqfCn167FBCWYEstU13dNf38dBQD1ZhSYoMOMsCF+IjWhdt2PdxqBXzdbFxqGB02pnB7KCM6EbdoZVUEzWQiLoAMiGZKOKRKgkMkNCxzcZgLzny5Y3uY5Z9+cf9B/bN1CCAvs5F9GCdAM9x9Hu+NulVuQ+jkcudIgV51g7ncc51nbdKTgG1/RxyP3KHqeyX7CUdY49HbjUM6jxwvYm0PLa9GNTs5UKsHZAWPw838wp9jk/MhVSJAHeKiusIcxISVZvDGJ6tlhpLF2lU42nrqkATElufGnuk3tJTiSrNCTFWwVM/FD8QBJbJrmQGC/GfwAN2KThZDaEsVy7QCbXfgtHWPVBXlXy2uZitsHP0QcUkEmpm3JkDFm1aBvncauOqbFI51iRzvSxsXNcj7EU0KMaqIBsZ5wZxqDEUGpjTcYnx6ghIaMmmOyqktpY1PoLgext2+0FIBMQM8RFqu3XlchekMR0EON1jEAmDaY3EF/U+QUokT23j9v8l9D/KRSY7DaMDmI7wLbbKKwrDbbHfZ67xysaUt1PxGQdTPdc1+/1utc16+1+J7Mt3k1bCACJOUWTwpQk9hygGMFFARjVx7W154K95Vr6OBWhQxcq+K2ofiohgqWMRV34WJVQRQKoJv0RRLXztcBz9Swv++ZKI3vZce5XdVi+HMgYJ7WqBX4rMFPSkzOyG7d3gMwAYOr8NwGyvV5ARFARd1/84ERzNiyXn4Lse91XQOxV4OV8zASz5/+EXvEHsVd7m/te7N+v0ybGgU0zjVqM+1+2LjYxQ9YLVY+2KwKUJo3t2rn5PGqsqZL7NOBjfW0xAqEAqkHFfdU7qfu/bvmzA5lRlDW+GBvAuP0660rHfp26b1LHBLK3G1hv0sZm3Z/exsZBL35ZulajpJ9Xlar9XyUEENB26lFg0AUHI5DxuNi09VLb1qU1pbIarqOu51wa3+V11n9+INvD6O7c4M4vuR/bqrH2urYJZD99kO3Vrua+d9uuqg8bS9XGHFPUnJzH1qu21bnG0nhtrhPEBMh0YHM+btw2XufH1tV5r6qn6rD8IIDM+WGdG9f5+H5sGxvF+fomkL3bAefcvub2u21fNX5EKtNn79nG3M/S2Ne5bmx/de7L6rK+UWU1rhuPqf2qfNU9jfd/03V13fcPZCQe0clHaDNTDctS2dpUY77pS71ufeP12dDqGdgoe13DBLJ3O9D2amNz309vYwU+9L+0WCya6uegGwVDluhasTuD+LrtrYBClRyjdL2QzLJ6QkR17E3K173/69Z7r0BGoz9tYmqmg+tsFPqTKJ8S1UCv+wLvoh5JGRQxA6/HD2K8rglkP32QGdvTXN+/9uSA5iLjSB9XXFepq+lELoZ7w2yiEiCMpQJFgqA6l+Pi6dOnwsa0tbklY4Y2NTUrqsbO6wDau+4D7xXIVCpqI5gNjwzjQd0DZOdkIzMzU2LAxsfHXwCTt31xZXjc63w2OD8Y0wU1tzRjeHj4ObFZneMMZBIh4DxTadw2Zy2f+yNQ7WiW+wdgbFv2Z4YC9fX1obyiHJlZmcjIyEBtbS0mxsexucHsL7shegqAjJKaWpdvpTu50sGcYMawIwaHV1RUIjs7B0yhVVNTjcmJcc21SjfiKyDb63vzGLUglnsdf9t97w3ILKsWibQXqYxxXWsrEk9JAGMa6yueV3D58mVERUWhq6vrjV9UzVi+OOvCBlOL1pFUXf47MaTimv81+Pr5orCwUO4rXssGN443AjLd8/9tP4h53v4O9o+1fZUPF8cOM8YwMeKVK1fAGObo6Gi0tbYKkO1KV1pKHgU6e5daHCaBjCFO3d0PERMTC7+r/rh82RPeXt6IvHUTj3seYXXFomtbuza4l7W10rrUPV9W7zlQ/REXnv0DMp18RPmQsVQSmV2yX8yjpKwEp8+eQVh4OBoaGyU3UU1tjbCzCCBRp6cIrOf+Vi+myp0GoBFTX3geJT7tvhpZiXJc1YJdteyYjABYZBaNtlb8+dM/49//4z9w/XoQ5ucXdtRfXke7v5a9Q5PEtEBYJZWpcAwBOxPE3um/7M73/ZFO/Gusp8J6lJmG/Z1xlGRIOnXqFIKCgvDo0SM0NzcL90VnR4fEN0rkix4FI+fKuCFgae4U4jPG9qbkJLRtJCJZx8PuboSGhuHAd4eRnJKG1tYONDc1Sx7Avt7HWFpckDFIcFJ2Z+M4VessWWfnm0l0gBa6pAQMY121vlPfqS8oMHznQEY9e8cpVoU5GUqCg2PDjtn5GaRnpuHw0SOSypofgQ/Fc/nQ83NzaKxvQGhICLy9vHDr5i3U1j7A8PAIKiorUVVdJUGwBJKOtnZUllfIvw4DWPPz8xAYFCBSVnJyCkZHx2G3bWDTsaWlumYucfs6hoYGEBYRiitenpIS2D/gOlpaWnUgtIBpgBPjE+Dl5Y3Y2Hi0tXfAzlQm6w7YrHbYGcCuZwLgx1ZT0S9rdHO/KW29aR9QphEFXLItRB9UEbU/bbttDUsLcwIqVy5fxp07dzA2NiZGfo5HMogzUwVjKRmGpMUkr2NtxYLC/HwUFxWjt7dXHF8LiotQVFqKx7192Np+KokWp6cnkZWZidNnziEnp0Byk62uWjN6k6UAACAASURBVCWjDI8tLS1ILjOOXY5hggqp4pjJhpy1nHig2YbrObk5Elw+NDyMhqYmPKivfy6Nj50qsr5QOCGQvU6b7QuQvQzMuJ+IT4mMaXyaW5vgceUyvLy9JUdSz+PHcpy6/MzUNKoqK5EQH4+wkFDh5AsM1ICGaa7JvMTGp95+PzkFUZG3UVZSIhwAkZE3BaAibkTgops7iopKMTU5g6dbzzQmJfqurVnQ0dEKjyuXkJ6ZgYS7SYiMjEZ6eoZIjgMDfUhNScYlN3dE3ohERkYWOjq7JXCdQCb5zwXIbGDjywfgv4v+D/M6jW/WMYHtx/rAnkDGxAc6mDH9jn19FZPjIwjwvwYfb2/J5be1pRnjOcDFLqYHh1Mi29qwY3vTAdvaKvKysxF9+zZS798X7cQvwB/JqWno7R+EY2sL28+20fWwE+ER4Th+/CT6B0ZgtTrg2NgC456t6ww5oralMSdRbdze2kL3w27JMXj9+nUBVdrpmD771OnTeNLbi+raWiQmJSG3oECAjOcRwHbGki55/exARtByBjQFZAzqJtvLwtI8snKy4O3jA5cLF0TFbGpulnxklMiYE6m4qAhJiXdx5fIVfPnl10IJF3PnDghSNGgyjTUTx4UGh6AgLw/nzpyGxyV33LkTg+SUFHz51TeIiLiFh9092N56KpH5Gw4bpqfGUVSUjzPnTqOqtgYVVdWIuRMLX18/IU4gGUN4aCiOHT6C0qISdHU9xNj4JNasDIFi9g2HSGMO0sypf5A9nHt/rKOax00we1UfcAYymjSsTI+jq38EMtv6CoYH+3Du7BlcDwxEY2Mjtre3RZIR1WzdKvbp0dER0TI62lvR+/gR5men0dHWipjbt3HJ3R1X/f3h4emFkvJKzC0swb6xgafPtlFbVyPazZmzLlhcXIXdzmuTutGGVesqli2LGBzql+yvLc3NGBocBEsKG6dOn5LJtNTUVDD78x//9CdU19QgKTkZwWFhKK2ogGVtTSMBZmYMJRQoFfLnlsicQYxipwCZEhc5rbvhkKBSgldwSDD+9MmfhE2JfJYUhbs7OxERFo5zZ8/h07/8Ff/2H79HRVWVsCQTqCIiwlFSUirkIokJCSguLMT//ru/wyd//CNOnz4N14tu+NOfPkVwcDja2zol/Q/tAltbDnR2tSIk9Dr+8tlfkJ6ViZzcXJAp+ZNPPtFsCp2dSIiLx7dffY07t6OFvGRpeUWyZNrtJHHQVUtKZWIb00TiV3VK85gJWm/aB14FZJTKNCBbxchQP1zPuyDA31/6rxHIKJXRWF9aUoxL7m44dPA7+Hh5oq2lSc4vLMjDN19/jf/xf/8dEu+lYnxyBttPv8fG5iY2thwCZJwQc3FxxfLSGjY3nsHh2IbDvgHL6jJm5qaQl5+DM2dO48vPvxAyIGpTVC3Jq3E/9b5M4l10c8PZc+eQdO8ergcHI+zGDTx68kRnZ9IkMiOQ7aiYCtReUe6/aqnnIhO7GVmMdx7Gio0NLScRp4FJH1VRUSGoTT7KnOxsuJw7hxsREcjKJFdlNL49dEjIeds72pGeloqzZ88IAWlk5G0UFRahpLAQ//a734H0cFVV1WhtaUdDQwv6+oYwP7eoBbKurWJjYx1lZYU4efoY/uG3/4jjp07inMs5fPXVl/jtb/8JiYl3MTQ0jMmJSVSUlsHDzV2osQoKi+TfcHtrG0zhu+mg3U0rhVqeuc90B9vd9zQHr9kWb98H9gQyUSup1um8lDYrpifHce2qn2RqZap45e9FQKOP5IrFgv6+XjyorUFZaQnqH9QKG5LDvib8lwe+/Qb/z9//Bpk5BZiZW8TW9jPJELv1dBOPHj8UDejokeMYGRrHxsYWfvjhb3j69Jk4t1tWltDf3yuuGOVlZWhra8PIyIjw1JJgxMfHB4HXA4URLTwiAlc8PeHp7Y2klBTMzM+LdClGeyeJTIDMODGwgx0vtue+AJmAlpq1NBj6lWpJvXpxeQH9g31oa29Ff1+fiKNlJaU4SvKR0FCxjZF8JCExAaVlZbgZeRt//ORTFJSUCIlBSUkh2PhffPEVku6loOdRjzCNH/j6KwRfD0JVRTX6+4bQ2tqJoeExLC4t68ngrJiZGUds7G0cP34EoeFhIo2VlpciKSlR/lXIzlxSUoa+vn4hWYi8eVNEb6bN5kxNQ109uju60NHaLhMSPQ97UPegHk+e0GD6vKuHOYhf7HRmm7xZm3BGUbWZts6Eh1riQ9q8HLZ1LC8toLKyApc9PBAQEKD5jk1MiJF9YGAA9NdcWJiXmfr5uVlhQrKuraC7qx1Rt2/CxeUcLrpdQmBgCOrrmyQjM3lg6YrEtPMF+QW44OKKm+G30NzYIoTXw0PD6OzqxMjoMKZmpjAzM42Z2RmQC4BjnQb/sLAw/OUvfxHGJPLQ0vfs0798ihMnTyInLw9Wu11Tk3XzzAcjke2A2B5Apk2lMmXuGmYXZoR85E5sDBIS4nE/JUWM+mRvyc3JEfWRYiip3hLu3gVnFL85cFDIR+YW5tDc0ghX1/M4cugoKsqrhO5tcnwMtyLCcc3XD1GR0cjLLUBqWia6uh9hfmFRVFnHhg2PH3fjRngwfHw80dvfhyWLBRubGxifHMP91BS4ubkjNjZOPh5ZzAlkBFfOBmVnZyM+Ng75OXnIyshEQlwCykrKZFaTtPJWkpQaOp7qgGb5ZoPXbC+tvZzdena2lQO2uE1QMqM70QKSkpLg6emJa9euiTNsSkqK+Ed2d3dJ0tHNDQe2tjawRWO/zYrMzHSEh4ciNi4WVZVV8LzshfS0DJnp39rallTVzPTa39ePe3fv4dzpc7gRdgMp91KQej8VGZkZwoO5sLSgUdE57DKWOJ4mJydB29hnn3+G0LBQPHz4UKgcP/v8c7hduoTaujpsbG9j1eA69YsAMiWR2RzrWLTMo6W9Cf7+V3He5ZyokefOnkVlRYXw301NTYmx3u2SO7x8fBBx8xYSyYj08JGk4h6bGEVubg4SE+5icGBYVL311VWMDA4gNuYO3C66w/WiOyJu3BIgE8opeig7bPIvlJF+H9nZmZqriNUK+6ZD9H1+8ISERKSmpglgXXBxwYXzLqLqtre14UFtLdLT0lFeWoaigiJZr6utw/3UdDQ2tcBmc5hA9goVwASo1wd0AS0FWCx1P0VjKX6M9N1i+ND2NiYnJiRChkTXZ86cEZtz4t1EPH7yWPzBrKsrsDFM0LqK+flZJKckI68gHwODA7CuriH9fhryc/Px5DE5LrckG/OGfQNcZqdnkRifCA93D5w+eVqId5OTk+VcmocovVk5a6/T0pFvo729HTF3YmRijhRxExMTuBN7B3kFBRgaHYVtY+PDBDKC1cukMgEyMfavCfkI/U9I0c7Gn56clDAKkhJQN2aQK9mUJqamME3ShIUFzC8uYY2zhBsb4uZAEXZxYVFyk/ODOmw2bNGwubgkdFSzs3NYWrbIhIJy8KOx37K8CMvSojjNsvE5A7S6bsWqdQ2WFYu4dKwuW7A0v4DJ8XFMTU4KYQLtDBZy9S3w/GVZeK+VlVUsLllgWVkzgcwEsR018KeC9gtA9hIwU8DG8CSOMZL1UBCgRETgoLq3bFkWIBOHWMkIq+Xpn52fw6JlWRxgN+0OrFlWsMIxY9GdycmTsbYuC+9DYpGF2XlMT0yJDXlmZkbuSbcjghnfWTmpcp2ZpekjSl8ylQlD+C4tyzJbqZH+as64HPcfjETGhnwBzHQ7GVVLNoYWTqHlB6cjKcMmNvXAVuUEp6mhZFnR01tLimu7zHCodNcqoFWID9bXsWG3Y2tjU/MVY4ZMXnOTer5dFonx0skPeD8SIOwAmZVApuUj5346uhIY6dfC59sJ7dAzY2qOsBrRAslQhPOPBKaK6MQc0O9sQP9UQPgln/8CmOlSmXonBWICMvpkmgISVbIux5y4PRlIRvinviYSlDZWOCaebm5pY0jXLBgVo6gcZWJrYxPbeh0KDxyncn3ljWAAMt5fJYSghwIXjkUKIhybO75wNOgLLd3zfmQENvWeP1bui7H/ZWCmgEw1LBtSecOrUsKR+I9BKUkHFpGYdKDhPvGhIUuMACNflgC5vuNlrxpW+PKkkQysLzowEfTsYl+wyWym5BjX7yeNxmtzW7+HdArVIfSPxQ+pQpWoUnJRQCYzSm/wIX7sQ5nHX79Tf2xt9RyY7WF/5XG+s/rzN5bPtQXTVuuMSRwzIkXp7EiisZACjkCjE1mr0D7ayHgPzsxzzJCZTNjJKJToAKZKdT8FokoKEyGCqqcaY/q45H25cPxyEcdyfV1d63XKlwLZjnpozL2v+4IpoHpVSX2biwCTnv9fXsIwuOXB1UtY9Rzg+ospINNo4DQqKuUEyGNGoFCNYCxFsmODiCSnN5ZuS1D3VZIWn0vehaClnkdvTNaVhlRe+zuhSBqbk2YTI6BpC4GMM5fqGV9Vvs4HMuv8egHM+O0FzPYAMWOd11unBKWW3bTUPFeNH3WdnXvq9HJqm3/g2p+4Bp6qvnF8KyBzLlVdVb5sHKvjr1vuK5Ctk5GFYUk6qDm/qJLCVANymy9OhOYLKonKCAYagr/YuRU4yTXUv5P862jXE9R3AjJ1fz6XLPyYvL8CL2NpADLt4+zS0ikQY6m8rgm6r1qMH3DP+xnvba7v/U3Mdnkv7aLGh+qnCpzUtnOpju9VOtd9V9svBzKjJKbW31AiU0C2A2YUK/XOp15SAY+AmQ5kPKbAjPUVqAmwvaLzKkCUc5TOrgBI3ddwvrG+eq6XlnIdHRT5TAps1boe+2YEL6rBXJQtwHjMBLIX/4xe2vaGb2bWef/t5gxkH+I32FcgoyS2A2I6zx4bwQhaojvrUpACN1WqBmNDEsR+DMhUfVXyPLX+Y6XzPV+obwBXAVZdYlQ2O4KVEai4LkBGiZTnkkXdUMcEsvc/IF/4piZAvvb4+NDbbt+BbEetJKgpw7k+8yeqHXMe6QQJCtQUqLBkA6p/BNqxVIOqY2r7bUtem9dSRknn66hnEQnRAERK2lJAZgQxtY/lCp+ZkqbDsQNmBDETyEwgc+5r5vbb94l9A7K9JgKMQEapbEetNACJAisFVKpUYKY+thF8FAipUoHPq0p1HZasp/L2c33nXnpgu5o2VmCmJCsBM/rN6TOpSgpbXrHsqMY8xqlmLjtuIAQ1kfDe/sMZn99cN9vx194H3iuQKZuUKpWxXWYP6btF3y4DeQI/jgIVVRo/2MuAylhnr3XjtXgNPof4iem5xBURCs8VcNRJHASQ6AOzsaE50RpATElZLNUkBaUw1t3Y2tL82HS/ts2tLfGl4b33ej5znwlMZh94sz7w3oCMKaONAEbpjKl6mLeouKQY+Xl5KCwokFxK9EZWg5ygs9dHNYIRj6vt1ykp9cl1dVVXPJkNmTnEic9mk9QnDHwtKy9DfkEB8gsLUV5Rgb6BASwsMcrAMDMp/jF099B81gh6DIvq6x9AUUmJxJhNTk1JpAIz3T6ofYCR0dHn3k2pm+IwrBM57PXu5r436+Rme3387fXegUxJP/QvGx8dRUCAP46fOI7Tp05JChJmuCwpLsbszMxztiuj2mgELtVJCUwKoBSYqWPOpTrOMKjF+QX0PHyE8bFxCWVSHtB2uw1TU5MoKS2RrJbMbMkg9vOurhLEPjA4qKuHmkOtmoggCFIVpdTFpI/3klNw7Phx3E9NFTCrrKrChQuuCAoKRmtrqwHIKJ0pCW3Xz8f52c3tj39Qmt/4zb/xvgOZcqxVEhmBbNNhx4plCQ+7OnH48CG4X3JHYWGBSGdnz5zB1WvX8ICR8eSb3NoEQYWSDiPqCRIENVErxcuYznmaZzA7gEhyQmOlGfAdDnL8beyGLdGjX1+WFhdBUoaQoGCUl1dI6hI7vZftNmxtbmBifAxpaak4duwYUu7fR3FJiTA+HTh4UHgDLCsrYvsyAijvLzmgtrZQXFwCd/dL8PcPwED/gADXjRs3cPC7g5JpYGZ65q2BTEmsZqd/805vttnH12b7CmQKxFSpGfIZlmSFZWkOXV2tOH/hHKJjojAyOiLJ3wKu+YO5+auqa7D99Cn6+vuQmnof168HICwsFE2NjXj08BFaW9tQV1cvfHqW5SV0dXWiqLhY1LWBgX4UFRVK1tmgwGCUl1ZgbGwcDHAtKi6SiP/4+HjcvnULvt5e+P/+6bc4cfI08gqKsbisBa1vbTgwPjYq3ICXPDzQ2NSIiclJFJeW4siRowJSjx4xD1kdWltaQfV0empa8pVVVlSiuaUFPr5++O1vf4eD3x1CXm4emM/s888+x2/+92+QmJAI5okaGx+TZwphuu7QMMnXNDExLiBaXV2N5HvJiI+LlzzszB5AAGM7mkD28Q1GE2Df/pu+VyBjPCNZlGzrq1hanEZXZzPOnjsFv6u+KC0rRUsT8+SHgcxHnV3dkvWCaXJv3ryB4JAgBAYGSMbYjIxMqXPjxk1JFjc0NCgEv0zi1tHZgaysTNy6dRNBwUEICQ5F8PUQlJaWSUqRy5c9hEOTWWjvJiYg8NpV/Ou//AvOubiipKwayytaYzKv/8TYKLKzs0S1ZI5xSmS3o6Nx+fIVAa/GhkYwO21meibmZucw0NePlHvJCLoeJDYwAvIf/vBfcHN1R01VNeJi40Qa+8Pv/4D8vHx5Hr53SGgIwm/cwLVr/pKILj8vF12dHbJOie4mGaRqaiUbCKVJqsYmkL19pzcB4+Nru30HMqbx0JZVrK4xFIi+YCtYXJxCR2cjDh/9Dt9+962Ay1VfX4SFhKChoQHjExNCUnCGhApB1yXvd3RMNA4fOSySza1bkXC76Ib+/n7U1T2QnEfMjEmaOHd3N7h7uONu0l0BvOPHT8g5hUWF+Obbb+Dn5yd5z/p6e1GUn4ezp08jMTEZw6NTsDm29QBZGyYmxgTImBiO5CiXPT1x+swZAaq+3j6RxryueCEmKgZTk1N41P0QNyNu4LzLeTzsfiiMTBfOX8S9u8ly/EFNLQIDAuF63lUYm5l7zd//mhA0ZGRm4dat20Ky4uPjjeqqSiFXJZCR2XlmdvY5ADOB7OMbjCbAvv03fW9ARvVyTQcyJZF1dDbh0OHv8M133+Kciwv++umnCAsOxuOeHoyNjSIsLAT/6ze/wX998gmOHj+Bbw98h0/+9AliY+8gIyMdflf9hHzk7t0kRMfE4F7yPbFp/eE//4Df/fPvcOz4MRw8dBD/9cf/EjbxnJxsnL9wXrLPzs7MioNuV1sb/Lx9UFZWibX1Tdh1INvcsGNqYgxZ2Zn46+efgcQJJBImK/qlSx6i1lKFvB5wHXd0IOt9/ARxMXfgefkyxsfGxO52PTAYtTV1YAaBh13diLsTi0D/QCzMLeBe0j38+c+f4He/+x1OnTqDAwcO4ttvvhUWqAJycwYGigo6Nz+PZ99/L7Y9JY2ZQPb2nd4EjI+v7fYdyJR9jKWW14hqEUlDZ9HR1YJz588i4tZNNDU1C3mI2/nzyM3KRGdHG0JCgvDZF1/gxq1IVNfWoaKyCjW1tRgeHkJ7Wytu3bwphnRyV1LFq6mpRnTUbQEvghxZyysqK6Ts7OpATW01zpw7I2od7VlrK6toqquDj6cXSksrsGbbxNb2DwIYVC3HxoaRmZ0BV7eLch1KRWRvPnv2HBLiE5B0NwnX/QMlkyyv9/hRD2JuR+HypUsYHhxCSVEp/HyvoaiwRBLSdXV0IjoyCn4+fpibmROQOnL4sEiItAnW1tahrr5e1MqGhjohJyZIz83Na35ozG++tgYm0DOB7OMbjCbAvv03fS9AJql8aB+jRMYcZHYrlpbn0N7ZgjMuZxFFZuTxcczNzsLfxwehQdeRkZYqRvnvDh5CVMwdtLV34uGjHnFhmJ2dwdjYCDIz0vH1N9/i0OGj4IAfHhoC7UtkVyJrC90bnjx5ImSh/QN9qG94gGMnjiIrO1tUPQGy+nq4nD2H5ORUTE3PY3Pre0lRwplV3iMjK13Aj7asiYlJMeLT2M/7ZWVkIeR6MLyveKG9pRWFuflwPesiqurgwCCKi0rg7eUr3AErlhV0trUjMuImvD29xaZGvzl3NzeQHZos5j09T/D4yRMMDvSjsbEeAYEBIBkxM91KTig96sA09r99hzfB4uNsu30FMg44gpiKt9QStNFbfh3LlgV0dXfg0pXLiEtIwPjkJJ49fYrstFRc8/ERbrz6hgaxSwUGBeFeyn3k5RcgNy9PJLLFxXk0Njbgq2++ETZxGvPp4kEQCA4OAu1MiYmJKCwoFKq49o42NLY0wMX1nJAxUIKyWW3o6X6ICy7nERwcisamNiEepbsGqeomJ8eRm5eNw0cPISwiHGkZGYiLi8fFi25CN9fe1i6EDMePHENibDxCrwfj0IHv4ObqipHhEVRVVCGIEw3FZVhbXUN3ZxfiYmIREhQiKbp7Hj1CTHS05FZPTUtHdnYuSkpLRdpsbm4UduekpHsCZCoXlBqIpkT2cQ5I9X3N8s2+774DmQIxlirTJP20VtYsGBweQEpaqpDuztMOtL2FkYF+JN+9i9jYWIyMjgm1elBwMI6fOIFz51yQkJCAJ08eS759uilERUcjOydXqNu2trewvb2F1rYWcdX47uB34ioRHR2N5pYmPH7yCAl340VSW5hfEE5Ky+KSkJX4+vgJrdzi0grIHsOGmZ6eQnVNJVzdLuDo8aPi2Erje15ePqampuV9nvQ8hqfHZVw46wKfK17i0pFKvr7pGXR1diM3Ow9dnQ9FyhsZGkZFaTnycvIlJzrbg35soSEhOHHqNI6fOCkzlS3NTRgaHEBRYSFqqmuwvGzZkcgIYGoxO/ubdXazvT7e9tpXIKOEJACmJ1jcDRpnSp4VzC/MCh/ewuKCSFObdC1YWcH8zCxmZmZllnNxeRkM7RkcGkRfX5+QKZBcgSBAb/qJyQlQ1bSQQEF3iOUsKfdzVnJocEhAh+eQWITce8vLyyIh2ZjC17ou3v2TE1OYmp7FmtUmDrSUgFh/dn5GePv6B/rBhWFFFsuKABNT//L8sZFRjAwNYWJsDHMzM8ICxXTBaytrWJxfwtoa8/47NOKGuXnMTs/Busa0w1YsLy8JYA4ODWNgcAgT4xNYJi/g6grIQrO4uASr/q7mQPx4B6L5bX/at91fINPzkakEi5rrBfPr0w1jVaSyVeuK7lum5dzfsJEUhB78G7uB1kJaQEfQVWFq0YKy7RKQreXr3w3pYbyiBH3r+cFVbnECk6ToJViSdEFsdmvYsNmFTIEEIsxRThIRrhMoJebRRgIUqsNapAClITaayltOohIhK7HbhfyEBA6bDBSnempnlAAjCzbFpYP5zjfsDmw6tnbCkRiszvq89w7pqqTTVlEKWugSZyv3o7Mz/lVdVwW+q22WxuPG/eb6bruZbfHzt8W+AZnMUK5ZJbHiXkC2LpRUGi0cAYoDhkDjsDmkVLn2GZpEkgQNfJyAjEwswtFH3zTF0KQ1qtQX51ubgBLjGHl9AhpBjLOolBApORFctDhHgpQOZJIzjNldKT2u7gCZAhSl3vG5JXOGHiZF8gQBTJ2PkOmv7esOsccpINva0PgCBVx1hiZ1fwEPCbHS86HrxA/qvu9y0PDZFVBJ1g49CF4Fr6vjqs67vLd5rZ9/8H9M32BfgEwDMZ0LjzOVYvAnT54CHI31SBsgdMfQBj8HNhfVwAQLBWIKmHhMBrU+wBWRAo+rY1yXhbnAdEDRGGF2r62AgXGaBDKR3PS6PGfnWjrgyn30GE4eU88m6wJeu0ww8h5C0EBauQ1Z7FYCmr4oyjiSOjCFEFMD2RlDqsWRSmypTo8lYKc/D+/1rha2vWKs4TUJXuQY5MKsHtzeqSNt/e7u/a7ewbyO+U1UH9hXILOtrcNmBDKRgrR0Pg6DhKT+8RW4qIdjuQNKhrQ2rLdXXXWe8RwFjkYgM55PIFNgZ5SKnO9tvCbXCbBGkNUkQj2Nt9DMMZid0qW2cIZUgMwArFRfeR8Fotpz0JhPoNyVlgQ03yGI8Z47IKVfV5JCGsDMBDITJNR4+iWU+wJkVN3W16wCYlrOfrpgrIqaSfuYkN4qm5VB+tmrwQg6ZDBW4GMs96r/sn0K0HhcXYPrHNDGY87nOwMYpUqRLAlkuuRH0FHr2jUJRs8Dmai264pCTmdg0oFMAEyXRrXn2QUx9TzqmVWp9r9u6Xzezn30Z3gutxrBTU84Kdyfeju97r3MeiYIvu8+sG9ApmYrd9RKBWRU9yiFGICMQMKBpl5e2Z+4zf0EMmcwU3XfV7kDaArIRELUJhmoCu4FZArMWBLIbE5Axvfm8/+YxKVAyFi+6Xurc9V5CshoJ5RjhiSRTOVN26QmrWol66tzzdJsiw+tD+wLkNGQrjnCUhJb2bGRUToTYzjziOkSiJJG2DBqQCsgU9scaDLLaAA71ZDGuq+7/jbniippAC8Cl1o4q6mAjM/Ad1KzoArEXgZkCszUM+1VKhBiG6h2UPtUudd5xn2qDbnP2E7P1dH/OEQaY4JI5m0z+K3xPGP9111X91P1X3adl+1X55mlCaAv6wPvHMgIYrtAtgtilMxsemrp3X967cNwMDM9DR+GA44dWqWr4bZ6eDWI1fbbdvw3Pe9l0hhnNGVREiNnTu2aewafnyCmltcBMr6r88J3NT4vjzu3g2oP59J4LXWM+3g9kq0QsPi8shDEOJu7QncYq/AnsJ7zoq7D0vkYt43HjXXYHpJCXE+K6VxP1d1rv7nPBLAf6wP7DGS7tjHlgqE5xWq+ZGIvs9MBVSMdYbmzvkGXiF17lhq8ew3OH3vJd3FcwExXK5WdbG19DVyUzUyBgspiq3zN1jnpsYdauZc0pt5PPTPBYQcESJ2ng4VqD1XvVaUCHA1cd/80hP1JBza6ofAPhlLY1sYmtrfo67bLQfCq67/q2M69HXbJ8Kuen+9Jc4E6tO/qvwAAIABJREFUV9VT22Zpgteb9IF3DmQcYEoi2wEv5dmvl3SGXVuzYGlpHh0d7ZJDrKysDOXl5WhrawMzocrg1f+9NRDRJDM10J3LN3npt6m7F5ApQFNqJaMJ+PwVFRUoKy1DU2OTxFxyxtKmZi8ppelq9UufQ5dcCYyUYugAzAy6Q8NDmJnV0mO/DZARYJeWlzA2Noa+/n4hUGGyS6rNAmI2Gxbn5tD7+DHqHjxAaVkZGpubMTKmkaQYwYbt/9Lnd7Kn8Tx2NEqBzNL78NFDyfzLCAxeQ/4A9pDmjNdX92Zp3G+um4DHPrAvQCaDbHVNZi3pfqEWApuNTqq2NVhWFjE8Mgj/gGs4euwojh47hnPnzsHP11eAgOE5HHhKulEdmQ8t/+bKXiRZZ63i3CruDJyF4yDTF7oRcDEe21EVaeeiB7+TSrdb98Vj6lxt8mEN1nW+zzomJyclHTUTJ/I9Tp44Cf9r/igtKRW3CwKZtmhAxvdQBnfNkM4Bqgap7lunSzGLS0soKCyQLLgdHR27A9nw7D82oNl+bMuRkRHwTyMxKUkYnSiVCTisrWF5YQH1tbWIioyEm+tFIVthwH7NgwfShurPRX0DOi2LlCcTA5TodkHaKG3y+gQxdraenh6kpaVJRmCGgAmI6iTNe72D+u7q3nI/g8q71znmvl8fuL1zIJNUPeLRT69+OsWy3F34z7+xYcPyygI6ulpx5NgRIR/Jzc1FfV0dSD5yPTBQaOFIPrK1tSXhPqRXk9AleuHrnv6UhAgiYnMTD3nNsZXqkRiqxS6jkeNSzeMg2N2vDUK13zhQtHrKOXWXrETq6hyXyuViXVTLVWRkZMDN/ZKQjTBrB/Ptl5aUoK72gcRyMl7yeSDTJguoXhPIrAJimkOwncTAVLk3HELAMjs3JxlwI29Hoq6uThxot7e2Nf8zHfwUwBoHsQaQms8b35vZRXp7e5F4965kFRkeHRXnV7afZXER7c3NuOrtjYBr10SirKquRmFJCTq7uwXItD+WDVmnlMjvoy3MFqKFZe1McuyA8u6g4h8GJTItZnVEYln5LR1sU878ipSnAbr8+eiOxvLNdHYq9cemAM34vub6blv/2trinQKZAjHl2W/cln26h7jDsQ6LZR5tHc0463IWt6OiMDwyAgZ2B1y9KkDGrA8kH2HQd25OruStZ/JE5smfnZuVuMuRkWHJCBseHgZmuKiqqpZg8NHhYZQxv35kJCJu3MT9tDR0dz8UcpDKykq0tLZqqaPX19Hf1y+gw5TZo2OjQgRyO/I2YmLuyGCenJoUVbe+vl5SV99LTgYHOAPVmUV2ZXkeHe3N8PH1RVBIGOrqm7C0vAJmdWWAOlMBkQyluqoaqalpsjTU10sGD2asDQ8LQ0REBIqKSzA5PS2zvb2Pe5CcdFcSR2ZmZaG1rQ0JCfHw8/NFcFCQJGSMjo5BZ2cXmOeMANHT8wgpKcmS+oc5zPiOluVlkJjlYXcXkhITcedOjGTX8PLxgZePL4ZHxyS+k7Geq8tLeFBVCddz5yRLLwPhGVw/NTuL+cVFSVe+sDAPtt+d2FjcjIxEXkGBBPRTeu7s7MCdmBiEhYZJ6iS2K1XY1LRUSTOempqKJ4+foOdxD+rq60S9JIgtLi2iqrICsXdiEBoagttR0WhqbpVkksyIUlVVCaYoT7qXhJiYGPnDmJqaes708GsbtOb7vgjY+wZkziAmQCa2IQZgM+sDEys24/S507jq7y/gwJQ24SEhMuioQs3NzSE9IwM3bt5EQEAgfH39hGmoTRImPkZ6Rhq8vT1x9aofbt++LQOI2SPycnIQERqKwIAAkKDE29cX91JSJMc+GYkokTCBIcEmKytbsr2WV5SjsrJCcplxMF69ek0ApqSkGF3dXfIMbu7uCAsLR2l5uYDU1qYdC7MTyEi9J1yVySlpWLHasP30e41hfNMBy8oS2jtace3aNSEtiY6KEcmzvb0N6WmpCLoeCB9fH3j7+qGuoUFUr5R7SfD2vIIAf3+kpqVJ1ti4uFicPn0Kbu5u8k4nT57GvXspkvufgMHjBIKr167Cx88PIWFhkv2DbXXvbiJ8vLxAwhVvb2+cPHUa7h6XMTI2vgNk66sreNTZgQA/P/h6eQlhcm9/P5aYjdbhkD+P8vIyREZGIjg4BNeDguHp6S20eFVVVQK05EoI8A9ATnYOampqkJGZIe929epVYYNi/rbKqkrcvZsoGXdJYPygthY3IsLhf80PISHB8PLyxu2oGLS0tAofw7VrV+Hl7QV/f39pQxcXFzyoe4D5hfmdmVUCOQe3qMhO9jlz0L846D/GNtl3IKO9TDNM6zN34mrBDLGzaO9qxsGjB/HlN1/Dw+MyAq9dQ2jgddTV1mJ8fFw6LElxmSefAzoqKhoHvjuA5OR7krPfRY4FSz2m+CHhR0N9A3y8vBFMJqOaWgwMDiAsPAz+AQFCq0aGJq4zZXbvk15JRZ0Qnyj58wkEzC7LgUjp78qVK+BAqqgsx0W3izh3/jyKi0slTxonNDY31jEzMYybYUFwc3NHQVEJnv7wNzg2t0Gn0nW7FQuLs6irrwVzo3l7+6CmphaU8p487kFDfR0KCvIRFxeHr775Fgl3k4Q2zvOyB7w8PJCXm4vHIsU8xu2o2zhy5DBCw0KFL8DT0wvXrvojNzcPFeUV+PLLLxBxM0J4C0JCQ0HClOKiIsTGxMDr8hXEx8YKF0JycjLOnDuH02fPakDG+E8G6zM8aWkRRXm58PHyxKmTJxFx8xaaKL1yAqCvF66uF+B5xROJd5PARJDkGKDES/YqT88r8PL0lGfpedSD8rJyMRlc8riE9PR0dHd1SxomSqEkZSbFHzP6MiW5/7VryMvLFSlVU9HdkXTvnpgXDh48iHOSwTdZqPK++uorxMbFyvOw8xK8TCD7dYDVqwB4X4FMgZgCMskCsQNkM2jrbMTBIwfwzYFvhHzki88+R0RoGJiskHyPpIH7x3/6R/z500+FaejQ4UP405/+KDYcEngcO3oc7Z3dkq/rhx9+APOaRUdHwdX1IjIys7G5vQ3uf/CgWv71yRvZ0dYpRvi01FQZdG5uHigvq8TNiJv4/K+f4R9+8xucOHUKXx/4Fl9+/SXc3F2Rl5+D69cDEZ+QgMWlZWxsbYvtbnvTgenJUYSHXBfbWGFxKba+/15ymslsoN2K+YUZ1NRWwf3SJWRkZGF+fkHseoOD/UhLvQ/S03377bf47e/+GRE3I5FfUIDgoEAc+PorJMTFY3BwSO55Jy5WUl9zRpQqeEZ6BrwJ2EHBIHvUf/s//xs+++JzYW0nK9Xv//B7Ubd9fXwRcNVfOARocKdqx2t5eF7BwPAwVjjRQWnGasU20xPZrHjY1YEb4WH4/X/8XtoyOytbCJT//u//Dv/5h/+UZJVMAvnv//574UyglMaMvF9+8QWys3NEhR8aGpI/kK+//kqeg6om+0FxcRFCQoNx924CamuqBXDT0zMk/9zT7W0szM8hwP8qbtyIQGFhEc65nAez5PYPDAgQniGLVVCQzA6bQGYCmAK3fQMyI4g5A5nNZsXi8gzaOhpx6uxJBIeFCG9jTlY23C64Ij9X43UMDQnGXz/7TKSQ0vIyFJcWo6ysFOWlZQgPCcOBb77Dk75B2Byb+OFvAJnDOQBcL7ohOzcfz/72N/BHIOO1IsJuYHFhWcDS/+pVhAaHwNv7Kro6HyE6MhpHDh4S4hDafopKS1BeWY7mlgZU11QIEcrdpCQsLVsk8SInHmgjm5+ZQvLdBJEaUu6nw7axhe1n38ss3db2JpaWF+T+VJly8wowN7cAZrYl4XBAwDVRCVNSUvD1NwcQeTsabe3t6Ot9jLT7KfC8cgUR4RFCVhwXH4+ImzdE+lxeWkZ2Zha8Pb3g6+0DHx8f/Ou//Sti4+NQXFqCkvJSUeFolyPYeV72FI6CpzrhcVxCPFzd3TA4Noo1Ev5yWdWiLp5uMXeaFSPDwyguLILrBVcQDKOibuNf/vl38ieQk5Mrz1RYWIyOjk4BmNbWFsTHxeH8+QuIuh0ttkxKcZmZGfD28RbwoQpKCfTmrRtIupeIsrISfPrnPyMzKxsLi0v4/tkzYaD38/ESNbOgsEgmUNLS0jE8PCwuGwQyAndzS7OpWppq9M4M/nsFMptVm56njWxxeRatHY047XIa0XeiJfPq9OQU/Ly9hdsyMyMDSUlJoGoRcydGiHd7eh+Lkbjn4SOk3L2Hw98dQk5uPnp6+zAxPS02lfT0NJx3dUVkdDT6h4bEtpNyPxkhISFIS03H9tZTJCcl4eypUzh25CiiomIxOTGNvOw8uLteFCo3+k51PuxGV083+gYeo66+BsFB1yXN9sLCogCZhCGtr2NlaREdba3w8fZBQEAQKqtqMDu/gPGJcSEv6e3rQXl5Ca5c8RQgm56ZFRXqyJFD8PX1FpWquLgYn33+JcLDbwjx7/DQIJqbGsT2d9njMghit6OjxJBf+6AWlqVlZKZl4LK7h6jQtA/+8ZM/4X5aKto62/Gktxc9T57gcc9jRISFyXtVlpdjampSOAFo7D919iwGOWvJRJN2u8wgTk6Mo6/3iah8U5OTQqjics5FADXpbiK++eZrMeZTPWY2247OLgwNj2h+aX29qK2tEa5Rqr2UGKnWt7S2CIhdcr+E+IR4sWuGRYTi/v1kNDU14PDhQ4iIuIGm5haZVGlqpGnAUyYOKiurRCLMzMjE6OioANmpU6eEdaqhsUEM/uof2Sx/3dLZ+wMy+pPRu11US23WsrO7VYh0o2PvyIwh3QMy7t+Hr7e3GPUf1NULSS0Zw2k4ppRUVFyM/r4+NNY+EBo32p1i4xNkBq26ploYk0jo6+3jg/i7icjJz8X14CDciY1DR3unqJq11VVwdXHBoe8OoqK8SlRTUrlFR97GqRMnZJYzKycHhcWFaGqpR1NTvUh65KEkkG1ubsl7UIpRTr9kP6fxmwvtaJxtzM///9l7D+eqsmzNs/+k6YiO6JnXZmbe64jujuiedq/7vVedWVVZVekNkIn3CA9CeO9BOOEkISSBQAgEMkhYCSeQQ8ggd+UlTNY38VvnLOlwSyLJTESaujdixz5mn+3OWd9da+9lMnTu/BmdO3dGS5cu0+nsXDU2Nev+/XuaNXuGkleu0OHDh7Rv/z797vcfiKDDcFFncnPs2Y0bNhhw7N+/Xzt27bA1MBa6O9o7lHE8Q0sWLtWh1EPKP5+vL778QqvWpOjI8aPKOXtWOblnjKvKyszQ8iWLtXTRQnHM+hnxAWbOmatHNXXqRverv1/tne26dfumDh86qP379hlXvH/PXs2bM1d79+xWSXGRcUnszu7bt19n8s7p2ImTtnNKtKpzeXnKyEjX+rXrtXH9RltzzMnNsWubN2/W+nXrdfjwYePQ4MgyT2WopqbadmaTkpK0mV3QzEyLJL9u3VrTMyu/dk0AOdfr6+uFuDpv3jytWrVKxcXFw//GCRD76wYx3v87BTJT+ERhtRfPsK2qenhXqQdTlZ2bawqlL58904PKSu3bvVuoF/Bvfz4/X+x6ffjRR/r0888tPBoxIzvb2nS1uFjz58/Xhx9/rBkzZyo9I930xNhlROeK4Ly//+MftHbDBvvH74516+Xzl6qtqRFrZATLbXjcqGeDz23B+8a1a1q+bJk+/vRTffLZZ1q9drXKykt1926FhZkjIG9nZ0zPngXl2YkFmNEva2tt09mzeYIb+fyLL/XRxx+b6HjmbLbu3K3Q4SNHVFJaplis2wKn5OScVlLSfE2cOMF2GtkNhdMpKiqydb6PPvpQM2bO0IkTJ1RTXaPcs7k6mXHSgDrWGdOVS1d05GCarpaUqaW5xdaepk6fqj9+9KEmT5umfakHjANrbHhs0dS/+OwTffbJx5q/YIE2bdmqtGMn9KSpxYAMx44o9lberbDI5x99+KE+/NOf9OGfPrTdRsTMwYH+IGjy+vX64suvRJg+QLu0rMx2YQHdD37/e82bO085ObnGWbKJARdHtPgjh49YPAKiWZ3OzrJgMKhfEAKQiPBTp0zRJx9/bO/z4sWLampqsg0fuPJLly4Zt4bFB2ocbAigWJsAsASA+TfwToHMtb3NRCnWrta2ZtU9rlNzS7PtPNnOGbpL9fX20QMULU+fmo4ZOki3KytNZOvs6DAlUvSkHlRV6dbt27aLhbIlNoIYPyMaVd6p1PWb1828p7W1dRh0YrGYGp40qK6u3gKDBAbdvRYIpPrRQ1VUVFpbmAV1dLQpFguClkBcKLYOK32afWJfYB1AX5tb9PDhI92uQAS+raqHD9TU/ESxrg7TEWttbQ/8lPX1qqWlSffu3TX9r0fVj6wvBBppfdoq9ONu3bppohQR0eH82Okktbe1WR1whkRyIu+MxUyERl+NMWN+RMAW80DS1aWnzc3Gxd66eVNVDx5YfE5EXMZtSr4ESunuEnpi96vu24YA61t3796zaFDUg8JqLNaputo63bl7TxV37truLe0zLwRNJpL6o4eP1NrSKtbxEK/5U6msrLT3CQA3NzfpSWODWtuemmkSYEa0Kubi9q1bNn9EjeJbIRAxqiW8O3YmWWsFzNAjY8PDP+JEngC0Nwcy92oRqlPEL+bbgj7eYMM02n0+ONNi7ybqeIe6PfBIaDjufsr6Q6d+aHRjBhPEmRwMNfsDw2m23dHu7gnLYJNIEBCUO58NDmloEIuAwKc/Wvhoj1t9iLZs2/f327OAktsbWhm0zEOvFRD54CDBQwLNczOXCe0k8WrBsw5qPBNsAAQ+/+FyeK63j4DEPcPurI0rxRoh9GGGdYJpzBNwhWRBUOBaA08anAdg437BAu1/96phDhHxVsE8YQnQjyUDxwM2DlOt6AusIgKxPvBCwVgGLUBKv3CeCKB44vnBoUENDj0zMZo6sCtlHs26YgBzoyENDIZBVELb0MBqY3B4HNSDxQFtBeNCVSJ0dx62xzskhihzFVhqBO/by/PNuDMByiY0+hOgNdof17gA2WggxjVsGAMgQ7cMjfSYOjs7zCja7PYACewHY0Qlx44RDwm4tgl8+tvHHe7UoDLAPUDI1AcAQz50iMaCmLAe12NcBMQDcHCff3aIHADEztDqCQ2nMV42U5+ubuOC6C/EaARuIBy6taGfIdgNA1rInTkBYlIVgFUwVgumYoFP6HMQv4CgKwFAuJ1lWH9fGDEqnLMAjIL1ReNMwn7Tf8bPPAQgG7gG50Ub0Ye2j2ZPGorB3Avq6ArAL5wr+g0QMlbmwGIJhOBqz4RzxLGNPYw6ZcBstqyBqVVwHoAtZeH06JsDkL3TcNzcJ/HOAEnKwi3bvDu3a+2F85IwGE9woWPs1L4CZIgQr02v4cbGAq/oddPuN6NuiCnw+mqeMgysAtEBezsIjcRH7oTKMQRBfXY/AmQB2AXPAF6eIBoHDf7tqZvnA8DqGa6La5TzNNyG9wv3PeZIceTfEO7Gk/fVCXMkp08QZ6cBpsenhGA9tB31GqE76JjdZdBv+hGA/8i4vW7G7Cm+fQO1iGE1QEj6y+uhE8jIPefKvE/23Ch2kz5274/nfp3cr0Vzxutz6f0JgGwErEbrq5f9rjza1ts6/q42f8j9t9W3aD0/pB/f9Uy0/rd1/F1t/pD7rwCZ78DF58YhxQINfYjrhyYnyuiEBB92hLsKAYwyDMjLRo8NyOIAz8vF50408dc5j6/HiWy0Z+LLRuvze9FrwXFgGA6YwfnBrZC/rp1X+hUHnvH1e7vRPL7M2zqPtvFWjr9jbD+032+lb5Fvi/p+aF9e91yinyNMwevm6U3vvRGQAWyA2Q8FMMQF5y4As1c6B+cQxq6kjL/gV8qE7KQj9evueZk3yakn2t5oz0Tb8rLkXKf86+qA03AOx7mi13Eb0ba8/mif4u+PdR595m0c00507G/jeLTx/di+/pL6+bb7Sn1ve069zrfxvr0Or/PHvuv458cdyAAxTwAVO1Gk6DVbG+livSy4F73v5cgdSP2a1xe952XeJPd6vL3RnvEynnsfvU3y+GvUY2t8Ee7VN0HIvR2vM5pH64pe92O/T841r4vcy0SvvY1j6o22+zaO4/ue6OfIt/9D5nc83v14vPfRvtu38e7ZEMInIO6z/lm8SBk9/6EcmU9GRwceYdvMowVeLXDR8rqEa5j49Lryv8R7zAOqCz80xc8j5/HX3sa8/Nh+jja+v+Z+8k5Gm5Mfe+1tvOv4On5sn0Z7Pr6Nt3EOhzbuQOZghj5QtNMMMnr+XcfxwDbW+XfVE70/Vh3R614+nqDHgxi9re+be3+/73OJ8q//Q03Mz9ufn3g6Agd+LC29MyBzMIuyzXBp3ydFn33dMXW2d7QPp/g2/B7XX1eP34uWi6/rx557Gz8mZ249/Zh6Es/+OPEuMX8/3fy9E9EyKgOz6BddlOTYFwLfJH+T8r7mFqh2/GVwX1N/GA7h9vr23fd/4IY5bqMiXGB9k36PVcYXP39oHr/o+UPrSTw3+rtNzMv4zMvb/m7HfbE/CmJwDRA0HwcDcU1tV5bkOjt9plc0rA82oq/lz73u40K1IdbTNZxGVaUIdZnsHrppoU6W9y1av+ukRfXbKGf6UqGu1ivlIyoj0evRY3+JXButzWjZxPH4EFJiXn8Z8wp9vEn6XhyZK4yOlUdBa7TjeOVWPiYn6lfyYRALNPqHVRbQw3IQiShcRvWyhoGsO6YYCS3yUGcJUArMlACQQMkVjXvT8De1kAA0rT1MmUJLA6wNXAfO+sk9M1EKlEwDQBxjLBHF1FfGGAE8by9BXL8M4kq8p3f3nt4ExCjzxkCGxv8wgMXY+o+kOK34eBALVA7QVu+2qD3DSqGOtiHQwBkZd4YNpevFRDTo4YJiuM4JgWSYKwrtFg2c0KTH9Km703IHGZ+QADTQ/g8iMEWBDNMbM9UJ7RvN1AnXQ8Sl7CbKzwigUQ91EpuRdtEXs/iMoZmTg7RznaOBmPU/au7kY3VOL2L/GP/8WOc+b4n83RFbYq5/+rl+Y9FyGMiiABY9HsOo3EGsqysAMvxf4c8+4JICw2g6QcK+j/Bi2ClGP45hgg+Jvs9iRAa2hxC0KZ0iLrLuZdG/Y4r1xIIo4IBkaD8IwAZiK0bWxFocsPZ6LcQc3BXGy4Hh9gCG1r1B6u/p/wsgw3gakHJ7SdrALtMMpd2kyYzDRwydo+DD+AIgpt0wRYDMxgSQGcgHY+BatI7RjqPzljj+6Qks8Q7ezTv4fkAWBa7RjrteVdAMODMUQAMQi3X1mP8rAMs8HfThEK3fPC1EgQw2MUqkLnoBigMDgXcJQAAOCUD0RJ3dvV1h4jiwWTRQGF6PwuayyzgyjLqpu68PEIULHAGV/t5+DfYNWBrow5d9AJxumUAfMbJ2Q3M2EOgH/Y4ej8WRxYOYGVuHHB8fv42JOj2FXOt3EYZznon8zdZWEvP065incQUy1sRGUrc6cfFjHFTgzgU/X3V1tRa27NatW7p9+7bFUoT4zbVNGGmcY0DxScMTPXpUbTEPzTtr6BUjACo2EQIgQ6yEM+vu67H1L0RWAIA1MkRiQrRV1z4yX2XXrl/XvQcPzHMroq+55enuVV/3iBcNuDPj5IwjCrw04CcLV874xoI7a3zSqAf3H5gXU19PAyQRVRlPFJjt2LlLdwUUv+bnAOb5GwLZdwFd4v674RAS8/xu5/kdAlmXAVkXXEcvXi06VFPzUFu3blHSwiQLM7ZwQZIOpKbqzt07GjCxD9EvSCh8lpdfs1BtOD4EyAYHBi3IB4MgmU+rvh61treq9nGdqgmuYWttAeeFONnTE1NF5S3t3LVdM2bNEP7rkxYu0u69+1R+7bpxfERI7+3qUT+OBw2MAKReDfT3mduhwsJL2rBhvXbt2qWyq2V6/LjBIv0QQ/NU5ilzOwTH9V1AFnCDoU8zB7JQnBzmxACyBIi9stSQAIl3CxK/hPl+Z0DWiZ2l+87q61F7x1PdvnVdc+bOtviHuEpeu3q1pk+bpmPHj5tHVXyGEe2a6EhPGhpUcfu28vLyjPPB2yiiJgk305g/ISbAvT14+EBZOafN935tfYPaOzqNEMzBYV+3Cq8UaPGyhZowaYIF9li5KkULkhZp7979amtrN3fWXZ1d6sWHV3ePuTaKdXaquysmAnQkr1qpKVOnWFBggs6ePZOnWbNmWwBhop3D1eGyB2+vcGpoh5sIg2pILGZjwpstHmVxnR04Z3x1rW8YyELR+ZfwMSX6mACYn+obGHcgww2zpw4cJrKO1NettrYmlZcXa8nSxRZYBLGxuqpKkydNsnBfBZcu6V5VlUpKSnS1pNRAjGAV9x/cN7fOuDxGHCXw66VLhbp8+Yru3b1nwEY0awLD4sv/3PkC1dY9NgDp72ONrVv5F/O0et0qbd2x1UTdazdvatmKlVq8eKmJrrhrrqup1dPmFgsuUocYef++iG5UdrVU//u93+ibyd+YP32CAhMB/cMPP7II4LU1tSZOEvEcbg0///icx001XCUiaXl5uQUZKbtarvq6xxocGDLRE04V3/kJEEsAwk8FCL/UdscVyFjXGlkjI+BI4Kanr7dL7W1NunatWMtXLFVGZobgeHq7uiz4LtG0CYY7PylJE776SosWLrTwYAS03blzh/mBJyzazJkzLe7i5599bkFjk5NXiUCw27Zt0z/84z/q//5//l8tWrxcN25W2Brb0GCfBge7deFintZvXKOde3aqu69XxaWlWrdho7Zt36EnTxq1b88+HUw9qBvXrpt+CnE0d+7YYdGFDh08oL/5m/9L/+k//ycTiffv26/333tf//bf/Ft99eVXFmG7AVFzf6pFAJrw1QR99tlnysjI0LVr15Sdk62vJ32tL774wsKglZdd07cvvh3eWQXIunAFnhApE+JkqIL0SwWXd9nvcQMy95YxFpB1tDfpxrUSLVqUpF27dlp4L8IQ+NS7AAAgAElEQVSHTZs+Tbt27zIu7YsvPteypUuVf/68ikuKtXPHdq1du0ZlZVdF2Y8/+VjLl69Q1qnT2r1rj2ZOnylEu3N557RqVYq++WaKSkqv6Wlrhy24BxxZlwovX9C8pDn64E8faPnKFfpm8hTNT1qozFNZxj2uW7NOG9Zt0JXCy/Zcxsl0rUlZreNHj1msSGJtLlq0SGfPntXdu3e1es1qTfp6kgjbdv/+fQt7tiAMrgugzZkzx0Dv6LGjSjuapg9+/4H27N6jG9duqr21I1iXs13VAMTigcx2aBMfdQLYEt/AmN/A9wMydMVGU7vgWpwe2VhAhqkPgBJrbzYgmzF9qq2LrUpJ0fKVKy0EW37+eZ3LO6sJX36h1P37LTgrkYa2b99mQFZSWqzs7NP6asJXOnIkzSIQnT+Xr+nTZoj4ksVFxbb4vjJ5lZ4+7VBvLyobuHvuMtHy8pUCzU+aqz9++AetXrtGi5YsEfExDxw4aKHXUpJTtG7NWot+znMAWUryKp3KyLR1LYLN7tixw0KSYTR+8NBBC6Z75uwZi9g0a9ZMffCHDyy02dYtWy0K+azZsyzsGWXhIIuLS9TZEdPQ4DPTI+PfCy4MEEsAWUK0fJfczK+hre8PZKOBWQhigFmgOzbiUTaeI2PSBvp71NneYkA2efLX+uSTTzRn7lytXrdWl4suq76+VsVFlzV96hSdPn3a1sSINL179y4Rpbq4pEhnzuRq9uxZunTxkjrbO3X50hXNmTVXqfsOqPBSoQFZcnKK2tpi6kGh1bTluzQ02KuLhflKTlmhFckrVHn3jm7euqVNmzZr2bLlKrhQoJRVKdqwfoPVDZCdPH5SySuTlRkC2ZzZc14BsgMHD2jp0iUWW/Lu3Tv645/+oN/85p80ZcoUrU5ZrYUL2UjYq9Ons3To0EHNmjlL9+7dD8Kx9Q+MABkL+yGYRUXLBEeWALZfA9iM5xjeGMjgsJzrGit3ECP3HcURIAsUY1E5GOjvVUd7i8rKirVy5QqlHTumhsZGDQwN6NnzIXX3xHT58kVNBchyckxvrKa2Rrv27FLK6mQVF19RXt5ZzZk1WxfO56u9tU2FBYWaNWO2DqYeUmHhZYuGvWJ5smKxHg0OPgujIXVpcLBPFwrOa+PmDdp/YL/+/Oc/WyIK9oL5C5SRnmGgBZARKJbdRrgqIl6fPHHSdiDnzp2rnTt3GkfGrioBZpcAZLk5Fovys88/1fLly1RSWqKXL17qxfMXFiWIuJNHj6Zp2rRpunnz1siOZWhD6l45TBk2oXIxphgxngSRqPuX+afxvYAsClTfdQyQBRr9vuAPtxEYgaOPhfpFWVmJAcChw0dskX3wGTERe9Xe0aqLFy9o6rSpOnUqSwSpJVjujl07lJyyUkVFl40jmzljus6dOaunTS3KP5evqd9M0d7de1V+tdzWzD799HOdPJlhoieAhCb/0LMBXSws0IKF8zVh4gQdOZqmvfv2av6C+UK8JZjs8ePHTSxMSkrSgQMH9Lvf/c4W7LmOKsWMGTO0ZcsW2zUFyOC2WDPLPZOrp61PdeDQAQNhopYfPnxEB1IPquBigYpKigIgmzrNdls7OjqHoxuZekaouJsgpl8mMSXe20/33sYNyAC6EW6M4wDITFG0jyjSbbp7r1JH0tJ08VKhnra2mUIr3BhAdvPWdRMlS0uvmm4XYIY4eeLEcVVWVqi8vEx79+zW9fJr6mhr181rN7Rz+07l5eaptrpW58/na+WKZO3ds0/37z8QemeYE2ESdedOpXbu2qHZc2YrZXWKViavNJ2w8+fPm5rGvfv3tG/fPq1YsUIbN240kNq0eZMuX75sQAZwZWVlqaqqyhxDnjt3TkeOHFFZeZntPlZVPdC+fXtNrFydskZr16xT/oV83bx9U5cvF2rf3n0Wkdv65IqwiYXcBAeW+AZ+8DfwDoEM1YvAUBpTolisXU3NT1T18KEanjQa92YG390xdcTa9aSpwQALAOvpBvhixpUBEi3NTaYge6eyUs1NTaa02tLUrDsVlab/BTeIXhogeOH8BdXV1hlAsU6G9n9rW6uu37iurNNZtjuanpFu53BXL1++NGsCdiMBNtQlysrKbHcScyQUb+/du2cghnteFFxZv2O38knjE1PIxRgdUZj1uxMnTirrVJbpvzU2N6rhSYMp9La3tQfeNBIf7w/+eBMc0E/HAf3c5n5cgSyeKwNgggnAnU9MPX3dev7ihakfBNxbLDD0Ro+qp1vPnj8zMyQzDsdgvL9fQ4ODwwF4BzFL6mPNrV9DA4N6MfRMz589N4VUzJdevvxWf/72z2YLCScIkA0NDZk4NzjI/Zf69s/fWjtDz4bsHpYBLPBz//nz53rx8kWguoGReOiVgzqoC3HQX6gZkYf3Wet6/uJ5sP727Z/14sVLW6MDRAE5+mjG72aonvgYfQ4TeeJb+KHfwLgDWXQtzQkfkArc7eDHC9McQCEwxgYEOm0XNPDxZQOL+AEzQMK5ImteeJSNJPPmGhp2oyUP2LC5QB8AUbN9ZJcwdJcT2Dr2mThohudm5xhxldMXgF/85DqIDY8nAmiUZQyUcd9mtGML+PgtCz1kxNdJXZ7i7yXOEwSe+AZe/w2MG5BFdzbxZUacRwjcd+S6DMzcBQ+mOUG0cTxV+NraMGGHIikeWy1xbuCGS55o6jIXPYAFydrDjTUWBdhNRvx+mdscdwX0GhDxPpBHP6bXnfszgcuf0N2QudMO5yBsL1ofx/F1xt9PnL/+Y07Mz1/v/IwLkMWDGECGA8IokHVjVxhyQPYBmp1hj3mrwGMFgAa42T12O/FE0dMXSbilDlzzmLdXwMtd3kTzENDMtY4DWTQf58V25/4Yh4N4guD+egku8e7H592/dSCLgli8FYCDmXFjBmR4ih1xEQ14GYgBZEb4IZeCWNiNW50okHHsYEYwkLGBLMohDXNlDmZvGcgQKUmJD3Z8PtjEvCbmdbRv4J0BmYFYyJVFgYz1MRbX3Xe+A1ngDnsEyOCobI3LwQzFWsAoXCN7HZDZwH2dzQEMz7D2/KuL9qNN0ptccwDzPPpMAtgSxBf9HhLHb/97eOtAFuxURgKVAF7RhJsaXx9DtAz92juQ4bMsBjdmfv2DtTNbO4qsk5mzQ4DInBciXv4lRzbcpsevDKMvBb72Q2eGIZD5hwXgAKp+/n1yBzDPedbXvBJA9vY/3O/zbhJlf/3zPy5ANhqYIXICLizCR3fw+MiC6EN9Jk52hEDWBZBFwIxyxpER4ci4qRGx0n3wO6A5iGGvaIv+IScIoLCT6OIl9VkKXVEbqPZ/PyADrBy8PEcVIwqICSD79RNSAix/2nc8bkAWVbvwdTMAhoAglsIF+ZENgGBdDG4MEIsCmYMYumHGUbEOFS7093R1qdeDicDdsfYW1g1AorsVAFqgVoECq3mXhcMLOTKAx8HG8+/zYTqA+TPUhx4auV9z7szPE/lP++En5v/XNf/vFMg6OzsCjqwXO8yY+b9vbmnW44YG1dbXq+7xY3OHbZxYqF/mIAEQdLR36PHjx+b6ugd1ild2LQEx9MbC1B8EMHEOMFoPYIaGPlYDeGytq6tTa2urgQ7h3EynzHdMI7nXESUCrtkan+nCdZsba+tjW1ugv4Y6SSTCevRZjr1Oz+PvJ85/XQSXeJ/j8z7HDchGuLAuI2g7jwXRjXp7ewzIGpsadelyoXmNOJ2drazsbJWWlZm/fsCMjQAncMyHqqurzVwI19OodAyDlnFiIyCGzlp7W5sZcNuH48qxWAEMDJhJUWFhodlL4hwRV0GcP3jwwPo61sdmoBURPe2ciE8hRwcX2tTUZH18+PDhMDgCwp6idfvzAKEnrkXLJI7H58NPzOuva17HBcgcxMjjRUzWx3oJ09bVqeraap1IP6ljJ44rJzfXXPYcO3FCV8vL1QKH1IuNZafaOzrMWBvu6fatW2p4/NiADGVYXGR3tLers6PDlGPh0poaG83HP77x8ZMPiDhoIPLdvHnTPFzg2eLKlSvKzc1Venq68vPzDYgcdHCaCKdGzjgAGyYMIgBYuUfuY4Tzwv6SWALYXzqXx32O6QvlvS/UQ1vkjJNE2XgiS4Dbr4vo4t9v4vzHv9+3DmRREHMgMxtLTJAwFeoJ3Ol0xjpU9fCB+esvKi5WY3OzcWIHDh0yzuzuvXtqefpUj6qr9fDRI9XX1xsYAAgGbm1tBmi1NTVhYJCHBmBwapUVFcpIT1dqauqwzzAHA3IADh/6eK149uyZgRdghpueR48eGbjQDmCE8TjcFQDFB8eEIZZS7s6dO2ZADqdIVCSuA3qUdYAD3AiUglE55amLe3BxjAMODmN0rpM4djBzkHPRlb5HU4IAfjwBJObw1zGH4wdkoftrAy+MxR3IjDvqEUD24OF980BRevWqWtva1N7ZqeMnTyrnzBkVlZQYl3b02DHLi4qKDIDgoACvu3fuKDM93dKxtDQdP3pUeWfPmleMy4WF5iNs/fr1BlgAEv0AEACuGzduDAMZBuAADdwYYibHAM3169dN9Dx69KjS0tIsmhP3ACoiO506dUrHjh2zBGDi4gdwo62cnBzzjuFgSNmTJ0+av37AkraoBwDk+NChQ1YPHGJ2drZddxAbi9AcmMe6n7j+6yDQxHt8s/f4ToHMRDY08Hu7zVVP1aMHwoXOhYIC3a+q0q2KCh0+ckQXL11S+bVrSj1wQBmZmSYKsn5VyHpaTo65wbl544ZS9+1Xbna2yq5eVUH+BR0/dkz37tw10Y5y+AiDCwJQaBsgw6MFEc0BIYKFAEC468EbbEVFhQEMoiGAwtpZaWmpARr+xwBTHC+eOHHCjikPqBGo1wOR0E+ACU4Of2U8Q3nK4v4HIKZtjgFU2qAfACegxjnPwMm9Dqxedy/x8b/Zx5+Yp1/PPI0fkIV+/I0jC7Xq44HsYXWVjhxLszWyc+fP62xennFfFZWVul1ZqX3796vg4kXjkhDBiA8Jd3P/3j0BZAcPHFBJUZGJlLdv3tLRI2kqK71q9+HKAAW4K+duIH44MEAFMNmzZ4+Jl7i5BkTgkACQM2fOGLjAPQFUgBgcFeInfQAgASzqZYcSjo3AwYAcIuTBgwetDfyY0QeA0sVJuDbqLS4uHl6fQ8wFbHmeNgBRfKa9jtASQPbrIcLXvefEvTd7z+8cyHgxLPZ3xtpVVf1Ah9IOm6vp4yeO68zZs+aAkLWxe4RVO3LEOBWIHCDznUaAjKjjJ4+fMBETvbD7d+/pxLHjunTxonC4WHjpkgEQIhxE74nFfjgywIMEeLHQDwcHwNEW4iRRkgAkQA0gA+jg2jgH1FDZABQpD/hwD+4PIAPY4OoKCgqMG4PbAtDhBllLA6goDyheuHDBxsW8wMFRP3PBeB2AR/uYE0D2Zh/4aHOXuPbrm7u3DmQQrC/4GzfG+lhXT5DgzCJAdv/hPaVnputK0RU1NTcHfrz6+szzBe6m044eHQYyAOBS4SUDDQge0Dl54oRxX3BRiHLHjx03UACocC1N4F+ABpHSE+ADsGRmZho3xnUACLBCPKQdgI377G7iaHFgcMAcI7JrShncYLMwz/Wm5ibjsOC64KjoBwDIswAVYiUADEfG+hybFr7mBlcG2CHeorzLuABU4l+yw+lgxTwmiO/XR3yJd/r23um4ABmE9xcgBpiFQMYaWXtnmx48uq+MUxkqKi5Sy9OWYbBBIRWihjNCPCPgBwBDdHGPVIQaBpwRIITOWGVFpYmLgAbrT3A6LMIDWnA39AdgYMBE/EZEhcsCyAANygM6gAvAApgBbjdu3jA32NSJWAhAIZICOKyfsW4H9wYnRV8ox5oXQMs59SK6IqLSFwc3RFPWyLgPmGHh8KDqgQUwoR9RIHsdZ5YghrdHDIm5/OXO5bgCWRTM8ADrrq4xUQLIauqrLY5lRWWFqS44B8IHBefiXA5EDZgBKkQcxx8+QAcoAC5wO+QAAiIdu4uABFwVZRAD6QugBUgCNiyoAyy0SQJ0eJ7rcFvkiIx55/KsH5SlT4Ai5bgOCJETGg5VDsCJtuDa6A9l6ScgB2iSeBZwhlOkDKog1E3/qP/q1avWZ8bkhJUAsl8ugfk7TOTj+w7fCZA5iEGsvNDu3i51dLWruaVRtfW1xo1xHUCBaEmuq4X2vyuLEtzDzYkAN1c6pV6AgXvGfXV3mciHqEeQEYCNOtHdoixlHJQANyYB4GDh3hf80QVDTISTgoPjOmXoI+UATOJWAkxwXAAfdbImR79c74xxcR1ODtCiTsrQLn2mLrhN+kf99NWB1z9+7vlxIh9fgkjM7y9zft8NkBEKzuJchn74+4LgI0RLItYka02ATJRgIXTWsywYSH+4xmUG4AHQ8cE5N+XHlOUZrvM8C/usPXm9XKMs55ThPsk/XvrA81yjLIkJ8muUA6AANkRQOCy4PnYxAShAknUwUrQP1EHd3r7323PsO4ePwzY59375PT9P5L9MYku8t/F7b+MOZBC3JwMUc28NGHEdXakeI3CIlfueOI8SPx9BlLj93ImcHKDgGb/nYDSaEXh8+fhnvF6vE5Ckb3BMiILog8GNIboCYnBX1OHleZ6+MMFc8/pGzcMgJ37Py1OfzdkoY+deIiXmIPENBN/AuAGZ71x6PgxmEX9k5l4nNOh2onUg49wJO3ot/sV5mWjuZUa75vc8p4yDRfRa9Fk7Djk7RF4XQVlLY70OUZFnKed1kEdBLXr9L+qOqIdE7/GM9y2+7mh9ieMEoP21fwPjAmQOXqPlI/7HAgeLUcKNByy/FyXo+BfmZaK5lxntmt/znDJ+7Hn0OT+O3oM7Q/x0bivKQVEuOo6/eN4cRAaeOvzeWHl8Pd6HH5pj5zras8RNGA70kuD0Rp2j0eYtce3n8wfy1oHsFfDC3jIumXNFPLdGXOsABA4GELV/IE7gfv6meTwAROuM1vEm9ceXoZ++hkY7cJoAG/V6u1zz41fai4AYLoj8nrcRn3v95F72h+ZWFw4nnSO2/NUQfPF1j/h7C3y90b/4Monznw8x/zW/i/EFMsyUokAWupx2YmLinXgNzCKL3lGiiR5HX9ZoYGH3Q5MoOw7jAkSfe6VNd3P9Gk6E8tZWKC7685b39Fi0c4je2whAIwA5C2sXAhFlADCio5M4Zy6ox32red3MB/X5GONzv+dtxufRMHRelj8Z44jDOAYWBCYSR9Tr8H6S+3EUeL3caDn9H+164trI95GYi7c/F28dyOBGXuHKzCdZGKDXORXnCiKchhPw9yEEJ+74DyNKxLap0B17xd21tzUaFxhf1zAohXE2CZJiZcJ1rWEACkHZ4wDgRpsgwBZBHbUTxmqbGQQL7jLgGvZe2zcCZAYY1G1Ah0tv7gWxBaLj9Xnya7YGaW0APujGscEAWIYBgtk1Nk+1I8FfPKK7B0TuC3dWXxlThIs0YOvD4eUIwMbPV+L87RNpYk6/e07HBciMqFy736J8u6gFATgRcK3LTH9sdzLkxhxcxnp5DkLc92MnarsWEjHEz/UuQKwHURaHjr2CWF2s9ee9LecUvT6Lswn4UI+vI4XH3n6U6DkmuEl/P+oWA+rto63A5Mp3abuJWxDu1rJja31h1zIEDPqIQ0naBISoz2MVYBkBcHnb3m/y4A+EOWVeENX7h8PdEW3KI7NTf+9An7r7etWBu3FiGPDng54daiKI+SGHOMyRGZgGu7CI0dbHMeY/2qfE8XcTYGKO3s4cjRuQoTdmKQQyiHCYSyEcXBhR6fmL53rx8oWePX9ma02mszUwaEQY/5IdeDw3cTRiR2kgaMQfAElwH48XAxocHLDAJQMDgyZeIWIBIrQRcF1dwXXjlgLwMSKHwNE16+szYofgSS4yDgMQQOTcEwDW06duwBRAQUfOFtq71d+HmRRAw3wEEaQAcuO84J4AsZ5u42rpI2MYGhyyvtNXAIv+mpsfgqsMAJyBjlqwYD/CjQHmBDHuD8XZAdOzG9Tg0KCBGWMi/J6P0xf8o2OCiwQEAbhnQ0OB3WkojvOu+ICs/wmRMiFSR5ZX4ml3vM/HHcicOzNQM1vLYA0l4FA69eRJgx4+eqg7d+/o7t07au9ASbbPiN+4CoAgJBwHMHKIh85zzyeJYyMsuKKQIyHgCfXfvXNXVQ/wwNpobSDWoYjqdZu4FIq81A2gIBrCiT2qqVFtXZ2etrUZqFkQ4ZAzMi4MDggQI4hwD8CJQiyRmeBegvBzgBLh6mKd7aqreaTKilu6e6fSvNzCvQ0NPNNA36CBFIrCsa4OtTxtVm1drR5VPzLg8nF67vPBuY3D5glONGybPoVA1tXZqdraGt2uvK2bFbf0sOaROuDGcLMdghlARp3OkVkeRnPHlfjDqirV1dWaiyGsLR7XP1bVgyo1NzVb+xa45Sf8mH1eEvnb4XJ+SfM4bkDWZZr8cBasmQWpy7zE4lgRzqJT9fW1Sk3dr9VrVislZZVWJa/UyRPHzT6xb2BAcE8mpoVgBrHaIjkiYqj86juIAKaZLdXWGGfFfZRXz587p+3btmvduvXasX2XMjJOGTggcmJVMMLRUCdrU73DnNvg4JBxXxcuXgycPz54oKHnz9ULB9UfcEIDACriXwieXTFsJhvU8rRVXd0ALpYDcEn4+W/V9Wtl2rxpvVanJNt4d+7YoYsFl9TW2qG+/sFAvOvH2qFPNXXVunTporJzsm1szBvjAjAMsJ0TI8JUR4fqHz9W69M29fUOGJjBBQNk7a2tunXjujZt3KAVK5ZrefIKrV63Rlm52aquqw3ihwJgcWtkDmhPHjeYe6R1a9cqK+uUsI29XXFb27Zt1969+1ReVm7cN+8CIPwlEUCir78O0BsXIAO44oGM8+7uXrsOUXd2tqmi4qZmzZqpKZMna+mSJUqaP0+zZ84wrxNPW9vU1zdggUfQmifACIQMcEAsiFZcR0EV7gDQwhj74KFDuv/ggZ1fuXxZy5cu1aqVyVq3Zr22bd2hg4eOqLqm2kRbuEKClwT1tJr7bVu3CgE3FuvS09ZWXbh0UfkFBSKOAGKmrZmF4NHW2qquzpiBGSLYo0fVOpp2XEVXSvT4caONAZGa+JqNjQ3KPp2pTz/5k5IWzNXiRUlaMH+eFi1arOvXbqq9vdM4ye5udns79LD6obkuys7JMSAz7pY+d8XMLhMRE2CDi8W6ID09Q0VFJWp92q7enn5znQQYNT5pUE7OaX32+SeaPnO6lixdohmzZ2rugvm6eLlQbZ2dtrkAF0p9iJZsDDA35KXFJVq7eo2++PxzHTlyWBcvFphnkj/+8U9at3a9rpZeNZGXPwG8mGDgD7A6qNFvzv198e4SAPLrAJCfy3t860Dm3Fd83oUbn17WjiCWHrW1t6isvERLly7RkbQjJvZU3bujSRO/UsqqFJVeLVdTS6tu3bylq1dLVVFx24gEYoEwMKwGuDAVwpkhXiO2bNmiv/+f/1NH0tKMg8K9zkd//KNKi4vV1QkxxVRdU6e2dmJOxtTS0mwOGrGbvH79mh7VPNTTpy2qra3TnYq7un27wkCx9nG9njQ3mWjZ2t6umtpaVT18aIbjpSUl5l4b0Ys4mbnZufrNP76nVStW68qVEsVi3cZZwu3V19foVOZJTZ0ySaWlV1RXV63MzHS9//57OnwkTRWVd0yEvVNZoevlZaqprlFjY5OeNDYZV4txOQbpjJexY1kAONQ/rjefaADLiuXJunH9lnq6+oxLGujvU1PTE53OPqV58+fofP45PW54rHP5+fros091MO2Iic5NLS160tgYAFhHpxobGlRTXa2G+nodOXRYn3/6mZLmL1BZWanOnMnR3Hlz9Y//8E+6cL5Aba1tJhLTj9KrpcN9Q5zmT4Z+4xkEw3k8j8A5/1wIINGPXwegjjuQDe+K4WAxBLLePrxbEP+xSCtXLje//W1trYp1tGnJoiStSknRvv0HlJyyRtOmT9ekSRM1f/48pR05YrEqceeza/cuTZ4yWVOmTjFHh3v37tXEiRP1f/zzf64Z02fowMGD2rtnj97/p3/SiWPHLCjJsxcv1RuKbzU11crISLeyk7+ZbIB64OB+5V84rxXLV2jm9FlauSJZR48f0649u5V9JsdiClTcuaNFS5doMRzkgiRNmzpNUydP0YXz+bpaUqqtm7fpb/7lv9Zv3/tAu3fuU/WjWj1//lIstD9+XKvsnEzNmTtdt29fU6yrXUVFl/Xll18o9UCqdu/ZrZXJyZo7Z67WrV2n9JM4eCRwSbqetjw1f2srVqzQggULNGXKFM2ZM8cADM8bS5cu1d/97d/pt+/9Tqn7D6n1aYdximwuNDY+Vk5ulhYtTlLhlUI1NjUZkE2dMUPZZ8+opKxMe/fv14mTJ9WA943aOmVlntJu3BOdzdPyJUv17/727/SP//AP2rl7h1JWJ+s3v/kn/c3/+a9svDdv3tKt27e0bdtWzZs3V9OmT9OaNWvMr9vde3ft/cyaNcv6i6cQPInYOmRiPS0B6G/pGxhXIAPEPMUQLXsC3ao+B7LyK1q0ZKERcHl5mQovXdDMGdM0c8ZMLV22QkuXr9SprCxlZ5/W9m3bNHfOHHOrg+PCpIVJWrpsqfn6gmsrvFSojRs36u///u+VmnrAuCmCkixfslhzZ8/UuvXrdPb8eTW3tlmfTmef1rIlS7Vh/QZlncoyTuV8fp4yszL01RdfGWeTm3NGZeXlWpmSrP0HU1VcWqKSsqv6/R8+0MJFC0284tlZM2Zq47r1yss9q/Nnz+t3732gVSvWqPBikTraY8aRsWva0FCnrNPpmjx1os6cPa3ikis6cCBVX331lY1x7do1mjF9unGkJcUl5tcMcNu2fZuJymvXrtXkyZO1atUquzd37lytW7fO/KXhhePjjz/R8mUrVV52Q309A7bzOzjQr8amBp06nW6i5cKFSVq3fr3mzpuvJcuW6dqN67paVoXH4YMAACAASURBVKblK1dq67ZtxvFVPXigvbv3aFFSkomVcGSfffKZif/4gzudnaV5C+bpg9/9QRcvXrJ3snffXk2dOkU7d+00EF60aJFSVqeYS+/ly5cb4B88cNC4WLhIFzsTHNGvgyP6qd/jGwFZNyoUsREvFrZWE/FqET2PipQOYgFXFqyRsTNmQNbepPLyIs2cNV1z5s7R5s2btGHdGi1buljTpk3TzFlztHdfqtqIAdnXp4sFBUbEeE/dsnWLFiQt0PIVy22hGW4FLuJ01mnjyoqLS0yExXNs0ZVCrVm9StNmTNPCJUt0KjtbtysqtGnjJiOuostFwuc/i/+Pqqt0OidLEydM0rGjJ9TY2KzG5iYtWbFUu/bs0qUrhbpSUqQ/fvgn7dy9y3ZDWaPbvXOXFsydr/QT6bpz+45mTputzBNZqq9tMG6st4fF+X49eVKvjIxj+sMff6uVq5Zp/fp1WpW8Sikpq3Xz5nVt3Lhe8+bPU0ZGpm04lJQUa/uObdq0aYOJgymrVgnwwoU3qg8AGyBBgBMcQ7LWRr/bWzv1/NlLW+8aHOzXk8Z6ncw8rt9/8FvjbpOSFmrW7DlavHSpiktKVHj5soHaxk2bLI7og/sPjBubM2uW7lZW6lLBRS1fukxpR9JMLKy8W6ndu3dp7ux5qq+tt8ArU6dNNREZJ5PM7fz58+295ubmaNnSZVq5YqXuVN4xEZSPnvW9n/rjT7T/6wHRV4DMAWusPApYYx1HgYzjAMRYoEb3KlBpcCC7dq1Yk76ZqN/9/neaOGmilixZpHN5Z5SSkqIZM2frbN55U4P487ff6tbNm1q8aJG5r2YXb9eunZow4SstWrhIRVeKbA2G6xMmTlRRUbFtKgz0D+jli+e2RnQy/YSmz5ypjz/7zNbQlixeovlz56npSZOBxvMXz9TS2qxz+XlasCBJ+ecuiMV+nDkuXrZYu/bsVEFhgYpKijR7Ln07a2ttqJWcyT2jxQsXK+1Qmm6U39D0KTOUfjxT9XWP9RJxtpcdzj7jyI4dO6z//vf/RR9/8qGmz5iu7dt36MaNm2ppadSePTtt97a45KoBVWlpiXbu3K4tWzaamgprgJs2bTJ/aN9++622bt2qZcuWmciJE0kDsrTjan/aqWeDLwwsEOPrGmp0Iv2ovp480XaJr1+/ocLCK5o+fYb2Hzigk+npSlm9epgjQ80CsXzO7NmquHVbF85f0NLFS3Xo4CETcVGTAcjmzJqr6oc1OnL4iIHYf/mv/5+J+oiRcGR79uxWfv554xp3bN+hxieNoeJuEIE+wZX9eoDkp/5TeAXIxgKn73sdABvZtUT5lX9gNNX71d/bLxagOzpaVF5erGXLlpoPfLbzn7Y0m67VgdQDmjZthi2Ao87ADx9gs2bOMmKyRe62VvP1/+WXX5oolpmRacF+J309ybgM2mdyWSN69mzIdjfx9/9f/9t/04YNG0xMnTNrtu7dvWeqDC+/fWEea8/mndH8+Qt0/ly+ARnBRVYkL9fOPTtUcLlARaVF+uyLT3Xs+DHhvZaF7p3bd2pR0mJlZZ5W5e07mjJ5qu0gomcFkDF2gIzF/szMk/rmm0kmEtfW1FobaOO3tbVo9+4dpopytbRcz4aemVvv7du3GZA1NDy2zQyADE+zKBIDbEuWLDEPtSykA8DpJzPV291vHJmpawz06nFjnTJPpytp4XxdvlxoIAkXO2fOXG3cvNnC7q1es0abN2+29Su838L9sQ53GyDLv6Ali5bo8KHDBmRsvNCvWTNmq+ZRrcU6+PrrSVq0eKH9oSA6Wmpr1bXr10SgZICMzRC+pUA5OEHEPzXx/5raHxcgC4APUbLHODFy06UKgQyibm9/aruWy5cvs7BvDQ0NBjiADlGV1qxZqxkzZto6VEZ6unZs367FixabI0OCgwBK+/fv09eTvtb69RvMv/6Zs2f0/m/ft3Ua4mHmX7igfXv3Kvv0aQMeNhE++ugji0h+YH+q5s+br5TkFJ08cdKiLhVcvKBTWac0Z/YcnT2Tp/b2DtU31GvJssXavWenLl0uUOHli3r/d+/Z5gML9HAjE76aGCx6X7+lqvsPrU+LFi9Wbu4ZNbc8NRUMREsUUjMyTmrmjBlC/KV+lGfRZWM+du3abutK7NhynaAsW7Zs1rp1a1RXX2fcGKDADu3Lly/tHM6HIC2AOxzWqpUpKi0uU1dnYB3Q09tlHFl65gl9/uVn2rBxg3JzcnX06DFNnDjJ5p4Aybt279akSZPsTwWw/OTjj01Mh9PLP5+vBfMWhEDWotu3b1m/pk2Zbju8/MmsW7dWn3z6sW1aIPrCsQJi7DjTZ3T54MjYdSYBsr8mQkqM5ad9n+MGZK7Jb4v8wxr9gfEzqggdnW26d6/SRB0Cd6B7hOkMRA2oEbB3+YoVtrCdvHKlNm7YaIDDWhieWXfu3KHkVclanbJaOTm5tv6Cf37W2zZu2mg7cMSthNDXrlmjlStW2M4eu5t1tbXGabD4vGD+AiUnr7LYmrlncg1E4R5YbG9va1dj4xPt3b9H2TlZKr9+VZcKC/TxJx/ZmtuKlSusfbixSwWFpr/V9KRZW7ds1eLFi3XkSJoeVdfYYj/uvLFiQAdry+YtqrhVYUAW2GX2q6OjTaeyMnTo8CFVVt7V4NAz3bp9WydOnjDdLfrB+iCBhVkPw6SLQL9EdCIIChzQ5k2btTpljXGGT5tb1dHRrlh3pxoa61VQeEGz5wYi37o167R61WpTEmahH6sFgJ/dUHZFWXfjmI0EAqSUXS3Tzp27dC7vnInTVVUPrF+bN242cEKd4sKFfCUtDNYtV6Ws0p69e3TlymVTnKXPcMxwgexWoquWIPyflvB/bfM/rkDm4mWgDOtcGetk2ApigtNkpkl4WUVJEuVN1k342FlEJxIS/vAPHTqkiwUX1QIh9PWLmJfsOsIRFVwo0JMnjbbOhdIlOmFELUK/jOchogOpqcHaWna2+dw37fg+RL16405S96da0FxCykGUAAVeYOlTR2eHKu9UqLr2kWpqH+nSlYsGCJu3brZ+EUvzevkNxTq69OLZS/V29+nRw0dWX0HBReNYAgsFxOl21dbU6Pq163rS8ESdnbj6xpKg3wzJAQgUW5uaWzQ4+MxEMcZK6ox1quphlVk9APpo96PagNoDOnVo1VfcrjCRuPDSZbW2tll7mDu1tT9VbX2NcnKzTQzdvz9VR9OOmVjNRgfzTZ2E0oO7IwweXBbzB/jQ18rKO7ajafp3T5stkDJqF7GOmBm1o5R78+YNi8l54OABwR3DgSKaozuGKRPLBL4ulljsTwDZ2wTTcQUyuDL3IGFG1ma2FGim46cMooCI2ZXkw/aP29fkMJmhg243aUbnZnweAJ57h+A+5dxEhmP/1+fYrQEgIsr4BFIGDtCALfQYwQYB1xB9WMsxwuvt0dDQoJ62tSi/4LymTZ9q8ScJRIJniudDz/Vs8LkG+ofUh0Y9fQwNyKN9BqgZK21QxsdJW1wfZAz03QKxROOABjaQ0SAtPlc+FvppRuL91DFobZhCaqxDsa5O9fRhBRCaZPURf6DHytFPW7cKrQRc9KM+G7utM/ab4TplAVTeG+UAaOxhuc458+Zzb8+bt5HAnIox0z/GzR9EQrs/AWT+7b6NnO8O5gPp5J85Yf3oHFWNaHKXPiFYQWDu5M+5Ix+MAxo59wIgCsAMguE6RAJ4mZjiEZbMDjMwFnfxhXL2fCSKEXV6W1YP3iPMgwTgB6i5m5oRV9wAGiDQ1t6qO/fu6PTpLFXeqTRxjv5YX/oG1N9LCvsQ2l7SBs8bKIbgRnnGEvgnw08ZVg/BmKx/2KLinYOxmp1mYL/oRu7R/lM/iWs2XyGQ0UZ0nt1IPjqfgIv1L3wvzBv3ff58rgKADEzDADFzvxQC8jCQhZz0K8+HftSox+uin/6OfRyJPAFqP/Yb4LsbfyALddD4gP1DhshI7jrGB+Jl/Dw+574Rt3llCEACjgaChOD8XvxzY50DMNwLACNwRmjAE7qF5nrAWWJu02EmTJjiYFOIOIUJjnFgRrTBrqz3I2gzcKgIR2rlwn5jz0iyMsNriIwnADHA4nUE7+AVPy76S/skng/mOADSV8YaAqTXY/MagiLX/Hp8/UEdgeG/t2PjjXvG3wM5ddicjhEzIL6NxHkC2L7vNzAuQGYeYs3oOGac2bBemgNZT8+wb694IIPYIarXDcSIJAQtJxAILyCo0Cuqg8R35K8Qd7TOCJCZOx+4ytCHWdRdjRP9q4QbemU1TidwIGmiNYAVip0OZEEOsQfJ5sNALwBAuLLR5mIsoKEfDjCjPRe95n3n2mhA5vejue02Rv44vC0vQ13DcxHOp9UfcqXR9hPHCcB6W9/AWwcyAzHzPNoZrKfEutQTOlk0DsRErR7z82UOCu3fOnihTgDOSRhwRIBoTNCJ56pCLiB+kiC2+Gt+7m2TD4OjgwKOEt2zbej00ERjd93t63shUNmOLeuBJl6j/EkK1FGiQGY+zIY5y4BroT8jfRn7Qx9rLDzr4OJj8/U+nz+/7uDjdUXP3/TY/jzi5nu4/6MA2fC9uGe8T4l87HeemJux52ZcgIwFYXb7bGH4FSBzD6gBkLnYwwuKfuDDQMZ6TEQc8WMr69xTRHyK1mF1xgGXE+xoHwTPGlGGa1peJr5O+sZCdfw6Itc9Bbu1vk44AmSvgtnImA0k8ZrLWOF2vC8hsUf7HQUY72M0Z3PB1/p8PMFucAiUoVfaaD0/9pj2fezel7+Yt8g6od/zsol8bAJNzM2bzc1bBzIIHG4FEHMgcw4lIFgIKiAqygFOEBqLwXzgzvkAcs6R2fXwGV7sMCGw8xdGLIeQeHY4US4OyHjWyo3B5TknEwDmCKh4e07w0TqcgD1HhDTLBgdYuDbTZvdxB376XxEZ4faM0EMf/iGX5mKc5ZE+ez/8I/e2rZ9xQBbMbWBZwLqbAeUoHndtXuPWyLydsXI2Bbjn82r9iIiQPm92P8o1+/giY/KxJPI3I9zEPL06T28dyNy+MgCyILCFAxlEblyYLWTDsXSa51Q0/W3nME6Eg7ghBucs4l+eg5iJbuHiOGUAU4jKCBBN8giBxtcRgFYIjr5IbkTH88FO4PAuY3juxOv1UqeDCTlzQB7sSoa7jxC8EX2gqmDz4BxYKG77eqGvnwE63REOKtp37wPtDI+XubKdV3Z5A3WHQOUDXTV2a4MALBYJKpwT+wMJwcjH8yY5zwFkw33y+AdxQDb87jzQymvexXBdCYAbmdfEXLzRXIwLkI2AWQBkgagV6JQZ52GqBV3q7e4yAsPFDVr92BeiA2Vb9RE9LiPOyHqLAQeimMdn9IX5kLND9GM3ESIHINEdw1sEyQk34IACrov6nJtBNOOeR18yfanBEb00Bw3qNrCK4/wAI+PKQl0p+uheZ21BPxRdqZe+sHFAHwE5AMaucezcI+AZRpiKEjpgQ/s+VvrFPAFg/X2DYSKSEn8EjA8Hj4GqidUXqqFQj6tdvAmAeRn6Qpvk1Eey/kUAyzlcnnHu0p+3awkifSMijb73xPGrnJjPxzsFMgCOho3T4Z871mmG4pjf4Kq6qanZRMPoh2/EEAYSAWwcPAJAHAEzznnOgWr4uK/XtPkxe2pqajKLAQMjF3WcYzN1hEC8hZtE7IWDgQDR9idhORD0PxCnrI1IABPOSTa5UVtCXz8Lif9p61M1PGmwMVMvYGdzA+CEIAYAsc6IZjweOPyFxedRQIVzJIAJirkkzqmHP4zOjnY1NTXq8eN68yiLN9h23IfHAbGP4btynuPPAiBlDMytqaKE9X3X89wfbSzx1xLnoxNuYl5enZd3D2QmngXE9bS5SbiqOX/+vNnx4WUBbwsQha3lGDcR2mdawNsREc5fpK3T4P46dKuMaZODHceYx2B6g8YvZkt4doDwvIzXYxxZuHZDXdY+NqEdHeZamnpQuKN8lEijwMl16sXuEQL3ss7FUVdtba0KLxfamBk3fcIkChMhyjmnBhcJ4N1/cN/67CDh/fW6vU3ut7W1qztGXIMAyAZMvOxVR3ubqqruKy/vjPLyzur8hXwzqL9566aBPHXR7+i4vuuYZ+gvYIgb64qKCntvNoYQ0N+kjuh4EsevEmdiPt58Pn4yIOuJxVSPN4j0dLP/C9w6ZwpDb8AGooe4Ojs6LQEMnHuCYCBeiIUXDmgBEtgH4iMesMK3PXaDpNzcXAMz3EJjWuT1UC9tURd1+nXqhCsDYLB/BGywaYz2g2Oe4xkAjRwQpg+4c6ZP1OP1AnC42zmAD7CTJ22s6enp1r+qqipTsLXxhGtxtM0YqA/A8Hq8z9F24WjxlFtbXafuLqwEBs3KABWP5qZGc6mNb7O0Y2nKzs1RekaGOWhkXD6PtO11k0eBiHFQjrniHm37vDM/9JE+0Eeuc5+yJK5RF3Pk97wdnz+/Tp5IiTn4vt/AuAEZohJpeH2sa2QRHNEy1tmh6qoq8w2PpwnABRHKDI7PnFH1o2q1Pm019zQPqx6q4XHDMGhAJIACwAW48CzHuPfZtm2bBb+AuPLz87V7924DA58YREwnNoiIZwnoAbfl2vr4GIMoMSoHFJ14KQ+g0DaJMjwL4ECkABfG1nhJzcvLs77TVydi7sO5AF643QH08C1GeQCWthBruU4/KU/btEk95AA07fI87TIu+nX79m3t3bNXZ3Pz9KShaTiKEhsODY/rVVCQr7S0wxbXsiPWqUc11eY549KlS+ZXjTUu5oV5wOMFY/e+0wZtM8fcowzjpzyARD9JXp7r9A0wpzzj4R4fG+PxMfj78/HxHOWiyd9bIk+A2+u+gXcPZKGzw+5YTLWPHun0qSxzEwMxYkienpGunJwcFRcVKz//gnEux44eM66lpKTEiAciLy0ttWtwcFwHCNLS0swFDUCBFwyIdNeuXVYWwkJcc1EQAIM7wtc9deCtoaS0xLxx4D2Da3ln8wxoEP8AIEAT4MrOzh5OlMO9DpwNXBXguXLlSgPQixcvGiD5ZgNETD08AxEDAnBcePcAhOkzLo3oP88CiqRr164ZWJHDWdLn4yeOW841QI0+rV27Tnt271VxUanFCvA1MsLBXb58SYcPH7RoVADZg4cPdfDQQZsbgIZEH6if/uFdhD8D3gvjpj/0i3twk7wjFyfJ8ZEGEANKcNTM4alTp+wZjvFrxodInfgqoy7Gwdh5f4AzYvXrPtbEvQSYjfUNvHMgoyN4eujpCoAsMz3DAodYmLMH93Uy/WRAKNk55meMmImEPmM9CcDgXx6igeAgEDgawACOBC4Ir6kAj9UXipYQDQADETl3RXlcVFMHYIA7HBLOAPFTRlCRa+XXDJwACUAGwCDh0wwihAB5ln7RNuIVwIMLasRZiJf24MiYaLgWwBPXQhA/YwGQETV5ljq4l3U6y8ZEWXyvub8x7gPW+E2jXfyRcQ0QZY7279uv01nZevDgoYWhY92vv7dPLc1NKrpy2dxmnzqVaT7XcKbInDiHRT8YB22RcDDJ3LA2yDgBL/4sGB/zcfDgQVvrg3PjPv3gmPIcU8bnw8V6AJF+Mgbq4znapCxjsN3bhGiZAPMf8A28eyDDZQ1b9QBZ9SMdP3ZMGekZxj2dzz9vUbUhULy2Xi68rI72YKcQUIB4ADEIjYAbcC8AC9wVXBqEg/8yOCPAA44HwqIsfrYgGLgFCA6AOHH8hO7euRvYg3Z3m2iLc0Z80xMHoLmp2VxZA0os0FMvhA+Qwe3BxSAOcQxhAgYAKH2AYBGh4MbgagBwzgGgffv2GbHTB8ACzoXnAAAcKZaVlxnwsYgOgHMdUQ4uCFBmnHCWAJqPCXEP8C0rKw9ArLffxsUaWWtLi4qLrli4Nny4wc0R+xNQol7m0J00MhZAmzFzjY0S+ghwt7YF0Y8YA/OZfyHfOEv+OAArxgA4Mh682zJm3gP36Sd/EoAh4EU7tM05YyIepq+hjfWvm7ie4MjG+gZeATIWt1+XINrvSr425nl0jQz9KtPLGsCNTbdqa6p15PBh7dq5y1xGZ2Wd0q1bN40oABkcHdJxwOBR9SMTawAxuDBAALEEgoMjA8gAKeIm8u/OOsuzZ88swQlBfBCMgyGEdSrzlG0kwLkY4MQ6VVFZYdfZPWWjgWcBjMtXLtvuHEAGgcNR0Qa7prQL8QJkcFn0gT4CXEww4hbjoC6u4xt/3/59SjuaZkBFnZSBuAEEgOXFixeWM14AG86OMQNstPHi5Qs7ZxxXy64aODMegIwYCYODQxYdiujnBCIuKrqiw4cPqeBigXFkaUePGoggDjIW1unoF9wSQEMOKNE+AErbxAlgTgFY+kR/4bIAvrNnz1p/iWXAfLHbit7e8+fPDXgBQ/4MeIZneUfMDXMHeHOP+RzrQ01cT4DY676BV4EM/akxEtrzgNx3ARn3HcSCxf4A/DgmohIfqylPdndbJGu4MYiFf3MIjjYgDDgy1skckAAyOAkABeJhzQtREdCA0OCA4DAgQAiNfjhhQFCcI05CsLQHqMFF4Uceh4U4TiQCOUFQ6BNABniwAUB8ANoFMOHKUlNTrT3u0wZEDpDRPmtfgKVzOwCdiZd9vQZWiIvch6sCfL0OuDa4HwABYAMAADQHMkARAIA7A8gAFO4hhiKicQ0AKi29ap40nj17HnBEfb2mi3bp0kUDMlQu0GErvXrVxFjmhAQ4MwbGx9xG17v4s+AeY2Uu4Y65xrgZL1wV/aYPcG7co07GACDzbgBc3iuAxRoZ9+HWADLeK3UxF6/7WBP3EmA21jfwCpChoDpaGga3NwSyscAOMIMYECHQ1QK8Tmdl2QeOzpRp4Q8NGmCcPXPWwAxAAFyI/pN5KtNERQAFAoCA4MrgYuB0AAfENhatESnv3L1jRA7gQTgQPsF9eRbQAMzgcDiHg7h//54QLVEFgUtBNKVfOTnZRoDUSdqxY4cRtoMnwATIAECIeKx5Aa5wHQ5UABocmYu/jIH64QSZD8o5kAFgvBgAmT7TR8QwOCTa4T6AAqgR6AMgQ1wm7iSBRaqraxQYjwdmRCjVAiBHjhy2uaRd+gnwnTt/zjhJFvP5E2DuAFsSwASw0T5jBIiYR0CLPxCeAcgQHeG4+IOBKwXIGD9zyNxSnr4zHhdDiRbPR8l7Y12QulwEH+tjTVxPANlY38AbARngZmD2I4EMgKMjiJcAGcQE8fKxww0BZCQ4AnSiWPOBCPgHP3/+nO0qwpkATHz4EAtEw7oZIALRAU4QO9fKr5Xbfc4BO9bKAAa4Dcoj5lCeNgBFuBXAjzKABaBLvwABRFOuAWTshLJGRJ08CyFC4IiH9A+iZvcVgGEdDc4DIOM+fecZQIL54AUwJxAxbUDoADzgRg4wACA8y5joJ9d5juMLBReMQ+I+7cL5ELcSsdjbBYwBaHZmAVDao21ACyBDNOU6c8nz1AN4wXnRf3LmmrihrGPCvQHW9JV3yJ8NdTGvnNMv6rJ3F4KYzw8A6X809A+wA5Cpg/ke60NNXE+A2Ou+gZ8GyEIlVrgMiBICcJAjB+jgGgAbwIDwcHzwECT32Kp3ggAEOec5wIB/ff7l4YbgEDiGcAA+gIA6qJvEc9w3ELt50/rS3BLopAFIVmesU7V1tSaOQdSAJZwLRArAFZcUG7hRHyIqz0DMgIP3jRcA0VIGkIaLYewONE7AiJoAHO0AZHBwlOUaz5IDpmxu8CxcGPfpKxxaTXUQ2ASxGGCjXm8XcTL6LPXTDgFMENuZO+qn34jRgCr3+WOhHtrhHu+CPwT+ACjDeLzfjIl6/c8GoGPOaReOk4+NOuk3ZSjLWGjX1C9GMVt63cebuJcAN/8G3imQQYwQFh8wuRMw5yRAwImP+1amJ9AQx6009/05jn0Q/gyDoR6uc83rj54DhCSueXtmWxn6GHObTZ7lvrfJMwALAAkHhogIMVrdod0mZQEEuC9vn/5SxhPn9BHgIfdy3Pey1MM59fh4OGf+SD4uwMpFV57FkSPn9IFzL8ez1k7o/YI6vR9+z8cazRkz54AYYjTcs3GbIRcL+Pg7jfaPY2/D6/e+cN3H5X2wviW4seFvhDlLpO83B+8UyJxA+YD9RXHs59EP2q87IUfv8Sz3o8QSvRa9znE0mReGkLD9mWj79JFz2nOi9nIYccNNQNQQN0QcJUrKc83b9zHE9537PEe93gZlvDzXo32OXqcc96P9i6+f+17Gjy0PPVP4tdHq9WvkzBX9g7OFs2KdCzEQDhbOF8CkLu+rj5/++BgZp9UV9smvk/uz0fvet0T+/Qj5r32+fhIgY9KjBOmE6Lm/FD9/VzmECHGS0yZ5NAFScDyIU3Bn3HuF8CNc3vfps7cXfcYJ3a/5nPn5m+ZvYy7ZuUXMR7yvqKxUXX39MCcWBaHoXNE/bzs+9zmLv544T4DXD/0GfnZAxkDelEjfpBybCp6+q7wT4mjlADES/WPSnICdKP18tGd/yDV/oTz7Y+YkWg91+VyQv0m/eB4R03eUWQcEZLlGvNBo3+Lnz9uOz33O4q8nzhNA9kO/gZ8cyL6r405slPPjN82jROvH8c+6a2y/Ht+f+OucO2hR1og6Ih7b84BPxPh5tL6Pdc2ej3Cso5XzPo2WB154AazQ9bevt1h/IqDujilDrhOQHq0+A53QCSRghrhpoN7Zab7OzGV3BGyj3KWPJT6PBzJvN77cX5yH3nJZx/yLez7OiFjt9ZK/rnz0fb6uXOLezxdof/ZAFv14oh+mH0cJx6+RG3AZkYbBP0bjQLr+0s8/7Zl75rgoP1439/0YAnAgi/bTokXFAVn0vh9HCYg6ue5Eznn0mHve7lj5MIgh4hpB42k2iINgkaxe4U5HQA1gQqT2eqNteZ/M06zp/4UxCRCr6W+YKBd9jrr8WjT3MXkefSZabtTj0FsuDi/NsWYcoDFWq5e++DdgMR1wNz42Edo7tP4He1qyDwAAIABJREFU9Y7adji+xL2x5/GnnJt3D2ThgrP/qyKi8PExCeRGAHFE4B+9E1o0jwJZ/HFwHhBsUO8IGHhZ58jsJYQeWs1rhG8SYBca9fYaWQfzfnn/X3mRESCL+uKnDIBj1yKcnI+JuiCsKEBa3yNARh1e3nPGEwWybgPicFOF9ohmZX1CpCQwchgNKgR4wCx+HN4uYGWeZn0TJBzb8PU3BDGfn+i80cbwu4jbqfWx8ZwBsr0fOELWMYPANf4deRn+hGyc3EfvMfS+20WgGuYtTF7e+mK72OxyB3PDPWs7AV6j/hkxPz+39FaBzIOMkBthsWhusR1HzJTwTU9ADf9HRVzpY60FAu4fUUfwf/ooYfvk+QfuROAfHm1aGaISWRxJuJowapHlAYcSfd7rtDx0aAiQWRroN90wwNbBhXLD7YTg+0odTgQhWLkPf4iLMdnzBiSvfgzeX+7TFmtRDiyeO8H7uMm9bYAoADKAMkjdHosTkOuMyeJo2h9HsO7lGxteR/wOo193wMJrCX1xMDAubVhNJgToSJ/8eZ9vP4/m0TFRN5YO8f0I3BGFajWmjtNuYAbwAFT+ZwTYMcbgmwuAjDJmMmdA1qsudmItqAt/oOEfRgTIAEjj+ML3FwROfvVdRfufOP55zM1PB2R8gD1hcJChQQ0ODVkAEsDMCfe7PhLKkXjGORj38c9HyvME3CCwiRHIwICGBofs391BwNtyYCWnDoAFcIAbA1QMWPpGdLO8bc+9r060Ua7LCB+QRS0BLf+BAVs89z5bHyKij/eF6wRjISgLZaNtWN9C0PM/gGEg6+lVFwlQscjmgQgIED17NqQXGH8/f2YL9t5f6o4ec077xomFHNmz4XfEn0+fOB/oD6I1MUZsaa3NuH/s+Hq9LQcxzg28w00U/tzQs8NW8+XLl3r+/IUGBgaHuTKLpWBiZSAKmkgZRtvqN9dFQfCW6J9hL2ogYeobHFSPcb38UQ3au8XW1ryyhPXy5wqA2ruJGw/9TaSf1xyMO5DxsQ6nYS4FNp61K7yhNppO1sNHD1X16GFgWG4iDBMVAhWAZeLFyOQZkbn4F3IKXAOo+vuJJBQok3Z2dqimploPqh6YDSIBTmKdI/70HUycuCA6/3gNULq7TXcMXSo81rr+F2U8UcdwpKfQ95hxnuFalYFaGKi4o71dNbU1unv3ju7dv6fHDR4HoE/42KfOWFenunq6zPV1U2OTecelX/HEE7Q7otwKQPb09SvWDZD1iUjuPMPc4ciy6UmDqqoeWLtYK6AIbGOFQwnFxWgb1A/4AWaxzk4z8q+rrzN3PrxTDO7x5Pu0JdDSB/S9nz43Vn9I+H7N55o6eBcAEX8czC+WFSg/4y2Yd1b1oEqP6x+rvS0MlBKat3X3EFchEAeNE4O74nvp6lJHa6u5X+ro4D0HUaQ6OtrMqqMV/3D9AwZqcHOo0TQ1N6u5pWXYE4r3j/fP3EXnJHH885yPcQMyY+fjPGFwLfjHZsG4Qw1P6pWRka7du3Zp67at2rxls3LPnlF1TY16wkCzJuKFxBT9qJwoGADgAgHZR9nYZB8vnAJEcbnwkvbv32eG3gcPHtbZvHPDwGAiY8jNGSdHyDnn8kKlVbTlr1y+Ys4fH9x/YJwdH7OXI+dZB0/EuZbmFrXiY59y9C0E4s6ODlVW3NaePbu1efMmbdy4QfgHwwyro71TQwNDxoFBoP2DfRbxCFtLgrIwNgcJ2mfMJpaH1gGIiUG7HQZiBmRsZuCmuq1V9+5U6tCBVG3ZvEmbNm3Urt27VFBwwQDD64mCuo0LEbe/Xy3NzSotKdEuc+F91gzsqx5WmZG6u1viWTeAj86NHzvoRtugbyZSd3UbYOEBA+eWmEIdP35MGzZs0O5du7Vn9x6bg8cNDcbNxkw0B8iCNS2AjO9kkCWKWKdKr1zRxQuXVHnnvgYG4Bp7dfVqkTKzMpR/8aK6e/vVPzio6ppq86l27vx5XbhQoIrKO2pr77A/JUAOsTTg/n6exMv8JVIwB+MCZPggGw3IAtEDJVLMjlpVWXlLc+fO0YQJEzRjxgxNnvyNZs2aqZzcXLV3YOozaP/YAEAXYl6EK0G0wkSHHGLBXAjDZIyV3f7w6tVSrVi2TEkLFmjRosValbJGe/buN9s/1kJYP+ODBQRMVOsORByIC24B4IATOJd3zrzJUr9zZNznOQCGPBBD+tTQ8ERnz+bp5s3baoJTGRw0MAMQiBp1JjdbH3/yoaZM/UbffPO1pkyZrBUrVujBvQcBAA8MBDE1e7v08GHgeQJvHIAU7UQTfWfsXEPTPi/vnK7fuKWnbXB0feqEC+zp0ZOGx8rNztLnn32iiRO+sjmeOm2qFi1eZIb4lOFDiIIMYydR//Vr17RxwwZ9+sknOnTooK4UXzFX2J9/+rnWrFkrvPjy7NDgoL0n+sP8cM0JjbqYY65zzQGOeWtsbLI5275tu0XVOnTkkGbPma1PPvlEySuT9fWkr5WyKkWXCgs1MDSkGLuWgFgPun0dJj7DzT4fHFJPZ4cO7N2rlFVrdCorV8+ev9TgQK+2b9ukLyd8oSUrVqits8veCa6NVibjlnyP9uzdp9On8Vhy14As4C4TYObv7+eev3Ugc0eKowNZAA69fXiVaFb5tVItXb5Uh9OOmOHyvbuV+urLz+2jBQj6+gd1/959+5d+hNgZiSuJsTFeGTDMxmiZYzy3/uZ//8b8W+G9FM7jTx98oGtXy9Xb3af2tpgeVFWbiMG/OVwhoFdxu8K8P2A7iBkSnmERmRBr6moDkRLAQqvfARRDdwzIaRetd4LrEo4tL++8fvvb32vd+o0qvVquzq7uYSBrqK9Tdlampk+fotLSIlU/eqiTJ07o/ffeN2+1GH1jeA2AVd6psPiTWBGQ8GbBPYyu6TO2noi79Ie5wJf+Z599rtVr1unW7buKdQVABtfZ2Nig3JwszZs3Wxfyz5s4j8H7Z599Zm6Q6D9jY4wADXXyx0BbtI1t6ZdffKmFixbq5q0byi84r8WLF+n9936rC/kFBvYAdXt7m+7dvWugSp/g0Lxe5hawxUkAhvuAMGBBmaKiYh1IPai0tKMm7h5OO6Q1a1ablw3WyDIzMrV40WKtW7denQAsi/N93eqKtetpS5Ni/On19uvZ4JC6Ozt0Ii1Ns2bM1rbtu9XbN6BYZ5vmzpmh//gf/70+//Ir1TxuUFNLi44eO6pZM2fqSnGxLl4qVGrqQe3bn6pYjMDRrI8hKie4sp87iNG/cQcyuDAHNTgE+5cHyNqaVFZerGUrlunEyZP2cXe0PVXS/LlKXrlShw4e0fbtu5SUlKQ5c2Zr1apk870FgQEe+MOaO2+u5s2bZ8f4JZs2bZr+xb/4F5o1e5ZFY9qxY7t+8w//oKyMTONohp6/UA+RuAcHVFdfq9zcbC1auEjz5s7T2nVrdfLkCfOkumnjJi1ZvFQbN24ytzZ4PUXswYUP7m7WrVtnKTk5WfPnz9fcuXPNK0T5tWvasnWb/uZv/o0++P2ftGdfqh7V1Gno+XMNDgzoyeM6ZZ/O1KxZ01RWXmqEX3TliiZ8NUEHDxwwUNm0aZOWLF1iojbxC07hqPDUKQMrnBau37DeAqzMnDlTS5YsMU8UeKFYsXKl/vbv/p1+98EfdejwMT1t7VAHO5U4VmxqUF5ejpYuWagrVwrV3NxkroqmTp1q7nnwAIJHD8CQPwXsSTEOxwcZro5WJa/Sf/j3/0G/ff99pabu0/r1a/X+++/pX/+rf6sd23baHwFrfgcOpGpVyiotXrxY27dvN9fWgCRAuHz5ckv4QGOdjQ0YNgwAzvT0DB06cFhXr5aZSH38JGLlenNwKUkZJ9O1JmW1DqQeUAzjeMT5gV41NT7WhfN55hK9qbFZ3754qaG+Pl0vK1PyylXauGmramvrdeduhRYvTtJ77/9vTZo8WeU3buru/fvmIHP+vHmqevhQtbV1ysw8pS1bttp7RgJwjv2XQMh/7X0cVyADxDwBZg5kfSGQXS0v0pJli5V64IC5mC6/WqLZM6dr9uzZWrFylZYsWW7EffjgQW3csF6LFy0y1zH4AoOIAREADTc9+CxLWZ2i//Sf/7M2bdmiouJiXS4sNGBcumiROVwsuXpV7Z2BDhX+zVYlJyt5RbL56Ccox5k8fOCf1oQJE7UoabGOHz9hvufXrVtrbqnxpU/604d/UtLCJKsTYp8yZYq2bd+us+fOKSPjlP7Hf/9fmjs3SblnzqmppdXEIXbFnjyu1+msDE2d9o3yzp3RjRvXdfL4CU2aOFG0v3btGk2fMV3Lli83f2A4kty5c4cA5KbGRgOxbyZ/Y2MnLgBlN27caKDEPLz33vuaM3eBCi+XqKu7z9bmBgb71dT8xDiyiRO/1JrVKeZmm0hPy5YtMzdGGIQDygRNgWOC08RBJYCEgfi+ffv1wQd/0JzZc3ThQr6OHk0zkfjv/8f/Uk7OGRHOD6eNs2fP0tatW0xU5g+I+nDlg+j89ddf2zol64H8GQ2aekmPhaI7cihNJ46dtM2YwWcDAsgWLJivBfMX6HTWaS1KWqh1a9fq4qVL6h0YVDsbFy2NulZeoh3bN2vf3n26VnZdHW0d6ol1qaG+Xlu3bDWx9/LlK+YY0+d2zvz5Op2bq+zcXPGnsXLFCusPmw4YxLMud+niReN+o6LxXztQ/NzH/0ZA1vWGjhWDtSXWl4I1MgexkTwAEQOydjiyIs2bN0fLli/T/tT92rJ5o51/M3myZs2Zp+07d6u9rU293d26cP6cvvn6a3NPzQcIiKWkpAR+yp4+NQLE7TPrKXy8LLqzhlaQf04Lk+br668nadnKlSooLNSDqipt27pNM6bNsEXhWEdMse6Yqh7d1+mcLH31xQQdPnBEj+semxiWnLJS+1P3me8xIqP//oPfa9v2bbarhrhHXfMXLFB6RqYqK+5q+vRZOnE8Q9U19Rp89sIABSBrfPJYmRn/P3vv+Z3Vla35+l/p++n219vdd/T9cMfoPqerq86pU+0Kx2W7qlwOOIANmCwQEgoIBCJIQgShhMhRCAQiSkIJZSEEkkA5Z4lk7LJdffq54zf3XtKWLJEMDrf1YY293/3uvfJ81pxzzTXnac1f8JF2705SWmqqidFwhbW11UramWg6w7Nnc8ysoaK8XKmpKUpO3mP12LZtm+kSAXIGDu6HvnPeWNEDnjqVrdGxB/rm238zxfjX3/zNgCznfLbefe8vWrjwM8HNLV++wsquu1FnjhsBNUARDgquE5fgLChwoUVFxcahHjt6zIj+9u1bVq81q9caJ3OtoMBAbN4H75sOLTUlRRGREQoPD7e6rV+/XjExMea4EoJA3EWsfECft7aYWHnu7Hmxo/zV11/qVNYJLV+5XPM+mKdNGzfp88WLlRAfb4sTHHVv/4AqKsqUmZmqFSuWaG3oWu3PPKiK8ipvI+f+fR0/dlTbtm7RoYMHtWdPsjL27VNySooSEhOVti9DiUlwtnFKT0s3zutvX32poqJCWywIGs0uJhtG7D7/1Il4rn7TRMsJl9YOuALXZ/HZPxOQEUORBJihezA7rccEmyU4bZkWL16ot996Sx99/JFCQlYqJ+esYjdv1uo1a3WtqMQUuf/rf/2bGm7f1qbYWB3wQ7GxcgIoKKzZ5cI5Hx5bly5ZquvXywzIMMX49pu/qbOzTQcPH9CS5cu0aMkSc2UdtylO0RHRGhkatd3Cb779WgPDfcYpbVi/UdfyinRvDOeLvdqyLU77D2aq9HqJ2ECIiFinvLyrE84L2QyIiorWkSNHVVtbpzVrwnQqK1vtHV365tu/mxkEHMjAQJ9Onz6p11//F739pzdNeR6/Pd7cAsE1Ze7PUHxCvCoqqsx2rKKiXOlpqUpN2WuxA+BwABtEwX/7t3+z0HeIbMQeQM+3ccNGZZ3KNl3gN9/8TwMLdj/7B3oEkMEJsoNbXVVtu3SrVq4S4IQ//oT4BCXvSbZ+bGttM5fgiO34X2NHb0PMRgs3x6YDQAaXuC48Um2tHRY45i9/+bP++Z9/pQUL5ltasXKFiZe4/mGscA+Ow0mU/MRl8IxZ7xsnnp6WobPZORodGdPjL7/QyawTpnJAzGttblXuuXPauiVOiYmJ6hsYUkPTHaWk7tV77/5Z//Bf/l/98pe/1AcffKSkHbt1u77B+q4g/6q2b43TurC1WhMaphMns3QlL19Hjx01XR+LZWzsJttY+vu3X+t//v0bXS8tUVLSDpMCADICuMwB2c9jZ3QKR/akCErPGnjElMUTZhf3DcQAMvvedtEe6ksfyKqqShUTE22mCOiK2loJfDGofZmZCglZo5OnssxZIHqSuhs3bLeNSOS4i0bRjSiwbPkyIxS4EnY7P1+yRNfLyifFWD/8HPZa2WfP6I9vvmkAsC58ncJCw9Ta3GYmD3//t28NyK5cvaToqPXKv3ptAsjitm1Wemaaioqvqaziuj5b+KnQm2HrxK4mQXHXR8eYWAlHtmpViLKzz6q7u0ff/v3vBt6YVPT0dik3N0dLly7WqVNeODZ2OVGuj44OKWNfqrZv36aKiuoJIAMwMNXo6em2KEcOyFCCc48+jbrgMXf9+hhln8nRo4dfCiC79+C+Hn/5SP2DPTp/4ayiotcZ1wGY9PX2KSIi0rjJQwcPKT4+Xnt277FNDjzMArCIzABkfl6BoiPXW7xPlP+3btWbCLl2bbjpoE6fztaSJZ8rMnKduRfHIywLC31OCDj0eujMUPgz4eDG0N0BWsRJ2Ls3RYiXfQSCgSM7fVK7du8yJT8GwcwLVAuIti1tHRq/90C9vT0qyL+izZs2GMDlFRSqq7tPI6P3zIC24Va9diUl6K0339BHH8/XudxLarrbrMuXL+ntt9/S22//SVu3bTeX6t/+7Ut99fihCq/lm7h58dJl48jQ4VHXOY7np98HzwxkANTzJE/B/10gwxbsqy+xbRpQdXWZNrNrefSouru69M3XfzPLcxTrW7agSI8y0QS/8oRPi4qOMt0RtlV4K8V3PMTGSo2veYDtg3nzdPDQIZVXVJjIdCY723QeKK8J3jvvww9NgZ6emqaI8HVKSU6xiOIVleW6Xl6ic+fPKiI8Ulcv52tsdNwAJHbzRqVmpOhaUb6KSwv1zrt/UUzMei/yUM45rVi+Ujt37FJ1Va2a77ZoydKlpnwvuHZtIhYBhNvd3WlAtjZsja5fLzWjTaIdcWrAgCwj1fR8lZU1PpBVmAgHEXd1dmr3rl1KSkoyP/4AGZwOIhu7b4iAoaFrbbf0Zt0tCwnHDiw7xH0D3QZkS5ctVnpGmvXdhQsXtWpliHGRmIukpaYpJGS1jh8/YeH5Fi5cZLrC27cblJ9foIiIKHsX41eCwSTvTdaqVatNtKyorNTWbVu1eMkinTmTbTo7554cJ5TUGW6SjQQmnGd6gYjp6cgyM/fbYgCAwhmfyjpp/csmQ2VFpbJOntSm2I3avm2b+voHbTebPuvsaNPZ7NPGiXd29ehvX/9dXzzmlMg3JsZnpqfoF//tH/TOX99T/rViDY+OCS739799Xb/97e+0c+duM4b9+7d/09jooC7knhMbPTW1N8zo1wOxuYPkPwcgnwJkzwNUz/IuXJgTLbnnDNxjgOzxI42PD6mhoU5paSkWSYlJjviFLgmixR4MPRhK6M2bN5k+iDBsKKIJjIEOB50RimREK4JXoLRmJ44dyFNZWco6fVpRkZFKTEiw99DVoF9rbWlRdWWVALPQNaFC8b0vM8NArIBVeedulZWWm5EqomVKarJOZZ9UWWWpCosL9P6897R02RJt2LhBW+K2aOWKVbqYe0kDfYPq6enVlq1bFbYuXEeOHjGzEnboOCrV29eja9fytWNHgmpra4xYMEZFZzQ2PqLs7FPaf2C/6m81mFiDacmpkyd15PAh9fb0mMhDH/CcGJPs1AIQxA/AHATC37wpTjk55zU8PKKxe2N6+MV948gKCq+a7VpkZISJkVvitipu8xaVlxNKrsPsuFavXmPiFrq2kJUhiovbopaWVlVUVGr37j3Kzb1g4jTmIYDntm3brb39A/0WmGTVqpWKjd1oY4XBLUFc2FElUAm7otQREEO9gPkFV8CCeJxpaem2A4vICdcEp7lyxUoTdzfEoOxP0OVLl+wc6Rf+qY3hoUHdvFmnhsZGDY+M6quvvjGQe/zlV3Zg/PLFXH3y8YdaG7ZON25iA/g3tTTfVciqlVq2bLmyTmfbOd9vvvlKTbfrTa8GqPb2DpgE4Z259Os5Z3z6k+ZMf1Agw5UMQPaYoyUPxjQ01KsbN2rUgtvk8XE7CsNxGGd/hC4oPSPdFOtE8EHHAoDiqZTgF4grmAwgxrBqsBsG8RDBiGg/5WVl3qmB5GSl7N1rgIe1P0atlINim/iZcBdYkt+4UWumCXAGABLnFOFqbty8oTvNTWpuvauS0iLBUW1P2GaRu7E6Ly4uMV3bN3/7xjY6UJYTdJaoRSizAbEvv3qs8Xtjam9vM6NPTBA4imPE/BjW/YHuNDWaQrzf5zpQfmOXdfvWLY2OjKixocF0VthoIfagv0KkxK6MgUT3hQnB5ctXzBbu3oNx3X90TyPjQ2rtaFbW6ZPG4QFK+zIy1Xi7UY8ePNK3X3+roaFhFRRcM67rbPZZVVdW69at2xoZGVVXV7dFZsJMAZOEsfFRs+6vqak1rhXxj2hT1dVVdmKAcUHvhojJmDFeqAOcoSxjaAvbo4dmhgGHxwkHODf6jgR3DZeIuHvY4ohWmY0Zc4OxxowH/RUGtXbe8zFOHjkLS1/y/LFxZXBgHoc1bosDR8RYRMoqKtTW0WHlP7w/rrNZWdq/L1P5+YUmlptY+QhzIc/Lxs+BK/nfuY6vDMicaMmEdYnjPnYezlbkcT18hIGpZ7XP5DYPEdgIPfYswpn4GGmOjI4YoLgJzGrOOUFnpGrf+pObnUq+43+u/EavA8jxmwbbgGPs+Miz3MdAkzLs7CHeIdwBZAv+QfQjThk81tDIkIpLCrU6NERnc86I86HUgU0MzlpyUJ02kj8ACFBx5ewkOjJAgFWe+rs2kLcZXZqVvrejx5Em3PDQh65fuD70f6NTC1rKc0+i7Hv37ttpCI6CcV7z/sN7Gn8wprH7oxoaGfTOG/pnEakvR6uoO8TPt+Nj42Z8C8DxjMR7cFLj5rMMDsXjUhxocEQLrpI2AWjBcaHeLhn4+Fb9rv58Rx9VVFYYmBUVFtl48f/oyGRetN1xSBPHhjj6Rb/788U7IO/5X7PD7uYEEv0sJyA4M/rYP7PrHajnoDtzs62lWadPndK1vGsaHMA05FtvZ9Xa6XnD+N8ZJH4ObX8lQOaBmIs4PjVCuXdeEsK7Z0dM0B1NV6h6OhQP0FiBSe48IJ0KR+We0wDe5zlXQJBnJFZV3nO/LR/fPTPv8y55oW8xLs0/hG737gwm3jgewyV+pXv3x9XY1CAsz2/U1XqiIRzBV3/zjigZR+AH3sA9kXnLAHSJSO4RImDm2uwAzQD8IbpD8vK2/AEzOA5XR1dfB/IQumsvV37becOvvPbaM3yOPbxn6cGj+6aToq3s5rIjR70dAEPo/A7+Zx4nADvOMX7lOCGvHV4/+98D/H6/TxkX39cc/7l6u3HiasBjZ1sf2e4wnFlra5txtV490Hd5nlEYE+YOPsYeWV/inumxHZJ3O4ssTLwTXIjoU+aBARv1fOR5FHHzgzEYgvNtbFJ3Z4++eASH97V9A5cMRzYBnHPipccE/AT7gfGE+0cie82tnN/nOhXEPBGC/CA0rpNAxrPn1z9AoEYEL7kzmfwuQRAm8vmOFo1AsHt6cF9Dw4NqbWtRX3+vcR9wR6z0ttob+Pi+1swzqeed1nFdfD+RprXdlU3bvLK/C/DT202fujT9Pwdk2GpZmYhIgTKtPOO04LbggB3n5f32uDD/3u8bVzern6kIvHZ7nI7nDWR6PWb7TfnBPjOwsP6eLHOyPPrE7xdAzAHZI94F4JgTHJD3gMyNh7tO+c+1xfdTRz+59wD1x489DhUOnDPBc0AGZ/7TTz8AkHmihQMy1ykQgyMI9+zHujoQcddg3ZjoDjy9+j407gziACB4Bsdm7/lOC/nPQCMAZvyeADEf0Fz7XbkeQfpA6BPak/rEgRjX77znf29tAcBcMoL3uBYTt3yR+HsDWaCfvlOXGQiBtjoAcbuDXCcA1MDJ7wsDsUkgoy2U4QGwp4awcTBwncyX/L2xC4Ccz5XBoU0mHzyNw/PuJ+rkA+SztGnunR8P8H5wIDPiY2IiDnFu7glcxYwEOgNRPO8EmgIA5nhwkssLgst38vU9yJoi2Nex8b4TET0C84gmCGYTIOLAZDpn5BMt5XnAA2fh6XpcXb9TF96doe/se3830IjR18tN1OF7AlmwHoCEgUWg/sH/n3TvgMyAJsAd8dwl9721c2LcHSj5ZfsONN277lvv6vlim3wGodG3D/UlGwV+HyOaOs+xnvdY9513BfCCnldcWXPXHw+4pvf9DwZkRuxOxJwByKZXjN+OUGf6zz17lnfcu+7qvuE6oSB2IGITfSox2fs+B/k0oIBQXHLgMSOoBQCFOlAGfTSlTs5V9QyA5XEa3+2jmernNhn4jz7gW+N8JsS7SY5kgiMKiJ0OCFz/uauXj7cIWB/NxBlOANDUSW95+lycy8e1yeXvrq5fXNtMDxYQCafUz9x8M66T4+A2Lbz8JoGMHXTzh4bawJK3QfKAOWDg5enxAGvGiO89HdzUtrh6zl1/vH556UCGHmyqnsxX9pto5REq+g6cDlqaYfI7onDX2SaI+99d3XuePmWyUz29HNyO92zifSanSzMAGSs1E9oAKQBkHmF5bmgePQYYABRPfJsAsS88QuK5AzInWrr8Jurrg5jTTTqioZ6Uxc7aBDH7/RUket5zeU1cJ0RTb7fUNhh8AkV5b0r+gF6xLl34AAAgAElEQVTsiaKl7fZNcq2UQfnBOkyUOwtwTf/ffT/9OuU961cf4AFhv5+D5Xvio9NReoBjzjt9IGPsbdx93Sp9T18AYhZZisUVrvoLL9m9L7oayGEy5ICMPF16xnZOac/cN9+dpy+pT14JkHkE6ZwrBoBsQknriVBGnD5xuV0tBzLkMSOBBhru3g1emThmegAXw7u+n3wIxgEcefPcJrnP7cw44dDZ+IEpDKCc3glw4dgVCvQAYJnOzAGXe247Xx7IBf+fyA9C8+vgzFTcb648wyxkJiCbCUjgTjxQ4grAeY4sv/oKruuR7cbhEhujUcfJ2DeI2L5XXk/p7YGd3Qc2M2YDnuDzYF8Gnz/rPd/zrjeWnqmK2+2lD2kX/wMwrq7OQ6/X/slFjDzox2B+7ICaKYvvVoq+hQtzorhxfv7mlIGiE0EBMebORCi8qeAebPfc/dQxeNX98cqAzDtA7nETxlH49mQTk8XnYNA3UQm27Qk4wSRz6WmNDxI879rkxseVAYDnVhv9xt++dOYYXrQm6sZq7MBsejnk60CW3StvB4uB8bgsQAyCMiBzwOUr8x0HZkBnAOT5BONbR4QuTzP7+Mpz000dgu2hfLfbCZg6IJtopx+ngN8O9B134sRDr74QvgdmXxNExVyDe0BmgOe7icao9HmAzJXL1Y0X/f9Skx/hnHZ4doHjNgaYZHzzzTfieBdmJICYA2OvDyYBxsbSdxbp7O9cf7m+ZO5x7/rftQmOHFs5wJI5BcChX8MbywQn74v/fDOXfrw+eGVAxmQhOS7DCN9WUy88G0aVGIpiQIm1PdbquMRhMsGduRX0SZPDTTyuvOeAzHFeAAAW3ljFczymf2BAo7jHJvgInlv9Xa7pZUzk66/SGMuOjGBQ69mDOYAxETEIZHBffkAMa68dlvcMXifA7/49DY8O2wkC2k3e9JOrf7DdGIoODXseYqcTX7CPXPtnAzJs9u7dwzB40Px/9fX3a3BoWOPj9zwdoSnMIX5Pd+a4nInrDBwZ9XXAgAEsBsf8DrbjRUBt+veAB3OEPrM0jHGz1ycYzOIyinoaCJuBr283FghIQ57OOBoD6WBf8p/rf/oUUIYo6FO8246NjZv3Es+ub1JHxtxxHC15zKUftw9+MCBzgGarGorVR/c1PDKkupt1Kr1eap5IcZDIURYs8Z91YjiCZuJBSJ4lPXoPb/J2dnSoqrLSnC9yuLnpTpNF/UG0sMnoizDfKc+3IWOSWzSf1hb19/cZR+A4KxMrAxb7cA5waaOj3jlHa/ND3Bdx0mBc4+Nj6uzuVGlZqXA1TeJ8KEd5IDDa4nFMHlcKOPAfR5EcaFBPA2zfyNREX7Nxe2BW+ZwymM6RjY0Nq72jVSUlRSouKTY3R5yxxD/9yNCIgRmcx/NwZNSBsQQgOOpFHVmMGIcXATD3jRsHlz9Az5hxiqK9s11VNVXmxZe5whlQDrVzrtQ4J9/cYqa8qKe5Nb992xY1+pOxxSMHTghoAycxkBD4j2NSdrTqzh214gr8nhdxCg4/CGIzibKuDXPXHw7cXimQOfDyrli4+3ZXHB15eE9dPZ3mLYFzdng4xduq+da6fXuCcJlUTEK3ajJJmSD85j+In8TqiWVv05075oJlbHzcojFx0Ph0Vpadfbxw8aKBB+537MgL4oKfD/k5ziY4Acn3Zv1NixtACDXHhXH8xxKW3z6Y8R/cwp07TeY1Y3R81I7zAHwkjjjV1tUqLT1VR44c1rHjx+zwNS6IcEtE+QyIAzO4SAKe4EGCtvK/S9Yfvs6L+uJf/87du3ZGFC4FAvPE3Pvm6rqi4rpSU/faQXYcN548eUrnzp23oCcPCMbh65vgyiaOHvmbAsbpEScz0FeoCCB6ABjX49QRF9m8M32MqHMQXPg9JS8fnN13/E/+LEqcVS0sKjT3QPX1N3Xs2FHzKYZzyaxTWebFt4HoR6NjpjML5k2fufrYON68KdyFE++AertnuC6/dPmShenjfbzk4k2FcSksKrLk2sZGiePE5kDshwOqIE3OdP/KgMyiPQdES3YycXWNroFdIwJ/tLQ1m4tnOBMImcmCpwS8ObB6MhF5xj1EzSRFn8GERwzlOd/BufAebpn37dtnnjDgouA+Mvfts8PWiD+suN3+wXNETlZW8uFb8ndnBJnkcBc8gzt0ZybhqEbGRiwBUv2D/erq6bLfKKP5H9/1gBSh1jgBADcGpwb3xrf48sJVNFxGd0+3KqsqzZMHXAFgBCFRD8qmXY7geO7EI+rGQXnep094jkeM48eOmxPEvn68N3g6NoKs4LO/pKTQQABQHh4Z0d27zebCuqSkVIODQ/raggB/aff4SONZULTkHCceSuhv6gYIUDaJOlJnJhiLClf+530LNjI8PMFh8x7tIo9gXnwTBDvGnv85eE8fEXyGBQIg4zd5Exzm6NFjyr+abwBOIGNEQ1e+q6OrE1wjTgactxDGFndQeLJlIYULo1w4MQAPbhlvK7zPPTFG0ccZ9/oCtnPUay69mj54ZUBG8AbTExmYoQ+bCmQPALLWu+YRtryi3AgBosCrBashvt2ZZLm5uTb58CeGqx6IBuBhYvEf7+IhlvfxT4Zbn5xz5+wQMis5bpdra2osf3brAFIIZnhoyLzOki8rr3M5Q6Qf/KHhbZYrqzcHmhubGtXd3aWOrg7zDouHWNKlSxd14WKu7jTfMc8WJSXF5uX1wIH9KiouVHdPl20WoOBH5ATICHKCqARAEqQXdzy01flZy8vLM1/3lE3CwwUEBljhcZU64+aIK88ANe53Ju3U4cNHZF4pLOIUbX2g/v4elZYW68SJ48Y9EZSkta3dQKCivFKDA0PG0VRX1xgQXrl0RQV5BWpubjE9Gp5AysvLra/pF/oLV0pwYgASAEE9AVhA1XOPXWR9eO78OYsdyTPaAFjQr47jgQOHmwOU3SIFsbPAAPa0kysBU5pb7lpsgJraGgPDzo5OHTt23Fyb4ykEIGNCUw7j6NQUPPv6m68t6Al9S5mAJAmQSkhMsDGgLwE3xFa8d9Au9Ks1VdUqyM+3/uAwvx1UnwOynxQovxIgQ5ScBDLMLyaBzFazx3gdGFdr610L0EuQEMd5AWRMNCY6k7ioqMgShMoqiS4DEON/Jhtc2O2G20ZIEBleU/MLCkzEvN3QYOHWLuTmGtAR+Bfxlt3KpsZGXb18xcCQPHAZBDECloi41IPnAFjuhVwLQoKYQ6Tu/fszDYzw8Y6DxOMnjyuvIM+CieDKBh/7p09nqaa22ggQjswBWV19nTkO5IA0EccpF24AYsZ1TdbpLGs3REWgE8LaAbJwF4AHfr1oN0E9AG6ADYKjrhnpGcrOPmO6L09X9khfWhSlPnPjTL0hXNzalJVVmMPEluZWi8VZX39LiJx5efmWcs/l2pVD3LU1tbaYUA8AjfLpIwgerphFBIBgDOFgHFBRRwCaceQZ/9NeEwuzskwvyj0LEm1gMjquDIBkLBjnzs4OwQHfbb5jkZouXrpoZRI4mRBy6Mnw2gE3Boih96JsygTQ6DucDsAJ0s8sHIAc84ayiVZ14uQJaxvvE/CEsUC/CteOmylUFLh3GsfTCb782eW0XexXw2HMcW7P168vHcicXmwmILv/AFEEEeKR7t0fU1sbPrJOGVBAIEw8WH+I1REpkw+xCnYfsdMRPKAGYSFisHoz8dEnmbfUu3eN82LLHl9exI4ELC5fuWJ6pMGBAZUUF5vujG+Y/HCDEADEc/DgQSMyfiMKQYiIv6b0b2nWvn0ZKihAnOm2kG5wZiezTqqsokyt7a0mOqKUhosAwBA5EafZ+cTn2aHDBw2gioqLBFGiw8NPft6Vq9ZuvNuy9Q8nAkBAVBAjQE2/wLnRJ447og2ABABDsFx2I821DXEjv/pSI8NDBmREOCI6Ei7EcSqIvzG84OJYET9mREsqu16m2tobyruSp1OnsixCEjEJAHa3CcMYEMWJRQYgA9Dg0hAjGUP6CyChX0m0k8AwN+puGFgQHo6xg4PjPULEMf6OeBEFaY8DSJxboi9rvNOo/Qcyzd2PN0dOm46sqemOtRnxl/owhiyGvEM4O7hB5gh9CNAyj8ibelNXxoSI9/RzeVm5xTGgPnCJKPf7eokLesl8slkkcsTLAJA5nZmr/9z1+UDoZfTXqwOyCT9kHjcGiDkgQ180fm9Ure3NOnzkkDlOxPMp4MQkhCiYiIAXAIN9GUTCM8RFODImHUTpCAiigIs5fuK4Gpua7DtsjYgnCXDBsbDqomCH02GFzT1/XjjaoyMRaxCLEJeoB3kx8QEywAYgQwyEI8MJIyIiojOgzM4r4dxw4mfeU0+esCAlAwN4REVMGp64EoWJABc4jGSTA4eREBocBeAKB4LS/utvvrFoTxA8yQChqMi4MnYyqS/cGBwFwAYBA2SIh/QzYjScIACK2UV5+XXjZgAagrPAyQBY7Pg1NjQqPT1DSUk7hf9+dG0EJbl44aIKrxXqyuUrBlB4paVP4VoAWLgtxgUwgmOGWyZ+APcABuNGPfESyzP6kHQ176otOvQ7Pv0ZV0AFcOYZnBVABpgARJipAGToH9GRwaUyTnBIbFicP59rCwGBlckHoEKBjwv0zMxMA1HHmbHgOT0ZfU3/w/ERHpC+PH/uvPbvP2CxCiyCF2Lu8LCNC3FLAbIvMKidA7KJhedlANH3zWMKkKGgf1Jioj1LmuDK2An0uTALEedHUcJXOxwZ4dfgyFDoQszsJmIzxORF5GDVpIEQBMQLNwLRsHsIt4TuCM4Ab7AosRENTWnb3GxA5sQUGonzRHRpKSkppu9gMuecPWtcAf9/++23BhYQCNyHAzI4QkRLB2R3m+8aMQGG6LjYXcN8BCAj/7b2NttV435gcMCABCLkPeoAV0IAFfRueFzFtg1xFw4WIAOYATKACH0Supn8vDwDVQAN8RKdGHXmHo4CIOMZAFxTXePbVj020QeOECArLS0xEK+/VW+7u/Qj7xPJveF2g04cP2HRpQC1/r5+C6uGcps+pQwSnBJAhhgI0cOROcABqKgD/QqgwiUS6env//PvxkXTLhYgFhTqzf8sUoAcHBqgyG8SbYPTBsgAG8DH07012WLE2LDAwDHRJ9SdejM3eZcx5DvqzBxhrrAokTdcJQsAsTBZPFkYsQ/EayxzLjUl1ThR2mIW/w8fWBCVSxcv2iKLHSJA9n0Jb+77l8u1MWcm/JE9CcTcLuSzAFnwHdvKf8DhXEwmfMNVB2TtzTpzNtuidDMxsXQnMcmZhASohWggaAiPlZtJDKixwkIEABl6Hzg5iC4jI8PiT8IdwBXwnPfRicCNsKuJaAQBQHQQEOCE4pfJS9mUwxXiYeJDFKz01IN3WeV5RnkQDQALh2j5dHcZYFAn47TujRtBwGXQRggLwqX+ANiXfyPi9pd6cO++BUmB4O82N9szB2SInHwLAcIJ0TY4He4BDYAMQEFE4xlcEvobErohgKy4uMjqRX8yPrzjRDy+L8gvsN/0Df3W2tJqeXJPnvQzfU/Z9CO/uVIu4ASQ0YfcUyfaT3/yPsBFIi82dugr8gJY0JnRf/SvAzKvzkM2vhaZvKvLLPvpM7gtAJR2kIcBZ845608WLgCCvmJuAJwAG30PCJMANMokyAiutHkHV+RsvtCm7du2i8AsLKrUA5BDT0r7kBAYM/KZA6KXC0Tftz+nARkBQmZOEJrTeTzrFZ3Fw/sP9fD+I0v2m1X30QMTLTu62G27ZKIekw/jTiYJqzHcGBPc6YEgcAgZYmECQ0T8B+AxGR1Yod/CJgiOhzwgBCahKXWzs43jgfgACUeg5A2gAXoAE/kCfAAZuhVAz5XBd4Al8REpG0BD8Q3hIN5aII4LF4yrg6OAG4BAISZ2XB23ADdmRpaP4ZweiZgFBOSlLAwwATe4O8LklRITYHjYwByCB4QYOOoMKACOnACgjXBZgBFcIByFiZbDQ2aywMKA3o0+pm18yzcsEtQLYON72g/wIPYxFuQPYNBexoBxcXpEVkGAgXrzLnXjnsWAfqcMrryDcSt5AkSUxzxiLCmPOgOw9BWABODQ15QFgLCgAIxOf8qYkeCiGBvXz3xPPrwLcMJROyKh3YA7z+HIEKEBRBZPuGfqAbiVXS+3ccdOjvGEG0ecZY6RF/VzoDt3nbRt/DH7wqkjmJ+vzQZiPH8ZQOaJmTT8gQiMMTg8YLZBTH6InEniuDkABI4G1p9JBFCwuvI/+iAmL5UOPgcM4aTgMLgy8SAaRE8IE2AjDzfZATSIGOCDk2DFhyAo170HsUEUvMt/vAPBIw5fK7w2QZSUTf1pB1wIZQGMAK8jJMADcQhCIn+MdgExCAZ9FiHx2hA3Bwf16PFjI6buzi51tLUb8NBPJPoGYnIcDwBKHhA+4EmfAGS0E+KlzwAZNisABJ7xPW2CkKkv9aa/+B4goj/In/bzPe/yjAT4sUDwLuDU29drhqvkzfv0EwDF+ND/LAqI1YAI+ZAv7eddq1dzs/UT5dBX1Jv6kR+hABk7xoS+I1/qB0AC5AAidX8SEbk2IN6TiEXa1NhkY0lfEl8TfSdjdafprpmjkB9qDmcCwljSzxCMq+OTypz774cFuClA9gAL+lnS/XEvmAfE+DwJMwCXHEcGp2DHdh54x3YgOjfZuJIoAyJhMtl1dNRWaSY7icnLROfK6s37fGfv+ztU9tsPXsKEJfGu6T58A1Py5jn5uHaxitt77ryoXyfKgztABEFHhviBnoxyXL3IA1AjuTzdf+7qykFMwTSF55iE3L93zzYfxugP3/OF7f76JiPuFIL7nrJJ/DYQHR8zwKBsCMmVx9X1EfeOyIJ1nchzbMz6gz6xZ/fvme4BrgwDY0RGuC3ADEBi7HiPenjj6vWFy9vl4+rDTjJ1cfVx12AfWn/4AVwAX8DQuM6hISuL8SGRN+PNt7Ml8nL/ubYzDwEzNljs2SOMjb068YxdXxZdABqdonHW/X3eOPlnTPluLv10+oDFmYXIOLLZQIznLwxkflQfDmqTbEIH3D671Y1J4SYcVzdJqCCJ99wzVmv3jHv3LVdWfd4lufdmysPe9Vd+uBmXnyM4Vxa/yYd8AQiIF/HOuJUH9yeCorjvXBtcHRxxuzbxnmuLe5crQEYysPLt7vjWnjsuxW8X7wMUVkffz5trD/WcXpdg2e6/ifcDx4Vcn9Fe7nmXb+ECTY/mG+MyWQAWB5j2rq+T432+c31OXi4/yuRdEveuXsH/ee7qRvsBKzhYJikLg8uP/LmnvS4v8gsml9f0KyDlvFdYf/gLq/U3R7E4gfKA42beiRHKpr+DfTc9z7nfPy6oMR9eKZAxAYKJAZ+YPHYGcbID3MR2k/GnMDmoK4k6wT1AvIhOXF1bpk9wV//nuQJg5Oe+cW13v1/WNZivu3fluuv0smgvIhx6LhLAAsDQbhPXfNALfh/M2/Xh9CvvuGfu2+CV/4L5PMs9dX+W96a8A5D5c9HUHw+ev9wp+c1xa88/Bt+zz6YA2f3xcc2W7hnL7bPfvmjgRITnuQYn2nSC4XcQ9Gb6/8d6Rr2cGDSdwKbXKdiGZ72fqe3P+u3zvOfqyjfu3pXtrtPzo73oINhgIMHBOk5oOgFPz5c8p7/jfgf/494llwfvuWfPenXfBt+f6Vnw/xcpJ/j93P3k2P1YfQF3ju4cfeprs4EYz38oIPuxOuJ5yp1OGPz+OaaZ2jxTOyB0J2pOcFBs2PjtdvnMAcKPT9BuLP53u04BsnsovGdJ46NjpqNAT/F9EpPfdbIjhJ/DdSau09V7pv9+Ds9c/YPXZ6m3e9+9634zru5++tW9+7Tr9O/mfv88F8kfetxYaNHlYlL12mwgxvPvC2TolNxuk7uyC+juf+pX6hpMwfoGn/+c7oNtcPcz1R+zA5em/+++e9J1+jdP+v2kfH6s/55U35/Kfz9W37xoudP77UXzcd8hKfwgQIZyGNshdhaQZUkU7O7nrl6fzPXDT6sfmKM/l/RzmTuz9efz1h8sIWGbCAdIvsaRjWOrNUsaG/Fso+CsXjSBnhg1AmhcXeL3XJrrg5/qHGDX9ueQfqr996rq5fADaQG1BkCGofRrs4EYz18GkKFbAwTNkPF7AOKLAuncdy++CM313Vzf/VTmwHT8AFecaPmDANlsil7Ywtn+e1nPnfLxafk9T11cns/zzdPKf97/Z6vDj1mn523DT/39YB/P3f+4mw/BueLGAm7slQOZ48JA85l2O4MVm/7/bN9Mf+9pv5+nDN6dKT+3Grn/gnnO9o1791Vdn1SHH6tOr6qtP2a+0/v5/6+/Z1v8Znv+ov3gAOhF82UuBMsmnylANsaZw1nS6LB3JhG27kWSAwLHFrqKBCcoz4LgxbvB/4P/BZ8/y70rn3cpx33Dc1cnnk0vg9+uXu69meru8gvm4d5z37s6BK/B717mPWW6ukxvkysn+Dx47/6fu34/U6OfW/8F5wx1d79dO5gj05+5/2a7uvf5NpiC77+MuYcNI8cGTbScDcR4/n2BzIFAsAHcBw+E3xv3Dly7g9zB/1yHTP/+mX/7HUk+5OsOW3PomTxcJ7v8eA/XOq5c19nukLR77t6ffnX5ue/c/7M9d/8/63W28nk+/b+ZngXLcXUKPnve++ntfN7v597/6YAmYwm9Bmn2aXNotvFzczE4x6bfz/bt8zyfAmSjw8OaLY0MeR4HnN3Gi1xdx7iGcAVQAAcaTORokgGZDzbBd1/kHnfFJJcnrq0p0yXX0d7vcXtOObwHkBmY+auTscI+8LlOnq1ONhHw3jFtFeN3cJLM9v1Tn9MOv23Uxc4KPvTPsQZCx7l6cp0pT/d8prGZ6f2Znr2U9kxbsWcqZ+7ZVK7mZfeHmwPMCSf+OeN1o88XGCM3v1ye7vSHy48y3Tvfpz3UE3dUeGd5bTYQ4/nLADIHVFQYP/YEs+WKKxbcqgwNDXtg5gMPPqxepHEj9j3g5QHSBMEbsIx4wOavOK4T3TeU597HmeHQ4KDVgQ534M03BoDjk+AQnASuzg4s3beU4bXdX+3gdJ9xcrh6Eoh2Io2RH3l47mzwbc9WNPWkflbHWQDMyrXvR831D98wBs9an+B7tM+1P/ic+8l6v1oinF7u3O9n7283RsExZD4wlzBcDc7b7zOm5M8cJe8nzZkXGbspQDZCpWdJxIGEsKnEiyaAzPMDhZX/oHp7u3TtWoEF7fCM2u5rZHhEnV1dun2bCNtVZmtGRz8LkbmBoOOHfc4HIgcsxw0sR9Xb26Pqyirz8T40OGScDAN282a9Be4ghiO+qXAPTbCR0pJS3Wm6o6JCLywdzgdZraiTK4+Od/dwcpQ5RnnjY+rv7zOvqLdu37YgstQNb66AODETn3XQ8JPl9QEiCLrEMd/32rDF08Q5ZGpaqnbt3mUxAcwj6/CI+dyiTx04B8ujXwimQmi6Zjxa2HuTnF7w3eC942658vxJk9IRSfD7uftnB5kfoq+MvnzJCH9xzIezZ85qb/Jepaelq7iYANrdGhu/Z8Gdg+PPnAwmmw/+vCBf5i0qI5x+MkeJmUGsBNxCYQeGTz43f7z55M3V5233FCAbBi1nTEMW0BYwe3Ia1jAiaCBNOYrgg+Do2LCGhgjselPLly/RokULdeDgASPOe/fumzM74kKm7E32nPfheSNwRpNKO9YXVhXRFK6OxttvOgfHi3B04yPmiXZkBCAeUltLq+K3xutg5kGLlINn1oaG29oSt0WrQ0JVUFBo+bS0NuvMmWxt3x6viopKi/HIyXq8nVI+5bjEOS/A3VavETgbXNw80KMvHqq59a5SM9J09PgJ1dXfFsFx6UMcSxIzkW/Jj7oz8K5d5GcTAaU9oDU8YhMCJ5X00YgtCgTg6Fd5eZnWrg1VaOgaRUVHacPGDYqKirJoSQN9A3pw74E5zMS3GWXiuQLnjcOjQzp3/qwy92cqLz/fANKcXz7gPc+PGBPNyh/xHBhSP3NeOYrjxXHzpc8CRX3duNhk9h0zuvuJyfqCm0Vz33tc78vqB6LNuwSAsPAODQ/qwoVcxW/frvXR67UjIUlbt27XseMnVFNbp5Gxexr1HZ6yGDPfWVCZjzij5B46Nb0z6htUHvfui+hWxUXF2peRofj47Qpbu1Zbt2612AhE8bJF2SQeb4E3Ke055wnzEiYDt+qvzQxiDtyeBmL8PxXE+D0FyDivCCcyOqSBgW7duFGhjz58X7/+9T9pxYoVFp6MKDVEkt6Xka6Y9dHmjpiOojNwX41r6pv1N+1oAnkjF2N1Tb5wVvjC7+3v1+DwsHoH+nWnuUmd3e0aHOw3IOvt7lF0RLTiYuMsqjb+tAoLr+njjz7R6//jdzq4/5D5aa+qqlBy8m6FhYWruqpGZWXltoqwM0J5HI1glcHBIF5j+U194LR6e7pVf7NOVTWVunA5VxHro7RzT7Kqa26Yt9y+nl7dqr+p6qoqC2BCG/gW//cc02ClQiykHKyVu7u6DcgG+weMq+vt7fOAzOf4rhUWaMGnC5SwI8GiDBEcZf78+RZ1vOVuix49eKSRwSE13m6wYLvGHfb1GpAdPHJAcVvjlH3mjK2OrJ6d7R32XmVFpeqJmdnTY+V1tHdYBCvEAyZbR0e7/cZyG+62u7vH6so4OBB+WYQ3l8/LAzIHYKhuSIxlX3+vbtyoUezGDdoQE6PMfZlGH5cuX9G1whLVNzRpeHRcw/5mGfSGtIG00tnJ3B/WyOiY2oiV0NaqvoF+W+QAsqGBQdVUV+vK5cvKu3pVqSkpWhe+zsIPdnX1eCA4xmI4FciQWJ513KcA2dDggJ6cBjU8ODRjYiJbmna42gHZ4NCQBvz/hkcG1dvXrorKYkVErNVf//oXffLJJ0pNTVNXZ5cBWXp6miKjIi1c2QAdUVOr/fv3a+u2rRb8gzNVgAi+4/HfD8ETz5Igs8UlpWpua1MTwSuys1EvPTwAACAASURBVHSjrlY9vV0aHRky7x57du/Rpo2blHUqy7iKkydPaN68D/WH37+hbVu3q6XlrnIvnNOWrXHatGmzRbImFmR1VfVEKDWCccAip6amavfu3eY/vqu7S9093SYu703eo4TE7dq8JVaLlizSjl27VXujzvqooqxcGamp2pGQIOpyOuu0gSL+8FFW0h64PdjvcznnLLYki8KNmloVFxaruqZWwyOjtvIxmYh4vnTFMp2/mGvRgAjwu3TZMqXsTdHNuptWZm1VtQ4fOKidO3cpY1+mioqL1dvfo0NHDmjrtjidzTlr4NN8t1k5Z3OUmJCorVu2WvRyxOu2tnZdvnTZYlI2N981EZ1gJiT86ANy+fkFKiku8bjo8fEJLtUD+BdXSbyoKmPuu5n7fAj9Fws/XJUPHo0Nt3Vwf6aWLF6ko0eOGjh98cVjPfrisYZHxtQH3Y+MaghwQV0zOmILGfOGUHlEeweUss/m6JIfCBuPuzibQL9OsGqACsbhVn29tmzZopiYDWpqumuSAKoPAzIWSQdo6NKeUZXFwo/DTwLIvPZkEAPkXhzIjFsbHvG4lpFBdfe0qrjkquK2xGrLljht27ZNny741CI9Q9AEsF0bttZ0WQSJJXxXZGSkBV4NDw9XbGysBehduHChXeEeCOP1i//2C8VujlNBYZGKS69r9eo1FmC2q7NT47DQo8M6fy7Hytyze7dxT7t27lTomlAtW7ZcISGrLfJ0ZuY+rV8frf2Z+y2YR9LOndq7d6/d79q1S++9954++ugjq9Pbb79trDKRnYhUvXDhIoWEhCgycp2WrViif/hv/1UbYjepoqJG1dU3FL42XGtC1igmOsZWpoWfLdTJEyct/9hNsQaMrEQAJGWEh4Wrp6tbhw8e1u7de3T5Sp4F4WWncqC/T9eu5euTBZ8oee9enc05p4MHD+uzzxbaBOtoa1VNdZW2xsVpy+Y4xW6M1bp1EYqIjFTNjVpl7t+n+IRtysk5o76+Hu3LzFTImjVavSbUQqMt+XyJNm+Os4jeCfEJNgEJukJQ4g8//lAffPC+RTKqram1vImuBOeMSAlnOQdiM4PJjwmyJr2YaIgyf0AjQwO6XlKk1StXKiZ6vcrLK3TvwUMDMEDMiX+oDvBkbG7MCX7T1qqtWzYpLHS1Dh44oLy8An0y/zNl7NtvwIaRKkA0irplbET37yN6jpoEtCl2k7Zu267WtnbLn/kOkAFiDsi838/Wf68UyBBBHEfmgIzriA9kRcVXFbMxWvsy91kYsjWrQrR/3z7jDvYfPKh1kZECoHYk7tCnCxYoMiLCOKDly5dryZIlBmoARnJysoVfI8TX66//VusiInXk6HGdOnXa9F6V5VXGRY6agn1IlZVl2rJlk8LD1qqivEwx69dbXijKly1fZlHI0ZlFR0WbgR1EuyNph/YkJ5ur5507d4o67Nmzx6IlIe9v2LBB+zL26fjxE/p0wUJdyL1o4mVOTrbefe8d7dixU7nnL+nUyWyFrFitq5euWqTsawXXTA8Xvz3eFKFJO5O0ceNGi1YUFxenefPmaeWKlbZBsSNhh/buTVVdXb3u3fd0g4BPXt4VvfvuX/XBRx/q82XLFLI6VMuXr1ThtQJVV1YoMz1db7/5tnGhCQmJWrMmVO/89R2dPZejvanJStwRr1Onjqu4qFAAaeKOJNv4IHjvkcNHtH3rNlE/+hfdGwGGL16+qPnzP9G8D+d5cT5zL2j5suXGzaGrQLScA7FnI8IfEtQAMQdkg0MwJ30aGexX0bV8LVrwqXbEJ+rGjZu69/ALDY2Oa8DMrkYsYHPdjVqdOX1a2adPWzDpu02NqigvUdzmDVq1coXWrYvUxo1xqqioFlKUbbr5wDQ2Nqy+gR6VV1xX9PpoxcZuskUXkdTDBriv7wKZcWnPwJVNAbLBgX65NDTQr++mAQ0bVwZnNjUhBzvxEh0JcQJJ3HsiJ+ylX+mRQXV1twggi14P6HhxIQ8fOKCYqChb9ROSkhQTG2vc1JqQ1Xr7zbe0ccMGAy2IafPmzRbzEO4IoNu1c5eJQ3BVUVHrFR+fqF27khW/fYcabjeZjgclOyvQ3bsN2r1nh5YuXaz0tFStCw+34LVnz53V6jUhxv1B7IhWsMF1dTeUkJhgHBNhwSgTsCHOI3osRN7169eLVSYxcYeWLV2hW7dum9haU1OpNaEh2rs3RQf2H9KOhF1atSJEzXdaTKHe0tyigwcOKmJdhMWKhKNZt26dcZlwnStXrlTY2jAdO3LU53gOq6Oz2zYN2B3t7elSfsFV445Cw8O0a88epaSlKzIqWgcyM3X00CFtXB+jf/7lP5uYTP1iYmK0OnS1LuVdUkraXiXsiNfRo4d1+NAhhYev0/4DhwwocW9N9PMdiYkeqF+5apxwfEK8MjLStSZ0jVaFrLJFADF2dchqi3iErg+OLEigbkFz1+B/c/c/HOAZiA0NamBoQAND/RoY7NXQYK+Kr+VryeLF2r5lu2pq6jR2/6EGhkc16CvjUd1cK8jXzh07lBifoFMnTqrhVr0GB/uUsneX/vLnP+mNN97UiROn1dnV4+1wGggikg6qo7NVhUX5xv1HR0frxImTamxsMm4MtZPR5gSXOCgDWRghEzOf3j8snIRqNNESOZZkIuZLAjIHZoODKOM9IIMj6+lpU3FJnqJ8ICOe493GRq1bu9YU1UuWL9eG2FhdyL2gVStW6r2/vqvkPXss0vSxY8fM7xCxDtEpbd602YjIEzcPajM7kKvXKjIyRmfP5qqzs1djY/d8nc2A+vq7dOzYQX3++UJ9OG+eiXf5+XmqqCrXho0xmj9/gRYtXKyMjH3q7+tTbW2Ntm/fpr0pe00vByeWkJBg3BpAxq5fRESEiZno1JYvW2nvoUSF+wtft1a7dycrJSVdmzdt0ZLFSy2uIpF8ADLEV8RHInQTZi00NNTAbPv27dqZtNMAFdF3fdR6ncs5b7oKtsJRhvb1dKuwsECLlyxWVvZpC+7beOeO9UF0RKQStmxTTGS03vj9G0pJTrUNgKNHj+hcbo5uNdZr3/4Mm1xHjxxWRlq6QteEGeCyC4UIQYTyHYkJBtIodnfu2qmwsLWKXh+lXXt2CQ6SiUn9AH4Xtu1pQDbHrT2dOF8FwE9wZAZmk0BWVVGm2PUxighbp8uXr6pvcFiDI+z8j2lwaFjtbe0WQPrE8eO2qKK4v9PUaGCYnr5Xf3r7Lf32t79XTs4FdfcQJvGe0MV5GwndulaYp6SdiVoVssL02i0tcO33ZLjgdOf+ZhnMxvcDMp8jgxMb7O+bIcGlDcyY2FFjZ5GEboQIzSiiMQ/wuDPETAxMPa7IgKw4XxFREcZ9sBtIDEe4gr+8845+8atfKSQ01FZ4ODHArCA/31Z6uDwCu1IOCj4I/09/+pNi1sfYDiKK6vfen6f5CxaqpoYo3JwRu28dSweNjQ3p0qVzWjD/I/0f/+7fGYigYG9sarDt4f/4H/6TPnj/Q53JPmsDwW7Otm1btXvPbgu6C5DFx8cbiPb09pg+L2R1iDZt2qTkPcn66zvvKj8v35Shl69c1O9//1vFborT8eOnlJycqrff/JMQKekLCB8ghsMjqC9RrdnB/d3vfmc6MqJpp+5N0T/+139Q5LpIFReX2gTo6x8w/QM7pIDwZws/0+mzZ9Te2aHbDQ2Kjl6vmKj12p++Tym7k/Xxh58IEdtMJUaGdaflju3m7tufri3b4nTi+DFdunhJK5at1ObYLbrT1GwmIoBebOxGU/oDvOgu0YvNm/eB8vKu6tz5cybm//GNP5pojTjqQCp4ZcymJ8edzV2neh9+1f2ByqcfjmywX/0DvRoc6FPznUadycrSvPfe15at21RRVaN7Dx6pf3DYFPJ37zYbI4C5EP7xMeWB6amsvK6Y9ZFavHiR6VXDwyNVXV2nwaERj94G+3XjRrW2bYvTypXLdPFirhnFPnjw0JT804EM+00sDLyEjnVSPfWkfmHhxIoAenktKFa+KiBjlUEW7u3pUHlZsTZv3qTDR44YJ4GNE3I3gPDHt97WilUharjdYErrTbGxWvL558ap8P+x48eMlYQjQoH98UcfC2U0QHrw4CEtWbJUISFr1N7RpZERzxoeWZzOZ/eyurpcmzdt1P/9H/+TiZLYkvX0dOn8+XP69a//RaGha80QEJsYTCl27kxSWnqaAVl6errQk2FXhiEv4iAc2YEDB4TCP3TNGi1d8rnCwkO1NjxUb779phJ2JOl6WaWul5YrInydwkJDFR0VZSIp38KJYXqB6Apn+eabb1ogYH6fOH5C/+NffqPdO3frZl29seMD7CLhqNLftfzo44+06PPFCo9Yp8ioKC3+/HP7rv7GTZUUFikiLFyrV4UYaG/ZulX7DxxQQ9NtHTpyUIlJCaaXZOscPRjcIRwWGwKIj+gga6prbAKzS7xo8SIt+GyBbjfcVun1UoWFhemjDz+yzRbESk9x65neUEcm4HQQ4/eTJubcf68O3DwLgkkwAzT6+3vV2tJstpvonVesWKmNsSywm3Xw0BFVVtV4u5Y4jxgFpAhWfUuJiQm2+B8/cVznzudqwWcLdejIUTU23rH4oCj6y8uvKywsVP/6r38w2ti4MVZxcVu0f/8B1d28KRMt0YMZZ/aKgQyCGcA+C85rtjQbR2ZcmceROSDr7+tWU8MtA46S0lL1dPfY+UYaTgDY9H2ZOnrsuHFerS0tpoAHPBDp0tLSzPANwie/Cxcu6PChw8q7mme6sLLrZSaDZ2efMXF2aHjETD/g4Ex0HhpQW2uz8q5e0batW43r6+rqtFUAQMOiOSfnnO7cYWt4TG1trcrPy1NRYaFxgPkF+SbasjuHDVVxcbFtNpSVlwkR+cL5cyaO7diRoNT0FKVkpOlyXr6aW9vV2dmtvCtXlJ6aop1JO8ymBnBouoO+YNiM+owLS001Mww4Vcww9u5JttMFnR1dBmSekhR7vH6zxAZcE3ckKiEx0TYlDh08pPr6Wwbs2IVdvnhRe3x9IuYXFy9dsnaVlBbr0pVLqqyuMgNJNjZOnTppejH6OnP/fjNm7O/rN2NdIqwzaY8eP6ru3m47/YANGuWhF/Q2c7zdacBoDsheHSC9KNgDHF5CF+UlT6mOmVOVjh45oqQdSdqVtFu79+zVhQuX1dh413YxB1g8BwfVhw3ZnSbbbYfuYDhQaWQeOKCrzPXmFrOFRLRsamzQyRPHzdAW6wN23vfsSTYaxQZzQg9min8WPegUrgwR89kWvCkcmQdWnkg50NerYOrv6zV90UBfv2ZN/Z4ba4ibhvb19doVMRMQYSfDEy0RP/vU292ljvZ242oMZAb6bat2oH9AHZ1dam/vMEJgC7e3p0eNjY3GsRAsFuWjIxTst7BjgjuCVe3t6bUjFRw3YusY+7W+/n71+vWhnXCcfb09ZvNEfb3O84Cuo7PTDE8ZMFaJwYEB9XR3Wx2oJwCKAawZgg5hCNpt9UHc5X36CoPX2roa3W68rfauDnX19BqbTn0wY7nb1GRmHhj3kp8bTPInbwDMxOf+AWtPZ0enABMADGNfriayD/SbTdfd5ru6WV+v6poaE1d5f+LIEfY/g4NqamxU/c160891dXeb6N/VTeyEdtGHtsiMDAtQv3mzzo5W3W1utr5DJKW/qVN3d5cQqZlkjDNjgQ6F+pEHyXFgfMO9N/6T7s3d/3PX74rcP0SfMLdd8sACwOAc5JDNh9u3bqu2utZ2yFtbO9TbP2iKf5gCR0vMAURODLSZj/0DA2onxkFnp/rsmbdDymLb2dFh866u7qbqbtSprrbOwI956Oa+YYPNFfDCqaSgyaf3EVIAOnOYmteeCmT9fc/sW9+ADLDwv/GAytOheRVjUjuAm9SpAXr87zVqyNv5NFT2kNkRirsGCQVgsXL8702UhOhZRSA6iN4HZJT4AJRtEY94rDJgBjhMPvMI0sryFZKU97TE+4AvA+QS4GMA5LPQrv7Tr7xPGyhjyn9Ov2g6RurFqurt6pjRoB3Cp9wRS7aljamL/5sjTuau3GIvjBn35fX/5KSh7ymfVdQls/6eJh56Os/JXenZJpprx2z/zz1/OoH+EH1kc415zQ4hY2++B0ftCkDZosmCxNyFVjBu92nF0SkqHY8hmKRd/gvOUbMpYxfUP3M9oYJwdEIdDLS8uUUZz9r+KUDmcV0eJ9bf26Ng4rC1cTQvGIiB1RpOy20GMMldZ1BZuzdg88HIF1Nt08A2Ib7bKDrUNdTy8wOa2DOfyB0bDZD1D7Jj6YnIiMkkVhFWGL4H2Ow5mxUBLsKVwZUynyUxgCTXRlY/2g4A2QA/ZZWZsQwmhm2mePkAvKYMnb5F7WxzZroakA6baDHR5/6kdHWdyNdvg7XlKfUN9lFwLObuJ7nQn2pfBMfOLYBcmadIM9ACdGJzOEAXwfYAYuireWbz3KmZ/DmKpGLJnQAib6M9j9kJ5vUi9yz6nING1/zaqwQyGmlgFgSbacThCMka0g+oTIqqdFQwPa2xbnCs8wOgYkDm18Hl4YCM3xNlTHuH/xyQBa+unODV5etA2K4GnFMn9URZftvcd8G8pt+bODAxWbzFgFUM4HOT0K2iM17NDCYg6gVAzKsnXHef+gb8HWefxZ9ejyf9du2Yu04d759DfzCuEwsti+YswDW9LW4uf+f59PnjWzVA20H6nv7d8/7+YYFsBoKlwtZ5PqczUwMcELjOclfe5X6mb4LPHNHxzK0a7n/+m57fbHkG8wneu7ymXx2Q8dyV8bTr9Dz47cpy1ye/A5c6czJg84GMvCyfIJCZGsADMsBsIk2fjNMWIFeviTxnWARmqvPcs58W0M027591nILfB+f59O+D703/70V/TwEylN8kREoMLYOpp6fbFLwoe1800QCAxCUq7RoMNwZXAfE/qTHTO8F9/6SrK4dyMQ+YnoerD1fa5v4P5unqFHw22717N3id6d3g/8H76e8G/wveB9+z56xyvug5/epEWlZbt+JOyWuAsaHtAQDjnue+rjP4fvA+WA/6kN/8767Bd4P37v/g93P3UyWPH7I/3Ng9rUw3tk96L0hT099zNMZz3nuW/KbnMf032DEhWgaBa/r9ywCymRrnOs8aY8TUZ3ol0y/5xOC+o/LBRnP/LCnYaDrRcRB8yz35A3Ak7nnuynS/3TfUi/zIh/+CeT/v/bPUnXfI92nv2js+kAFaQSD7Dofm2Hu//wysfBCzneY+FqseSw7EbJMksBDN1lYmlOPMrK+esjC59s2W39zzVwtswXnu5vP3HROXZ3DsYFQcTQdpx707/Rr89lnupwAZ5hCzJbbccVHjCP5FrjTAJVdx1yh+B/+zhvv2KjTke3Wun7erM/m58imHe/cf97YJgBgc4B5dZz5tw8O9F7y6sqZfg++8rHvTPczClRm4TdNNUK6BFaYpfurp6xEJMPOeeVw072JqQgqOm2sX/xuI9Xt9ann7fcj9bMl9P3edlFZ+yL5wdAcNuHt3fdZ6oP92yb7p9egZEw1+Qzfck6bPHb571nJmew8gwzyL88+vzQZiPH9ZQIZ9yURl2EF0OhoU+32TnA7AReWcct5xRDyf2HF0OrcZiHMK0dCRDBIcly86uv8d12C/najrg5kr0zYD0CkNDqh3Ghc20ZYnEKzVeRp36b5z9XgZV6dAdbtGQa5s4j7QV7SLRNn0c29/ryfa27Y33Kq/ig5OqgBcvadfyWOinf7EtDa5fmGiO9A08XUS2KbnNfc7QCOBxfRV9gvg4oCMcWLuQ38kxpWyeSc4pq4+DsCCV/c+zA8g5jEAHCvsn+DMpn/vfr/IdQqQ9XR1araEkaQ5DvRXZLcyP88VQ1UDMuPMvNV+AsgArsEh+588QW5EHofgrnONW7LB9TgID81BdG9FsA60FcDnIniXAbBdU+8e41bqYeYWEKnpgbAx81YOyucbynLE3sNAkw+ANACgTXKXbvWauPpianBiODMPK4P2B75/kYGzdvocrtdm10bPzMWBWr/t/AJEfgr0E+2hPj3+RAPI4MS6ervV1dNlySYgOjJ/Ik+vK232+hfPKYP+YsTC0WsLBwugt4DQ933eeE5MbC9f17dWH79NE3059/s7XNLL7Bs3nuTJfIWeHOfOf9Adc8Djprw5xnhPqB6MMfHoDxqcSD5HBmaglnLvT3D5/pzy8GBSGnvRtgG8GMrjeOG12UCM588CZFjpujQTwHEMycCMidzTrba2FjvwfL3sulpbWg39scZHaVdTU22po7PDY0V9To6Guo70xB5WdlaMSW7OARIDAIDReRj7co+rj6KiIjs7iPU7HBmrRm3tDVVWVpmrbPKlvbdu1dvxHAKTXL56VZevXBFuotmSZmAZJFcf6mT1MnfVHROcDRbNBALBoh4vqwYcPZxA8ADUgOIZVl0HOnzvQMWVTfu8ujARfTMX32aPiYLltQFZgP1nwtLXPT54e5OtW8WlxTpy7Kh27eF4ym6dPHVSHEtiVe7s6rSjYThW5CSBEQGTmgWKkwtMZE4i9Pebp1qCx1RVVYojZmb/hqtu3x6Rdts49fdbHbo5MeAvFh7RTIohLzq5576bebENLhwOyOzqS0g3am+Y1+Jdu3YrLS1dFy9fNu/LeIcF7Exf7oOTAVEQwIwOvUXL5qmdpulVff1N5eSctTPLhw4dVGVVpc0f9LceM+IxGcxlmyPPuYBNAbLpomUQ2J4GZACY+Wzvhqg8QHNghndT74iP17HYq3V1tetmXbVWrVqhpUuXWPARJ/7giYKzWcnJe9TQ2GAEByE649YJ618s0VEuO/a33/fdPzSo3oE+dff1GGAATEbsXZ12TGf7tu3al5Fp4MUBWI4J8Sw8LMKCjDAADQ23dOLkcTuQXlRUrJxz53U+N9cOucJdAYCUjUUxiTqZ/RWrF8d9sJAeHbHyOAd55PBRc9fNd109HEnyjoNY/fHmAQD54jTtMZCyXUOPA2Ty9ZkYzrEgQNsTl5lU3d2damtvsWNfzqsm3C1cGRONiUI5JLapuXrg73Fpxnn2dqup6bYSEuK1fMUKha9bpw0bN5q/MRxKcvSJo1P0wZWrV00fYVzywIAZOmIN7nnW8CJYEYknMzNDKSnJqqqsmjhhANAixhIL4Epenmrq6tRpbRtUJ3MIQmEyT1nFZybIOaB6/n5hHrlFg6tbGJm7MBe5uefsTGRUZJS2xOEwNFaZmQdUWlauXo7q9fXZwm8io3mg8YyzBwa8DSa3sQQtMz+QuDirfPnyJe3ejR+/DeYGCiem+QUFZmzLwmdA6ltLGFD6urRnHeMpQNbd1anpqauzQ6ROknFmXTahmdTBRAg3Qka55P3uUnfnZIIjowP6+rrV0d6s69cL9e5f/6xf/eqXWr5iuaqqq42zgkMDxMLDwyw4B5wD3AycEf7jCU7S0txs9cF1R0dHp3/esV2NjQ1qbW9VR3eX2jrx499o4dIgdtrGd6GrQxUTvUFXL181t0B4sXDBR/Zl7Ld8S0qLtD1hmz7/fIkKi0osytC1wkJbmZpbW9Xc0mwug2prauzsWIedNQQ0es0FMN404UYuXsgVkwJHj6Wl1033cLfljgUmKSu/rqrqKjU0NhoBt7a1GcfY1uFxbgRSIQ4B5x27envU2tGuuy0twpcTfUJfApqdnW1qutOgmtoqi6jEagebzSSgz/HYyjk0DrnDHd6oq7P+7OmFk/V0jn09naqrrVLo6hAtWrRYyXtTdPLUKQO11aGhOpWVZWfoiLZUWFRkLlPgsohKdfNGnaoqKw3kiZPQ1dtrY4l7INx9n87K0o2aGxa1CpfjhNk7eTpLayMilJyWrvLqarV3d6sTbraHq6+T9cUSa2dAXPe4Am+Xee7++fqBhaLL+pm+7lG3zwG1t7epprpSMTHR5mgUP3hnz+aY66mcc7kqr/THqNcbIySA9o52cxTAecvublQ9AxMufwhIwkIKQOJVA2/Fp7NOKevUKW3dskW4q9+bmqr2zi5PKgC4bLMRWiY93+YiEgMH0HNycvTadBAL/oYjexqQdXZ1azJ5QOeAzLgyRBkzcehWe/tdlZTka21oiN56601z6ZySkmqEXF5Wpr17k7VuXbi5gwaoCMmGixn8x+P94sqVy7pRW6vT2dkW9gyC5zdODvOvFeh2U6NuNzYqOzvbHCN2drab7yXs5HDdHBURpWNHjhmw4Czug/fn6bev/15bt2zX3eY7FiZtYyxh1aJVW1tnfsDKKirM3VDJ9es6m5NjnmF3Je00TwHFhUV2AB5CvV5SotS9e7UjIV5b43C0uEy4mCYSExOguLhQu3YnKW7LZiUlJZnP+6Y7dyxCFF4pCAzCwOAiB88SsPZwK9crKnQ1v0DXyyvVayx8j3q6O9XaclfXrxcrLS1FcXGbzVfa8ePHDTDw10YMBH7jbojyUtPSdO1akdrb0V04IOvQjZoKRUYQD2GTqqprbCLu2r1HYeHrtDclVS1tbcoryFcpqoDWVuP2CvLylZ6aqu1bt5q7nwOHDqmkvFyl5WVKSkpUaOhqm7h796QoMyPToukQy3T9hg36L7/4hd75YJ4OHTuuW0131Ds4+B0gY0Ib1/k9d8znAM8DvEkgY8HwdKG4r2LhhYPGpTxRuAhCQ/xUAo50dfeaOyyArx1mxgc/vF+cOnlSFy9cNE8rra1tOp19RrkXLqm+/rbRFrjR7TNDjCPc+OVLl8w1PD777zS3qAfpAknGFjCcP/hA9hxg9uqBDMV9V7cIw9bb3WccAhwZQFZYeEUxG6ItyMfGDRu1YP4CixiEGx+8sa4OXWOeHHBSiLwOqOA7HjTftClWB/bvN+5h375M8x1G9J9f//OvtXHTJl3Oy9O1oiJz9oZbnLt37xgniGveUydPKCaGuH2J5nYHV86rVoUY98UVTgpXzsSITE/PUFl5hRISd2h3crJxGjt3NNUyOgAAIABJREFU79b78+aZJ9uoiEi9+cc/KnbjRuVfzVNleYVCVoRozarVily3TsuXLdU//uN/VXTMehUWFxuY4bp62ZKlWhcWbmnxokU6eviI9uzabfkQDIVoUqyK8z+Zb+6n4cKIEJW0c7fOX7hsEwyRubO9VaXFhQoPCzPf/oTZwnX3x598rEOHD5l/NCbmb37zG4szsHTpUn326WdaE7pWdTcb1NPtmZn0dLWqtvq6wsPWCCeRx06cVGEh/uK2KD5hhy5dvqq6+nrFxG5UWkaa6ThwDhm6eo1WLl+u8LWh5lzvn3/zG8UnJely3lWLIvW7373utXXtOnPuCJCezj6tTXFx+uWvf633P/5Eh46fUH1Tk/rmgMzXQT0fl/W8IA2H20XqZgMP4PDcWK9cucLmWkHBNXN/hccLT5TEHKfXxESAyFOnDJv6ZfPGDQoPC7VF/cKFS5q/4DOlpe2ziGEcMAeUeno7zdV1Y+MtFRVd044dicaQ4O66vx87zn7TLwNkXn2+J5A5MXKmK6IlindczsyUcN2B653J5L2H+AlXBph1d8JBoAPpUmtrk67mXVBEZLj2JO8xJ4BLP19i3lBPnDihlLQ0rQ0L0/XS6+aL/9P5C8x3Pf6MCDyCk8WE+Hi7T0raab6N0lLT9LvXf2exKA8cPGwBSHA7XVgI99FmernBgV4VFRZoU6wnq+NjjKAmhKfaHr9dS5Yu0flz54QjRwATVvV6eblwRrgjKUlwY9vj47Vo8WLjfAhLF7HOA4+0vSk6dviYPvtkoU6fzNb14lLhQvrPf37LYkdmnT6tQ4cOa9Fni3XqRJaul1y3sgDBuE2bzQfYlrg4i2RTWlxiz+Z9MM+CelwvLdO2bQlK2rlH18urNTA4bGz7jZoqHcjM0PyPPtGxI8dN9MaVCQEezAHlsWMWsOWNN96wlRbfZwQd/ujj+SopqVB7e5dNoq6uFtVUlVrA5Dfe/KPmf/qZFn++ROujN+jMmRw13rmrsopKRa6PUnJKsq5cvaKE7QnmfpsAJYXXrukIbf3rO9qWmKiz589pe/xWfTTvA+3PzLSwdhtjYhWyKsRsfY4eP67PPv9c8Tt3qbSiUu1w8729phLogMDcBhMrejcTHHHTs2Gbu754P9CPlkzCajeA6eps0+VLFzT/k0+0aVOcSq9XmMupzu5eU890dHWIEIBVlRUmHhI+MT//qurqanQt/4o2rI+0BXvt2nCti4hWfkGh2ts7TUfW1tGqrp4O1d2sUVbWCa0LD9OyZUuNIbl6Nc/EUduoQ8z1gbULt1du/J9x3NHHoTox0XImAHPPXhjIOmEtpwJZrwFZo67k5Sps3VoTBwGs9L0pxlkQWCQ+MVER0dHmsz9k5Sq9+cc3BfdDkBE4GvzEHz58WEQa2rZ1mwUg4bpk8RJFRERp2/ZEJe3YbVFd6mpvmgK5o7NNvX2dqq+v1c6kRC1bukQpyXu1ZvUa7d+facr9FStXWF5wZniyxP00DhMBsqRdu1RaVqb4hARFREUJYGprbVPK3r0WPTk2ZoN2xO/Q4oVLVVt9wwK0VJSVKmTVciUl7TCReMuWrVq8aInq626Zcrzh9m2lA9qhoVYXl9ehAwe1acNGLV+6XGFrwnT08FFtiIlVegaeXVs0MDhiNjnX8q4oLnajPvnwE1VVVJn/NXzrs8Gwdu1apaalat++fcY94r2WGJQ4QXz33fd1+fI1Nbe0GyACZNWVJVqxaqne++B9hYaFa9myFQoNDVNWVrba2jtVVlmp6I0x2ptK2LmzWrp0mRK3J6qs9LrlQWyDFatWaVdysone+PpfG7paBdcKLL4mbsAXfbbQgCzn3DmtCQ/XoRMndOvuXfXgywq/bviWmwOyVwbakyCGzhtHn62Wrly+aJy6B2TltlB2+ECGzhI38FcuXVRC/Hbz6nzw4H5VVVeot7tTybt36i9/elt/+MMb2n/gsJqams2EAzEWIOvsatOthjpduXJByXt2icUa2tq//6BaWgiw7ZkzmUhpIPZTBDIU8T6Q9XR5kah7ejrV0tKgy1fOK3xdmPYf2G/K6fobNxSyYoU+/vhjLV2xQlEbNlikpGVLl+rdd/5qomBGeoZFQSZwbU1trbLPZGvDhhhb6fHZn5y8V5ti47QmNFwREet18vhptUCsmA90d6izu01t7c06cviAlny+WB9/+JEBGS6uidjNBsPHH39iId3Iq7W1RSjlN2+JU9LuXUbMgGzcli3KvXBB7W1tykhLU+jq1eYienNsnD7/fIWFU2M3sKrsuqLC12pX0g7t3rVLGzZs1OefLzUniPg9a2xoUGZGhlaHhOj4sWMWnWb1qlUKXxumuE2bTJ8XtynO8o6MiNaJk9nq6Oozn+goUi/lnlNUeJgWfDzfdgfxgAGQ4XYbIEtJSbH7ZcuWGShj/Ywr8D/9+R3lnLuo5uZ2s6fr7GxWZWWxuedevyFGVwsKhKiwatVqbd+eaD7cq2pqFRO7QXtSkpV1OkuffvKpErbGq6y01Mxb6m/d1NrwcCWnpxlHtnvXTsVuiFFJSbEBGcGIF3wyX9mns3UyK0vLQkKUeeSI6pvuzAHZD8RtzsSRAWZFhddMAlkbGq6LFy+rG5u/vgHTiXV2d6rpTqOuFRRoX0a69u7do1NZJ1RbW23c/L70NP357bf1L//yG2WfydHd5lYDJ6wX0E23d7RY6unusPgAxJgICVmtlatWm+PGXnbX+/vMhrW7q13fmyPr7GjXbAkvouxS4A10poRnyPaOzkDy3sPNcpeBGXqyXtP9dMOq3rltAUDWrg1VekaGF1G8r08ZaakWSOQX//RPClm71sLBRUdGavnSpbpw3vNrz24eOyXNLS3mZRXZ/q0337SQatVVNbZD+N67H+jDD+erorxW3d1s72IH1WHyendPh7LPnNL8+R/r3/+f/944vNKSEssrLm6T/vN//n/03l/f14njJ03pXl5RZkCWuDNJJXBkiYnatHmzcRa4tk5LTdUqoj6tX69dSbv09tvv6OKlK2Ybd/XSRb31r3/Q5thY44TQtb3xxzd15cpVM1MhbidBURFPEXMRVT/79FP96pe/Mvb77Jmzph/87//9lwoLW6crVwvUNzBsClgO96Mf27pls377P17X+Zxz5qmVYLnE2YRrJVRdRkaGFi1apNLSUmO/idr0pz//RWfO5urO3VazeevqaFZlBUC2xr4rLi6xPtu2LV6r16xVSmq6yiurFBEVaUB2Pve84JRXLl2u3HPnbW5cuJirdz54T9t2JAiOC9E/Ijzc2oVXUNQCH34wT6dPZ+v4iZP6dPFi7d23T/WNjeobGFAbnnG7Os2jru2S+7vlT9toCu6ez91PtSaYqT/YtENc7OiEnlstoewn8M87f3lHm+O2qqy80hbLjq4uW3QxpyEvlOoYkLOIwtER2DcqYp0WLJivpUuXa11ElEpLytTR4akC0Hm1tNzR7Vt1unOn0Ux1UEMQE4Lg2TU3bqoHm0ZsITvb1dXRpg5SJ9ziky0lgm3DfANp4+zZs3ptNhDj+fcBMsAM49Nu9GRmU4YZRKPy8y8pKirSols3EeNucEC1NdWKiIzQ7/7wBxESjqAX2VlZio6M0tIlSyxSEmHHjh87blHIMaeIiFin9959V3Gb46wclP8LP1ukpUuWq6WlQ3192LQMeOYKveyCdaqkuFAx66P1H/+v/2BBS9jxZEPgxIlj+sUv/ruJVZcvXzFupaKiXMRyRNmPaEnsyK3btwlixvxgX3q61oSEmH6PHZklS5daoN/o6ChFR0Xq7bfeMr1aXsE1Cye/YsVyha5ZbZsc6LLCwsN14uRJsXNZVl5uQXBff/11CxBC1OdDhw/rl//0T9q2PV7lFVXqBZQ7PWtpdiyvXr6o1SGrvDyjoy3+J8p/dpSuXr1qIviqVatUUlJimycHDx3Shx9+rPO5l2z1xLarq71ZVeUl2rA+Wpvj4lRaWmbiQU7OeUVGRmvZipXKOX/elP2ZB/YLExm44hXLlmvVihXGFbM58q9v/lHbEuLtXULHof9jkSBaVGpKqhZ++plyz+fqwqXLWrlmjT5a8KkOHj2muvpbpiMDyIzIgnqSp+yYByf03P2TgQyzKJJbMDzAaDfj9Fs365SYkKBVK1cZx0Q0pY0bN2n/gYMqLr1u5hreSRdsybps4U9MiDd9cua+TJ08lWUR7g8dPmqcFlJQb2+3GhrqdezYEW3cGGN2ZCEhq8wk6fDhI2ppw826Z9AN94YpEUDm3f9IQIaZBFyZd/3/2Hvv77iOZM+Tf9PumZndebu9s9u9Pe/0a73XUstRpERPihId6EDvSdAAJAAaeO+9967gTcEbEjQyPXP274g9n7g3ColiAQRAQC2J9UOevCZv3rTfjIiMjFiiyBTIoMxgMTlwjA7Km5fqyai0tES1xdEH+//Qe/r5JxXYoa6AVjHbwDNT0wpmCOBxgotjBHRcVL/qp5+krKxUNwygXlAA7e7qVp+U+fmF8o+f2db1tNghq6HKaKTZmSmpr61RgAR8ADEacHR0RD28FBeXyMTEhCrSYr++vqFemltadOcOAMOHJGoN6I/h46+woEA6OzpkbnZGikuKJO7uHVWFSEl5pi7i6uobZWZ2XuafP1ev3o8exsu9e3Hq+BegmpyaVP0e3qNykfDooe66Am7obcXdv6fKqDh4+Mf/+J8KZP/4mfb8WZ4/n5fa2ipJTn7k5Zn4SMtD+XEw3NPTI4WFhVofTk3QPjgMxqsTMgr65Oc3r2RuekIqy8sEpy1sn6N0Ozk5JaXl5Qre3YGA6pahgoGzFE5JFOTly8OEBB3MgPKuPXtURkaZm5uaVIdseorV+IW66oJ6Re6IWKCgpERuxsVJeXWNTE7PqP4ZFMCPvqBXdYlU2PuzUNcoSL1/GywBmQdmUGdQPiaf6u/rVZktak4P4x/p4llVXSvjE1PyIzpo6JEhx/wRvc4ppfhra2pVlDI9PSspKWnS2Nik6himUoGOY11djXpbQgx0/949wTft2FhQQQziRqluBTKfK0RlYx0L2DKK7Mcf3shKgV2/Nz+8UacYOMYID7gSw1kIgWvv/gdldZjsOBmBKmMwop/2048of75QBVZADKE5aZhU6CjhhXh+fkGdFnBWj2Mu48Gg9PX3KZWGhyM6hcEOCKH4ysQCLImh8GA/f/wRxyAo7wGyP6qW8evXL9WLEtQcE5u66GaGT3nyb0BS6/DjDyonI09YWZ6h9IneGs84gkTZcOyhSro//iCvXiFvGlblVE4N8O+Xr16rLg4C0B9+fC3B8VEZGOhT4HyxuOhrtP9P1RdDXwsdOFhoykw8Mz+nMbvDOhjVOYtXbjZkXr95KROTQc1zaGhQFl+80LKxw4wuGfUkpq7UY25uXhZfUh8WnB/kxzev5IfXtNuCthtlRqmR/9EWHM16QXu9eKHfI16g7lBbDfX1CpxJSUly4eJFBb7Z+Xltl5cvFlWOSN++XFxUpUX6mvznFxdlEEXamVlByRhdOY8iM51Fb/fSBbFIO+bRZ5E1CSK1i6dd8JO8+ckL3r03Bn744bXKp1Aq5zTGQP+gDA+PysLzRVVcBch+/Mc/BIVtxEyIVaanplVBG4XYn3/+H/L8+QsNOJ72RFDMn5cyOzut86G7u0uGR4Z1POr4AhN++lnQv9RxqKylPx9X0ZIIrxvK31D9tbW1sm0lEOP5u4CMCWIAFgKxMMADyDSoFyJvJaACSyutbbsDdqA0FJQdVve34FUxEioLzXa2bFmlvIHPBNeJzmT3KUNOGsCGqaIuE4VO8OtDw9Eg3v/dSeOfUHAEsLaShWJXDYVJbbJApRyWNJPR2dFy4tmJ8uqRIrTx/dMSof9HWG39rXLKSL3MQ43Wk3/yrZbDG4jkqe3JTnEECsY636vvPzxVGQV4r00UzFXNZgnE+BeUrGrX+4qQyDMAcfT9kO2hRHnwwAE5sH+/ZGZnyfDIiJaXMnAGk8WJa2INqlG+dFSGdtHArqXW1a+bLnq01donajTtu9vKa2NvTAE2nuzbAw9vXHr9D9B4i5k3rxh/3vj35wrjAnERJ3b8YCd7ACf6ApUtlXn96GGIzj2bd6QxIPPnujsv1tOXy4Dshzev9XhNpJjzUq/fvJY3b95sOOAyDLdtitT+pPMq6j1TkPE3FAz0LK2nw/ajpwPDbgjskDaWBwge+nuuqAzM9L2dNuCbsMYyvTj7FgqDwL2CRtjGBs9Cz53JZeDhxm4nLBs4fOf8x/4dMXZWJKsT+SrAO/+3AeP+M/w6Uv7UxRYfFiKrt1vPUD7K7i2BLVQzrCsnJ2CrERSzGzkxOamUo7IsPy4Bqwe4/iSjH5zyh/6nq7I/Pty298um5XOuI9Up+ixC+7ltucbrpfnnLaChPuJ7R6dUqSn/aKIBn8ZKSHggaYQDsUd1OWX05efv228oBU9NTel43BYJwOzZZgCZshQMRB/MbDDbALXJpJUijbKqHhmrq0b4xHYbywdAA0ZD+mWN60weBTG/U+kkWB8LlEOD0+mhZ/47a3irQygG7Oz7CLF959Z5relD/3DqEf7MzX8t1+6/Lb22h1P38H9wT1qoMpQQpyYnZWZ6WneeUVaFguO95W35hsf23ih4+2aldCu9D08fvXeAwunHjbaL2z/heSjg+ZSbgZ/FpDXixCgxj/pzymeEzXuW8xcFMlZxKDoGMJW0CaIVZtIDRkqKLk0CG+xvNYBTcU1jQOY8D2/0SPeh/DcAOivlZ3U06tX9h/uN+3y1a/cb99raz2L3HddunvbOntm9m859Fn5t/3Bj0kDSq+UC314ZA4o0Vndri/D8rByWjvvwNHa/2jtLE40dcFjnHHhX2ynV7s9b+jZSegMvi900ITCLMEc3q2+XAdmb169kpYBi6KvXr1QQDyCtNzBgDcjcwWsD2q34+15bnmuJ3/dffB/pP/acuq70j0jf2bPwb+y5G7tp7LnbtnZNHOm9ldHeufFq70hn/+ba/kP/Wh7uPy2tgaDdR/qH+86uLc9I6e1dNPa5iAgL8nraxtrcbWv60uauAdl68gxP6+Yd/m6j93ACIdZyJRDj+WYDGQV2K2QN6FbEnv2a4/B6cG+T2CZ4ePlX+yY8Lfc2eCK9s2fhedq/w8tiA9Ke8519G/6M55be0lnMf+3a4vB/RkpDWivzSrHlZ3GkdPYuGm8OgIW3I21uCw/vbGyE94X7nb1zn0W6Jp37fK3fud+EXy8DMuwGrRRQKcAGF1v4GwlMCPvOJgeNwzPurWBc23t79muOrYMpo01kKz/qKgS3fm460lta5E2Wzs2T9OEdH6k97N/2jrwsb/uPPbPYvnFj+96+cd+969rydf/7rm/sfxZHSm/v3DhSuuizjW/E0XaR+o35ydh056kLPO539I/bB2zuufd2jSzaTeteW5r1xmyATU5OCkYRtq0EYjzfTCCzRqGwNB4VMfR3K2AVJP41hdAmhLNShZePztY6/ezJi9z3Vkeb+NwbkNk7N/1GgCw8H+41T1U/8SgtG7g8j5SefrLna4mtPpZv+Df8Z6V34Wnde7ct7Np9H71+PwCj/azvuHbbmOeMA3fOhr+3PuW55QWI2X14/7Brv9K78LRrvf/nAJkva6OQTFIKobtd/ra8VdKNud5I4B8b+W6lb3TH1dlRVZUUR1E4BGC+moTVywUj6xx38Ngzi93/u9+6z93r8O80b5Rw/QFFOXWnliNAqF289qhhG6DkRR7uoARc3dXY/uHGbhnsW6uX3Vt60oY/452WkXK++UFVfEzNx567C4f9z/KMxpsHYtZvtDGLsKn5EDNmrO8M2Gzs2PNQ/6Lw/BaQsdHnBYT/9Jv9bzP6cDmQwd6sFGAt/YG9odhnS5U9BchevVKN/OHhYT0ojfFDAqZm0NClcjTMRiqJRQr7bjMbyyaWnmDwyWZvA+RVSMeOozicaWxta9WjV4ODg6rxjxZ0eJkYCBz1QUiJaWpOOPAMkLHBsZ52sG/IZ3R0VEZGx2RufkH/C0WNQxfMYE9Ne9rY9OPM7Iz+f3Z2Tk9McLZ1bnZO/6/97IgUrC0tpn8oL/+j/KhicAqAkwM8J1haK1v4M33++k2ozqHxQXv5z2l3azuL3Xyj1+vffAtvM8Yn84bxzPzrHxhQgw2tra1quRgz0rS99Y9t/Fl/2NywPsM0vfabjmVfxu5zdhxtYowxvgBM8ggvz3rvyQe9xqqqKtn2hmM5EYKBG0dw1gNieNohhL7xJ4VuHLxc1EOnJaUlkpObIyUlJWqOGfMz7e3tepTFVgEmDNcU1kVzGsBdOXjHvSmcog/F8R4mlh4vevPG14T3jysZlecfuQitKA4Vxz/4t2kwo7msx7CgHpBD+YrCdDBHL7DTVVxSLGXl5XqejDNlLc3NMjczq3pqAB3gxmDBdj2ehupqa2VkeFjbCQOUUCAGZkpJ+f9HKdZkbjz3tO49bXivrrCCr1Wnq7auVqrJdyyoSrwvX7zQc5Qorra2tWl78P+Ozg5pampSfwIjw6NqwRZLFTpAkfFByfntaiDEO9rKKGlADM9UWB4AJOlv0jI5aDtb2fmONuMZfWWTwQMqrz155q3c3mKk/elv+fNPLdcmDPz1TpTfW3rmBYF6eYss16+kr69X5UwlpaXqSQkT6RAYOAQirfYZY97fAKR/PIr5RwUuPWdtRxVZgFiMfnijRxEHBwekurpKigqL9Lwv5qZQ16D/LW8bE+ttb8oRArLXi4uyUni1uKhn5Vh91xqYKBb0Gx/YoA4w6TE6MqSeVThIjD86LDWkpqYqqHEgm8LxHeY5oFoI5Ado8JwJROA9AVtbTCJcr3FQmXdQCBo4H7mwoJOcfKZnZvTcIBMKcNF8fYE7eXM2kZgG1X/NQXHM6RlQbJPjvs6b2JxXfK2HvrGNlpqWKqVlZYLrOCy1YqUjKyNTAt09evideuUXFCjFhuORQKBHD+m2tbTKxFhQns8tyOLzF8JZNTpV/70w79VpekYdlbx4uSicz2SR4Fzo9OyszGldObP6Su2vc5A+MydHunt71db+/PS0PFUTw3elsKRY5l88l7mFWSkr92z59wX6JTg6LoAZQEY7cuZuZo62nVZqi/ZTgPJletb+ADPmq7F9hgMZXcAWF/XAOsqynDelPVlMqA/nQDl3qfV7uajnYhnUvINCnZ+f05h7VbidmvKoPb8/KEM0bLwNbGEnhjNiPnJeeXJyQq38QlhUlFco2LS3tetRNMaqEiWOvJz+WZhfEM49Y4qdecE1Y/LFIptX3jxh0cXoJu7gHicnqeEHDBMwn2xxoz+Z1xbW278sjjjWqayslG1vOLy9QgDgGHw6ENcQG4C5sQ7wl1SawewBWWZmhk4CSFfkSVAwUGXY5QLIAB0oNAoI2QgQMClI39fXp+wbAIKJW7whwaoCiliQwOMPh7tpFCYh33KolLywYIHlVxqSb3gHGPJPdj9gD7HSQH1h05qbmtUqREd7pyzMkyfU2BvPY9NPP0hHZ7tk52ZLdm6OgqRa2vjpJwmOjqrhxPKSEmltblZrELdu35bUjHQFs46OdjVWV1FeLjVV1Wrbq7cnoMYRWSmxA4Ufyeqqaqmvb1CSf/75gkzPzUrfwIA0t7RKQ2OjdAV6ZHYBlvCVLMzPCfliLrwF6nZhQcZHRyX50SO5E3dHMMMzMTUpE1MTgo9BLO1Ojk/JeHBSrV1A9tMWXd1d0tbeppY/oLZoJ6O2WP1wT097YpocxyZYpeU5bRbqt4oK7Tf6hj4jXw6aY2WEsgJU9OPw0LD2ET40e3sD2jdMHvqS/mpra9OBSl/q6h0Fsw2D+RKQeZt4r14uysz0lHr8wloL/YrBBj0/+bNnxCE07+GwfMDBVSP+NIYGhzwjBC8W1XdGf/+AejyDvfQW/JeCKaz6+lrJyclW14u11XUyMz2rFJvmp5wb3JuX/28OyGi4goJ8ZU0gXzE3wxYqwAL4MJCZKLCeFqAAkKVBATx9+lRZU64fPXqkz5hU6RkZSt1h1RKLDpiywcgggfxwyFGQn6/GBpmMFRUVuvIApi2tLVJeUS4NjQ3KBkJes0KVl5Wrf8rmxhbtKAWy12xPL0ppWYkCWVNLs/zw889KBQGSC7Oz0tbUJNkZGVJeWiqYLbp+86bgK7K5pVkHz9PHjyUtJVXyc/MkJytHzf7gSYpVrLOrU4qLi6WqskoNM8KytnW0ywgOUnJyBS9HhUXF6jnKgIxBFxwbk8ysbKmrb1AbZ52dHZKVmaEmtwsKCxQQA70B9SdK3rjaq6ioVFthAAvAg8nxzKwsNZUNpUyb0Ue0P21I2wOCAFhycrLgNAW7brDJ9CEOZKBOc3Jz9VvaGXAsKi5SFhyQZpF68uSJYPcf+Rz/hUok4BwYj1n0JwsVY4I2Xe8gj6ZfTr0BHItwRa884ADIRoaHdMHl3CyLyps3GEREruuzff4CAqsIKwhLyPxknjAG2lrb1F9ESkqqLrh4HsPCCemZH3hcmpmelEBPlxrYrKutl1mAzO9PBTADM1+evp5+W0aRvVp8IasFqKsQMq9AlRkFtvDiuRBgFSzwLe+9is3LyPCgTiyMFjJgmShMWuQtrOiADxMI8GFVBlAwFcOKAduWlpamgxwrDAAe7wC0js5Otd0FiYz8CcurUHNMqL7+fgkGgyq3Ki4q0nwxEAhIQnXQOfynsqJS7wE4JiwsImCWkZEpmRlZKkuioV++hk1+Lnn5uQqouKIDyPA/yYAByDrb2iQzLU1qKj2gSEpOlsrqahkZHRFcowFkJb7cAMovPSVNOtvalWrML8hXj994iMLWPgDNs+5Aj17nFRRId0+PyqZo75f+CYy52Vl1n0c9cDFXWVUp5T4bSV2RiwE2LBzIQKDCAAxYRGzsA6AAGSDX2dGplBftC9DQ/rjdMyqN7/ELACABNk2NjZpXbV2djI7BPge0nektBsoAAAAgAElEQVRjWO68/HyVIZKWfn348KFgwpx+xIQ2AIbsFMqc/gfsoIqh5rTNHVktYwoqMRrW1gbGFSGeeP6S+YwI5bn09/dKWkqKjvuJ4IT8+Abjp6/VHiBiDsQvcCq9gV5lOQE7TPiw6Bk1jmOdvLx86e8fVP+WgCD2BPknBkBfvJiXwcF+SU1JkboajyIDFOk7ZVt90ZN3vbb6WL8jP2VeM562rQZivHtvIFPZjgtkA/L0yWN5/OSxTgSAicFrwnAsK+BchEnCpKGQpGESAmQ8Z1IZ2whlwCQFBGEboV4qyysUzKBCiktKlB3EpExwdExqq2vUww+Tk7yhlqBSMAXd2NCo1AkTiQkMwEKx5ObmSX5egWC5VVcMgGzxueTn50lOXo5SRjgGXvRVTObxqN3crEDW3NCg3oYysrLUyzY2vrC0mpaaov9amJtXMj0zPUPqamoVwJMfJ2v7AGSlpWUKAkUlxQo0UGS1dfUyw44Ssj7aV0lzTxaFM1SE+whXc/PylAKEpaauPAM8AGgWDtgEALK6pkrBFbtRGLDECCMyR9IkJCQomwn7T9szcFgJiVko0tPStX4lxcVa9pHRURXqAzYd7e2S8uyZLjJQaQiT6UNWc+33vHy1XMCkoE+hiun/zKxMvQf0YE1t4FocBbL1TfhwIHuxiP05D8gAGBauifFJ+ekHPJ0BMq9UXos8VGWhVdVSVlYuLS2tKkul/Vkk4YYeJjxUo4pzcwvyA0D46o3KchFJvX69BGRpOKeprVfWckuA7CUr+ioBykoF4wjHVwhGfSHHIWDwkKDPF194QtyXGF+bk6HBPnVkwApMI7Gyp6SkKFAxcAEl3LRBNTQ1Nwk7cWwH846NASg1JgOTEEAABAE8dgQHh4aUFawoK1eTzzg4YQJxABZDjwBZfW2d5GTnqCysqalRcnNzdGJBOeCqCnIZEEOAT1mwhNnU0CT9vQPaCaw2r16zmryQ0nKPtQQoXijp7sly2HTAVDcOStpaWqS3r1cd5Da3tsrU9JSwk4OckIm+MDuvLuRgM0uLS3TlSkpOUk9IACsyMnYcA/19KhPLzc+X+oZGmZ2bl5dvXusKi0wQK7IM2K7OTmUXsJ2PeW48pQ/gXLimVh25JD1K0oELtTM3N6tUJbtKUGRQRzgL6evtU2uf+LCMj49XFpy2ZNFAuIq8CnZTQSczU/8Jy47pY6zAUg7GCmVhAFOGxqYmKSouVgocKry0rFTZTdodMOxo75DJiUmlwmBdoPQYA6z+unqvwA0wqaJh9TYwjuk5xkgXmc8I6xd0HGZnZUlBfoE6vH7zGtbyjUdRvfA2XZh3WGHG50JXR5eOC3QTEcGwyOEZqaur2zOs+PoHNdC5+MLbwHnJ/xZm1fBn6jOPIkOcATFAn1m5LF5vP8KiMg7hoLatBmKLPou4EoDZ85WADDAjDe+Z+ABZf39AgQyWh1WdFZfBzKAFoGAXGcRQYLzje4TJsBhMNCYT6aDIAEKcbEAZQJFxD/ggyyENIIeHbfKh0gjUoQZKiks0P2RIaempEnc3TimywcEhFVwCYrBRqFYwibCsOjtDWdj8YDVcVEcJeGCCKoOCwO4+YMIq1t3VJU+SkxXMRkdGdBPh6bNn6pxjfGJct7uhyGAp56Zn1NdlRlqGUpKUD/YYeRHkPYLT+YUFCfLd4IDAVgJkUGTPYRVYKCDPkWe8eS2jI8OSmZEu169dk8TkZBkZG9ONiIa6enWth3cm/ousampmSnLzc3R7HDkWVCpABisxO4Nj1V5dVGhf+gdKlXZl44V3LCrIydgkgWJLTUtT0+Cw1/RHTXW1suiAJosMdbsTF6cxPjIBM1jZxEeJ2rf8k/Zj3NCH9DWssFFiFq93wEfTe6ChYwUuywcy5LGIBJISk5TzCAYnVD6GpWUIA+Ycfc0cZBxCSQFCjGFknhAg+JXFDv9YcEJevUSW6QEhFBnWoOfnZ2Wgr1dlqbXVtZ51WdhWR7vBrtfbTysCGcAVHgAhA6yV4jUB2eILmV+YleGhAcnOytSdPAY7fC6TA7aFgW4TxGRnoC2gxmRA7sKEUvkOLNqgR5Ex0Wh4Vg/cq/ENVAjsCpMBFtFYK8+xbEA7BFaUHTw8mEP5sKMCSwWFBbgCiuwcsm3c29unW8x0JPIxgBklv9bWFgW97JxsFYIyoVnhEKBSHtqGslM/8oTKbG1p1jZob22T+ZlZGR4YkpysbKWUoNJUrSEjXQEaw4X4Dejt61MwwK9AQ2OT+hEwIAPEVHfuJeasZ3U7HT+CWZlZMon6yosX0tHWLvfi7ipoQGkxaNh6LyoqVKqXRYKAvJF2ZhADUFCntD9tTnvAEtKWBmzcIxPr6u5WNj4nO1tBGPaWNFDLgBMqGYBTXFycyt5Q0sUnQsLDBC0nnqVoJ/4FRUa/MR7YyaasURBbnep6FwigugOQARqoXXjU0rw6/oFNZHziMpCxjjiF/qaPdJPgpWe6nIUSjgJKnDmF6ANVjYz0TGlv61TnIyZj8wT5HkXGnIcyr6+tVyCjrIolYWD2rjqEv18GZIvP0WFakBdh4TmsobGIz58rMoPOkYKxknML80KA7SOE2EsFw+eysDAn4+Oj0thQr1QL2/DGprBDxQ4XwkUEvYARshMaDKCDhGSgsyUPu8HkgKLjHSwMgu6J8XF9397RoRMY1QHAjDwIeC2CdQSsACQ6BZUFlFkRZEISQ3GhDgBLywZASUmpVFVVS19vv+fBydfMR98KkEJzHjBjFxYQKy0plcqqKmWn0PNi2xuQhT0GZAExhP14Nh8aHJTn8wsyERyXxvpG6Wzv0Dr0D/R7oFji5YeqxcDggFJlLbCZgV7VI7OBiV19/oO/AvS1oDRR7WhublG9HepF/cqoS0Wl2mYHGND1ouxssIwMj2ig3qigzM3PafsCWriUo61JB7jQLoAS7ygbCxKAyXtkdLQ16erq67XPGIAepdqt1DD9B0WILwb6mT6kT7AZzzgoLCrU/BkH/NeogpUW0ujzlcU+kdqGMeIF5vOCqkmw4MD6IwuDY2G80vYmJgAAGe8sfnBNzCP6C+E/i213V4+wa+mNQdMb9IiXYHBE07CAwtkwHq1cRgTZ/XpisANMYCxuc0HMwMuNFYxWADADNQMyYhfEDMi0cKDv8wWZm/MUVwEet9BMdiaEPeOaCQUY8Q5Wkv8xIWAVDdUBQzx3v6CMCwuqozQzO6u6ZORF+rHRUc0H+c08DjhsRXjhOTDhyA4d8OaVp8xH5zGRkQdBKYyPT4R0ZgA661Rb3WgvVB+CY0FVJ9DjQCjVviSt12mUDaBFfjY7O6NKuur048WiKsPOTvNsJlR/QIZO0v/jGWluVgcSmwUAJGxsCMiQE7Fjyk4QlO/8nCqmwhLjOIR24F8MOoLnpMVjN8iXNsGBBAqqtAX9Rt34DsqM2KNEPTZfPSJRFxSSkc+hSKz/XtQFBXaastMOfEt7w2qQP31HX/Kc/5A/LCX3lIM2h1Impm+tz3kfDZvXBgAZnAVjF+VYxgGKzYhICMw/6ye33ekzxhB9xaYACrAqepmdUz00dVTjL6iMRbx9zc544450jAFvnC6BmZv/eq6XARmURSjMz6liJcqVBCaEUlYLC1opKrZSMABzY9Ia2IG8NJy9V5CLAJAMegMa+5bK2TOu7Xl47JbN3inA+Xy+ri6+Br++NzUR3jORWSnUI8xyytPe2UpCXaz85K+Nr3ksseH8y/ufN/isPG5sZXOfrXYdqe6ACN/YO8q1VDYPnHjvPl/pH+F1tzwt/0j37rOV8o343Gl73mvb+m1v5Xe/2/B/IowxN98P9dobt891gVGld1sonrPAhI1/fyPJFnCAyNrN+k3niDN36C/muwabX/5iad8Sr2VcuundaxZXFlU4hG0hEIMdNPByYwW6lQHMBY9I1+6P1ztx3W/f51ob1deHW2lCWEe4k9nrDMhwSGUvuN+7E04HhoEanehTNEo6hw2MtdbF/u/G7/rWK5O3gFid3vXNRt677bCR742l0AWOo0o+uxF6vsE221BZPuB/uWNLrx0wctvS0tE/Rmy4cfh4cNPbvHfnlpv3Rq//aUBGgcMrvNFKrOc7a9R3/Tu8oe07A7HQZPuFBr79343XVe8IK+B6vt/ytMraGDXsU65hlNqWl+EX6svfUz0YjwZiq41N3m1lvZcBmUuFseP1VlDqzDuojbxpvWEZe/lPArLwxgwvU/j7SPfhIBcpTfTZcpYk2h7R9tjKMQCLiwxdWcutBrL1VMRF95WuLT+XjbVnbrzVq4H7L7t2y2zPfo/xh1LP32PfhdfJ7Uu7Dk/za71fBmQuBcZu2ltBqbQ53W1ix2ktgd0mC+xKbUVgJ9PCVuQfzXNr+m0r2tXG2ocWb0Vb/pbyBHihyFB72rYqkM3N6rbsWsArUhoGFlr5bKWjk+IGnkVDtA2iYyA6BjY6BuDKthTITI5mQAaAmUIr+kVcu6AWvV4O8tH2WHt7MJY+5PAhj5VlQOayklgF1YDCph82Qq671Bk/M2D7tcRYuCT8WsoTLcf6N5GibRZtM1hLjgFydG7bzOy0hAJA9h4AFvo2TK7GoDNAQzP9fQbhAnmFhfXmFwWy6CRY75iJpt/MMeMr2+s83jhRsQzIpmen3gKyjVBhBmLEfG9UGdcMAgUyjhABZFBpGrzjRpqWo0d+cAeN5cMxJAvhQMY931ja1WI3b/1mniM/PrjOzevRi9W+f+93Tj2tvpHi8HJG7zdzIkXz+iXHkxEOYIBH0HhAZs8xsb2R8rwFZCEw8x1OKBDNzqkF0bWAmgtiISDj7NWcBy5ayIUFH6iWgIwJDLBpcCa4WykDDgMx4ohAtsYdVfKz/AEwC5TVysu5Mwv2/02LnXpGAjD3mZUzGkeB57c8BoyIeQvIVOwELhiQLVFqa6nvMiCbmp6QqRm83uBlyLNBxBYsB3kJa9mO5TsN00t58C2mlBUgfGoJcADobLJiUwtvQASuCYCaCxoGpBwyJ2B91QU1u+adpY0UG9jyzvI3sNLY+d5NGymvjT7jMLsBt9V3pTi8HazM0Xj5+Ii2x2+lPYxjYp7ioWvGnwsQM0vvPC2KtdUJ/TZMeWFtZdumA1kYmAFohq5aSJ+NA8yYxC6IGZDZhGeQLn0LhegDmcYeq4mpaI+aWl55AxvLg/sQteiApQEt/yGtfbdavNbJ4+bhfgNIaV39NogEZlEgW96fbvtFrzevbWzcb7xNmTfzSrRYHpHyhFgwVS9ATK/h+jBaGgKy9dVrGZBNTk8IYWp6Uu1zhZRMfbMydr9ajF0vDVOTMkUAzHyFVUzTWAWpALuixs4ZkNnE1gkNhYYSrVFOAB/AAzUzMyNzGjxqTyk+nwXm2v5DbCCiz+ZxSba0Ixt6539jDW/PQ3EEijT0zsrn/Mt9x7VLzYbK5IMYAL6s3s5zBXeHQgzPN3q/OvUdbZ+1t4/NmdXaTDm0iONxTmZwI6iuBL3xTj6ap6af8ebtMlGNL7bxZen4ufTC2stsZYVVxVaeUmSTU+MekEUAIEDIAGm1OBKQGZgpkCmLCZhMydjYiLS0NKvvROweKeUxPy/jkxPSPzio3oGwG0bj0SCY/VHgAzCmZ2R2GltIBm5z6s0bj94eZQWvjc0zT75nnTT/fF6GRoaksalBcGKLITYsvwZ6AupMgQaxtPZtJLbaGjDUWQ5l537vrT6eP0cbBLy376hzOCVqVBnPo0C2/kHt9s2Hfs1YY76iLIrFXSwoY8ASo5VMfN5ZG7GIc23jlJhAmvBnpEPBHau9zJ/y8gqprqmV1rYOCQaxH7dETDAHhoYG1fUhZu0xuIkJeFwHIuPWORIRHNfe98uAbAIgm5qISEltFMgwHugFjCVOK0g8n5+T6alx6e5ul3PnYuXylctSUlYm81gfWFyUQG+vFBQVCW7T+v3GpkMgHw1o1PigGnWbk3mQHKCdnFJv3gAYTnTn5xaWk7kL8/Li5QupqauW8xfPyRdffiHffPONfHf4O0nPSA+Zow7toPhkLh2JcTm3M63zeUbZGARGzXGvAQoS8IXC8gcF37nvAbIpPKkzYHzgCo+VvX7PjrbyRuO1T47fQ1ux8ON2EPA6d+6cHDhwQHbt3iWnTp3S4zyAEeORujK3GOcGXIxZrrHUzHPS2DuusVSMQ5r9Bw7Ijp1fy+Hvj8rde/HS3RNQIgLjCspBzc1KTVWlXLtySb75eofs2b1LEuLj1fqzlwZ2lH6xY5Hr76NlQDY+GZSJyXE1YTuprOGUVzHfmiiVeVfgOw2TE5oP9tm9wLce+i/Mz8rkxKi0tjTIl19+Ln/80x/l6LFj6nMSMGtsbpa79+/LiZgY9RZujUxhzdaXIjkgAjCwIQF1NjMrr/BstPhKFp+/lIW55wpoWEFVkJmfk+eLC5KdmyUnT8fI8Zhj6pREzfm2Yc53zLdh/tIHQg+clI/3AcjASjcqfAunlEtBFqu4Bmj8yzdDQ+czWELv7Ds8ps/PK4ApmAGYBB/YLFb2eovOqRrARuPfznnS9fYVXq+OHTsmR48eVSchGRkZ6m8BpzZqytzGo8ONMKYJ/Cu08LLoTk15wDc3qy4JT50+JRfOX5Ck5CdSVlEltQ1NMjISlJkZ29ybk8nxoNRUVUha6hPJykyTyxcvyJEj36vPhrHguIqOdFMNkc+0RzCst47MLfxKYFZ921YD2SQU08yMzM9Oy0RwWBrrq+XQoQPyl3/7i+zYuVOePHuqXlmaWloUyI7HxCh1xqqBfX6cFty/d08y0tPVzv1AX7+UlpRIV0enjI8FBe/cBXn50t7aIcFRTFMHpbIcP40BPcup1j2ez0lGdrpcuHxe7t6P0+NRnO/CNn8g0K2+LXFllpOVq/b5e3sDkpGRLvEJ8YJbNZxokJ6jMJSJe5x0JCYmaszKhymRB/EP1AMUTjUYCAwKHHngzenu3bvqB7CmtkaddbhUmYGXG0eB7PcLMuudsOtNz/i7eeumnIg5oVrvOPSBpWQs4pqQsQw4kS/jFEDBbwJjuLWlVZ+1NLeo/1PiqckpFe+gmYCPh+++OyyXLl2SvPwC6RsclrEJtBbmZXpmTuXbEAFTE0EZ7AtIoKdDhoYGpKK8VGJjz8qFCxd0fjO+VWYOiG0GkAUnxmR8Iii4hppQimrSIysnp7QCkJjvCnyngTwmfOpuYkL9FE5MTHp26mcmZXxsUGpryiU29owcPvytfH/kew1t7W3qKu1hYqKcPhurDY6nbLx9QxqfPnVKYs+eVdK0uLBILl24KPl5edLd2aV+Kvft2SePk55Ia1O7tDS1yfWrN9QjETIC5cWfz0p6VqrEXjgr125cVfIW343Dw0NSVV2hlNrJk6ck7vY9dcSLz764u3fk/PlzEhMTI7GxseoYBdkAAHbk6BE5f+G8nD59Wlc90gBUx48fl++//15dnDFYWC3wrnTlyhUl648cOSJxd+9KdU2NrkiTkPB+UKos7BqqLhqibbDeMYBfVNjIW7duKWsId2MB8ALEmNPY3tfnM3jeKlZqKT4hQf27JiUly904z+u8pcPxSFtbq8TEnNB5cfv2HcnOK5D2zh6ZmES2O68c2DQbh1PjMjM1LvOzU/L8xYI01NfJpUsX5eKli+qYh/HOBtz0FOWY9Mc5bO3a5PK0CSCMIxsIi22bCmQAmg9kHrhNygSAOD0lszOTMjY6IFWVJXLh4jm5/+C+JD9+LNu/2q7OaEtKSyTxyRMFMhzS4obsZEyM3Lh+XT2DAybHjh6VWzdvyv69eyX+/n3Poe2zFPmX//2/ytlTsZKfUyCFeUVy+NB3UlVRpQ4w0I9beD4naZkpcui7g7J9x3a5evW6PHnyVOrqayUrO0M+/vg/5Mj3RyU/v0gpORz3Fhbmq8/KO7dvy+7du7WTEZreuXNHPvroI3n48KG6d/vuu+/kT3/6k76HfKecABaUG+7fYs/FKuDhbuvS5cty5OhRuf/gwVsAxgpFMEAjXu8AjqaPthlj4PLly3LixAllJbHkyvxjPuo8VG9jEzI8PKJOeYkBKrwo3Ym7IwcOHpC4uLty6tQZiYu7pz5O2UiDGgPI+voCEh9/X44ePSJffbVDdn69S27cjJPuQL/Mzj2X6Rlkamgu4GhnXKYmgzI6NiwJCQ/k1KmTcu/+PRnGMY2KTd4GsvWM+y0AMgDLp8p8MDMgm0TWpqoPHpBVV5ZK7Lmz8vTZU3W5duPGdTlz5rTE3bsn9xMS5OTp0wKoffc9APFH2bljhxw9ckS++Owz2btnj7KZUGcAGsLD2zdvyTc7dsqZU2flftwDefggUWLPnpeO9k4FAtRK5p7PSlZOhhw8fEA+++IzuXDxkiQmJkltbY0U5OfInj275OnTFHXOywrV398n6empcuHCef3/X//6V6UMWbVwE29ABcUHoO3atUt3QrHsgZ/HkydPqvNa4o8//lg++vd/VwD7/Msv5Ysvv5RrN27IaDCoVBlCfu08X8gaBaMoGL3vGICLQT7Gwoo5aMb05LQpvU9JU2OTUlvfffu9nDgWI/hKRbEUf6K79+2R//bf/m85f+6CNDY2qRxYqSSop2kouXEFJriZ+to6eXD3gXzy8WeSX1Aio8FJmZ1fEDQhpmcmZGZ2Urq6O+TBg3uyd98e5VRw8YfuGLJzKEPy9ML6+30ZkI2Nj0pwfEz9M+JBGNkUAff1BLtfLUZdwgvjKu9C9kTg2QSbBVpYgGxQaqrK5MzZ0/L4yRN16lpXW6NCwAMHD8qJU6fk/MWLgqDy4MED8vdPPpa4O3fk2dOngufunKwsqa2pkdSUFLl29aqym1cuXZJbN27JpYtXJPbMebl0/rKymXgNpwMVyBZmJS0jRc7EnpJLVy5KU3OLdHV2SX9frxQV5cuBg/skKytHBgaHpbu7R2VjZ06f0tXj6rWrsmfPHpUJcMoeShHZAx2C0BQ52cGDB3VFw6QKVNjpM6d1R/Tw4cPyzS5vtygtPV0eJSYKHsfxexmkjWElfZ+QdGo0RNtgM8bA7du3Vcj/4MEDdb3GBtTcPKdnYNumdOznZudJQvwjSUpMlqam5pAv14OHDsp/+S//m86njo4udZOIWgUsKd+iQD83N61u5MaDQSkqKJKP//0TycjIkYGh0RCQTU4Fpam5QZIeJ0rM6ZPy+EmytLa1qrgKzgPZOWP/ferL/Eb+h//bbZsBZICcC2bLgEwLDKk5IaOjg1JdVSbseiQmJeqOJeQq7NuXX30ln3z6mZw6c1YpspOnTsqe3bvl6dMnivygf2tziwz090trS4ucOX1adn39tZw7e1Yqyyvl1o3bcmDvQfn2wGEV9o+rXgvKtdOy8Hxe0tJTFMQeJj7UXUN2Nacmx6W4KF/2798rGZlZ0j8wJDU1dXL4u8Py/fffSVZmpjx+/FiB7Pz58yo4TU5OluMnjqsnZlYxKDS2t3EuDLBBkSE7y8rOUjbz28OH5crVq9LY1CQ1tbXqxbwnEFAqDJCPAtn7Deb3mQi/12/z8vJ07CG7xSs4Dp/R6YLTYCOLcctmWEdHp3R39sjo6JgE2ODKypRD3x6S7V/tUK6moKBI4KhMNxOx0cBAn7S1tUjfQK90tLdL6rMU+fSTzyQ3p0CGh4MyN7cgM9OT0tffI4lJD+XI8aNy+eplqauvU9UNNsyYm0aRvU8fLAOy0eCIjAWhynwqyrfcOjE+IQSE1msNQX8n0PLifnxiUqk0SNKR4QEFsrNnz0hiUpICGSoM9fWAx3fyxz/9WQ4d/k6ampsl4WGCHPn+O7l08aLuSmZmZEhhQYH0BgIyEQzKiePH5eP/+A85FxurjnEfxj+SnTu+kV1f79bOwakuvD9AhhNS1C+uXLss8Q/jZWJyUhVxJyaCUlxUIIcO7pf0jEzp6x9UBT82IdhhSUtLVZnYp59+KmfOnFGBKBsQCFJxKc9OEBTZt99+qwMGVhMgO3PWS/vs2TNvA+DIEcnLz5fM7CwpKCyU5pYWBbLxSVhyf3PFF8C+a2Ml+v7dm08fehshAGeB3bt3rxw95qlf5OblSk5ujuqR6SaYHh1E3eK5zMzM6vNr167J8eMn5NmzVDl56oxcuXJN2js69T26aaOjI1JfXyvx8fckLS1FRTunY07J/r0HpKa6XiYnpmUOFYzZaWlsqJGYU8fl8+1fyINHCZKTl6uUE3Jm9EQZ94DY+/QVVCI7sUqRbSaQAXhLIAZryb3HbgJkY2PD0tLcqCDFxB4cGlRfmiB9RmamUmPnL17S54GeHnn29Ins27tXtn/5pXx76JAkJyXJ0OCgeul++vixXL50SdlMNPuLC4uVKrt7554CG1vGCmT+7khNbbWkpD2T7NxsbUTkEOPBMamtrZZbt29KWXmFDA6NSG9vv6Slp8mePbtl/759CkQIT6HE0Iw2OVlXV5dqTrP6Qcqzo8lqg/1wBhEUGitfVna2HD9xQr7asUO279ghd+7eVZ05ZGN0poX36dDot1Fwc8cAY5sJjoxs957d8vXXX8vuXbt1MS4qLtJxShp0P5FlozyL6OPu3XtSWFikWvrIjG/euiMlpWVKPQEaY2OjUl9bIyeOH5Xdu7/ROXL+3HlpqG+UyfEpmZuZ95TTZ6elqbFOLl6+IB9/9nf5csdXsvObr2XP3j2qCN/Q0ODtmlKGNWhFrJRmS4FMqbdgUCZ8AOOexoKFnJwIyvDwoMqXunt6ZHRsVE8UcLIAdgtevbm5VSf3+HhQerq7pbKiQoqLijRub2uT4OiYqnN0dXZKc1OTppmZnpaBvgFpb22X9rZ2le25JCsdNjDQL51dHdLd073UiD6pzJGp/n5WiSlBXaSnp0cqysulvKxMqqur9ZhHR0eHAlNff5+CFmwkLDWrHzuUCPq5R+UC+RkgRt0ZULCUAGBRSYmC2ODQkMdaRoHsvQbySgP8Q38OSCGvZRxzHI/FlVBbWye9vX57mowAACAASURBVH1KbExMTcj4JESGx4mxMLe1tUt//6BMTc1IZ1ePzsVAb19o9xyZGHLlmupKKS0p1uN+DfUNMjIyqkQDJ4FmOMkzPSUjQwPS2NgghSXFUlhSIsUlJVoGdNyYG/TRplJkI2PDMjoGezmmwWyAw8cS7H49MYqqVHrC/57zVZNsJIwHZUoBbVJRn3+y0aAqG3qqgJ0LXwWBe/+EgPc9rO64spV2T2xpoMDgu1WI6G9U2ICGMgQYNfgbGnzHfymTxnyjOynTIf25SBsc1gG8U7BEADoFAALWHmUQ6TueIUdEyE+ArdTYf77SN9Hn3uZTtB023g62cadzY3LK45QAsAlv/jEvaF/vPXNoWsYnpyQ4OanjVOW4XDOHxsZUax/NfW/eeBuDOv+YgxPMW2++K0c2MSFjWzTGAWzAGoXzbZsNZACYAtmYB2QKaOPjelh0CYBolAldGbxGhGoDob2zmV7D+VScNgoNMyFT7IK+lZf3LtRZYTutgAudpGAGoPlA5j0HyDwlXigxzYPNCf+bSJPHBSu7duNI39gzAzI6lkESBbKNT05r02j87jYMzQ0d2x6QMe8gIkxjgXYMAZ0PYjpOVfOAubFESExxMoDAMz94c9ubQxAJmt4HMMa5pdvMeBmQDY8OycgoVJnn3cg80gTHgiprsvu1xEG8IzkBoTz3Bma2gQBo2EaCydSUBfU3GPQZ1JpSbB6bqoAD6KwSlK1d4+YEDbqe9JuRFnnhWFjwNkjWvqGyGeWI5vHhtXdo7vkEhM07ixkT3pz0OAZ3nKqc2593kwZiEBTOXLR8vPHM3IJQ2dp2hhOCIkNOvS0SkCmIKVvonS9cC4iRxgUxrg3IYDFDDakUE1QSVNnS5oA1JOmWGgV20GuM1QCMd5bOvrX7d8WW3vJ/V/r3eU/H2gAZHQ8Kwf7vxuH/CLWdD/TuvaW17+3e0ti9vV9LbN+Ex/Zt+HO7t/eRYksTjZfG6q+xLdwxamPVAMnmCABmwZ5Zn+uYhuNwgMydn5tZ52VAptTY6EiIInNBDBtD3G8qkI17PDXkLpUy2RzyOHfy0TDhlbZGixSTVhvToeTCvw+/J70np1tO9VmnhKffjHsdKMGgjPoySf2/ldlip+7WJivFlClU79B33opoq2LoveX/rjiUz9KkW5bHu95Hyj/CN5vRntE8lvpoM9qC8WlgZtfE5B2ad8xVna/eM/uvN2+8xdq+tXdbES8HspFh3X5l181zngtwwRJCjQVlbHRMn9v78Nh9P4bzXScgGGSX0RP+L20eMCmpGBsIsLRegKJjk2D1DQaVwSGHcwL5KCAqewyLPBoCyEibFHxL+pHgaCgo++vL93gH0ET69n2fad5+nbWcbpnd66CnOAgYrRqC/mLgf+uVj4HnfTcWqW3c/6x07dT/XW371vs15Pm+7Rj9fu1OjNfbVt6YYY68/Q933tl1eP6RvgtPsxn3yKa7u7slNzdXto04QAYoKXj5QKZgtgYgMzBzQYxrQIx3HkB54MOgN2SnMusFspUa4K3J5FA8+i60K+vL3v4JQPZWGVea8DxfB5B5bULfjfrgy2JggcHovVsVOCOVxW1D9737fL15OwC5Ul9Gn78NINE2ebtNlgEZhz+HAbORERkdgSqDAgOAoMaC+ox3KwX9ZmT0rfejlt/IqAIZMjM0gwmG5LCsKOOFbzS4rKx1oD3j3q7D4yVQNCrPj/3/2v+JmdSkHzGK0E9jzzVvnaSAgEedhf/P7q1M4WX1KNyl77V8YWWh/toGYc+1TfyFZQmUDJzCYmP/I4CKbZhA9hugu+0QaougR8mGv1vWPw6AhdraKXfEejjvvbw9sA1vO7uPxt54ibbDu9uBDTv035Qi2ywgA9DCwU7ZUAMyJgEAMjqiFAJgRme5kz1S57ngYNcGHG56le3ZhCbfMIAKn6AGWJoOVtKdcEp9LLGW/Cf8n2657Z2yywDGmNcJWn9Ybfue/1Au518RJ3+o7N7Coqx+iMIKAzHnOWw5eeMXQUNwxNteV7UTbxcJMAsvg4KdD4Ju2bg2IKOO5G+sf3gepItUl7efR4HMxkc0fjdYrdZG/xwg0wk8JIODfdLU2CDNzU16cl0nyPi42s6H30WDfmhoKARwvHeDydaooIJJiHX1JplONJPtGTsUHJVAX4/UN9RJaVmJaiRXV1dJe0e7HqZlItskXGK/vF1YbUjYPF+mZ//l31Yue+Yp3gI0XplDQAY75QOc+58QUBiFaADnABmLA+y5ybxc6gyA47k9Q/Y4MNgvTc2NUlZRKqXlJVJRUS7VNdXS2tqqGtWUgzw54dDY1Cg9Pd1ad/SKrO7Gimr5RjzVHNrVNhxoC2y3c1Kita1FhoYHl7Wf1dHq594DgHzvsdlvLxDa3v5CEL1+v4n+e2+/ZUDGIHyLKhsZlbGRMQ3hVNZ674eZiEqRjMrQYJ80NtXJmTOn5OLFC2rZkcIQmGjZ2dl6CJsjPhxsBQj4nwKWUTV+rO+GR9RAXDjFonI+WGSAjJMDU+NSXlkmZ8+dkU8++Vg+/fTvsv/AfklOTpL2jjalWphsTC5AyGR9PNPn/j9555bJys4zjl2EvvdB1tqK+gNysPCcLyVP7omt7W3Se5TOUr21HUaY/BMqvzTWX2P6aYwyjakIALABxLA28Onnf5eP//43+fSzv8s3u75RK7VYQgCkOGbFIeIrV69IYVGhWkQwIKNMKEliFYUdbQMpwIf6AprELERp6anyIOG+dHV3hqhMDBAMDA147cZmig/OxHoNkE1g02qpjrRfNETbYL1jgHHIGWeMlm7bTCADtAg2gbke4l4nx6gMD/VJTW2FfPrZJ/KnP/5RbSbB4yL8r6utDZmLBtR0swAA8UHEQANQ8CaUJ7+DWlFVjuCETAQd7eSgBxQAxOT0hGRmpavjkUOHD8rjx8lqlba2plrNkmBFlu3iESiBYDB0CgEKhQmOr04oGRra/k8Z2P7l4CoBwaMak+RIBrI/vx0AAH3nny7wDE6SZlSBTdt/ZFjBg3dY6yBf28GFZaeOUEPu8Sv08NiMoc7uSYqyinI5eeaU7D2wTx4lJ8qztBTBeOXBAwdk51c7pLgYK7jd0tbRJrjpam/nnOiInoUFYJQq011bgH1EAY3n1Jd2phzUF98Dd+7elhMnj6ubPfIgHUHP1foGNgE2+j8kh/WBDNClPWkn6rfeQRxNHwU+xmQIyAaHBpS9GkLoPzwsI8MjGkaHR4XAs7UEfFSuFBjEmLsdGOiRyspi2b3nG/nzf/+zmrl++uSJDA4MqB17bIx/j5no1jZ91ljfIJjCwR5+SkqKVFZW6oFsvKaoGZ3+AdXszcnOkYa6RukN9GkoKy2XjnYOeQ8I1j2wWPks7YnEnjsj129ek67uLmVrMdvb3t4ihcUFkpaeISkpaWotk8mdnZkhCQnx8ujRQ8kvyNfD4RwQ5+Q+5lAw1/Pw0UO14Y/TBsqEtVjsl3FQVyk731kJmscYucMqRkVlhfT298nI2IjQ5tiJgirjUDsebp48fSL379+XRw8faT79ff2Cf4Hq6hrJy83TdkhKTJL09Azp6enVvhobGZEgh9jHx6WwuEhOnT0jp8/FSnN7m3T19KjVDhy4fPXlF3LlymWBrW5sblSqrLOrU3p6e6SqqlKw9X7//j0pLi1WcKqtr5H8wjxNh2nw5MRkKSsrV+Ahjxu3rsv3R7/TtN3dXQqMtNmDB/clKytTTYl3dXVKQUG+1NXVquML6gyrSxvh6MI2iyLKWHXDCKrV24yyxSEaLxELH3JbQCQgioKT27YZQLYSgHnP/dV4dEj6+7uktDRfTp2OkX0H9smhQ4fUjDU28isqK9VW+PETMTrAMaSYnJSsZqOxi4/pXszlUGjs4mdlZSk7igejfXv3SeLDJKmrqZfamjq5cvmqVJRXKAsFRQVFZkB29fpVwScAlGCgFw9KRRITc0yOHTsuly5dlZSUVKmqrJDr16/KqZMxamARQ4mAKJQiwIrlV2ySYYARW2TYR8eWEyawuQeQkfMBmJhSwXMMdqGoL+8wKeyxVsMyOjIsfX29Ci6w2zg2IV/yunzpstTV1kltTa3cu39fDh46JKdOnpTD3x6WI98fkfz8AgHoPH29EZmaGFffoLEXLshVygBLOzmpFFR9Xa2cPX1SDuzbK+kZaeqP4NbtWwpoUGm3b99ShzCU81nKMwWwxORH8u13h+TCxQty5sxZOXrkmJyPvSCNDY3qeerm7Rty7PgRaWppVEsHT54ky/Hjx7T8MSdj1FwTwA14Pnv2VNlRqMHbd24LTi4qKyo94wE+a8xOt01MrqHKobwAMqPe7H00XmqrD7UtflEgG4RS8ykygKyoKEfOnDkpt+7ckoSEBPns008lPS1VjaM9iE+QY8dPqNno+PgH6mzk6pUraj4a4AAILl68KDuw63Xnjp56B+z+83/6z3L86AnJSMtUl2779u1XygrLmMiEYB2fpT2VfQf3ymdffiYXL1+WB/HxUlZWIikpj+WvH/1Fvv32sGRkZktLS5tgfjs3N0tyc3Pk5s0bas8pLi5OLcTiEenPf/6zAhIUGGaw//CHP8jVq1fV65OVE8oNs9fqBer0aaVqcKEFSN26fVuGVXY0LMHgqDTjten2bflq+3aJuxunaRMfJcoXn38hSY+SJDUlVf19/ssf/k+1e37rxk0F75Mxp6SzvVNm8Iijh3jHJb+gQACyyzdvSGBwUEZglacmpbOjTR4lPJDdu75RigmqCbdesJdXr16Rw999q16jMDNeW1erQHbuQqz8r//pf1EgTk/LkAf3HsjfPvoPpRZTU1Pk5u2b8v2x76W+sU4aGuqV8srMzJCU1BQ1lHnk2DHJzMqUY8eOyvVrV6WwsEAaGxvV/PedO3FSX9/gyf5CQDYqntoOqkAekAFmUSCLglYksF4GZOxywYIhhIaKGB4a1jAyNCIEnq0lYGNrKQxqfgODgzIwxKH0EQmOQXl0SWlxvpw6FaNsGDa6zsfGqrckKJXbcXFy9PhxnciHDh2UP/7x/5EdX32lsrRPPvlEAezGjRtKnQEosJwAyGeffiYnjsdI3O278uBevFq5rK+r91i3kSHBd+ez1CeyZ/9u+dvfP5YzsbFy9949BbLMzFTZuXO7PHgQLy0trSrjw3dfcnKiOkX5cvuX8pe//EXOnj2rh1Nh+7DRbxTazZs35auvvlK3b/DrWIyFegTEQs5HPvpIn+Ex6tPPP5dzFy5IT6BH/f2NDA9KTnaWHNi7T65duaoU2MjoqOBP8NuDh+X69Rty//4DuXzlimA2G4F9SXGxXDh3Xr7ZuUvqautVRjYJYI0HJb+wQM5dvCiXblyXrv4+GRrDTtq4tLe2SML9+2os8tHDh0ot4QkHBywJD+Pl0LcH1Rs1bDN20Hl+4+Y12f7Vl1JYVKRWPWura+TQvgNy89o1efgwQW7H3ZbjMceloblB2jvblMrD5de+ffvk//3Xf5Wvd++RjKxseXD/nly5dEESHjyQvJxc2b17j1rk7entk1F8kw77OoxQZCregFL1KTLkrIwhn1pbi5gjmmZ4TeKg33o7Ib5hYxDubNtmARmDzQMyD8QAxhCQIcMZG5GB/h4pLSlQt1DIi5obm6S0uFitvzL4jx0/LqdjY0MWWv/60V/V6QeUGxQRVlpxAMK32NAHKGAzL1y4KGdPx6onpQvnLkr8gwTp7OxS9m14ZEjlZE+eJcvxk8fkTOxpKauokIbGRmnvaJWc7IyQF6Wu7h7Bn+a9e3clJua4XL9xTfOHAuQ/yLowwY3/SigLjCYi+6LsyHzYuUSWB6sJC4ot/+3bt6uvS8qMT8sHCZj9zZOe3oAHZEMDkpGaKju+3C737txV2R62yAM9AaUyr16+JvgPvHLtmpw6e1odOOCABdDb/sVXUl1Vo0CGWRVsq+UV5Mu5ixfk8o1r0jPQJ2O+8B3LnhfPn1PWNCM9Q2V5UEpV1ZWC9dynKbjiO61sM85dkHHF3bmtzpRr6+vVtwDgeuTQYbl+5aoAhnfv35WjMcekqqZKnjx77DlgPX9OwXfnN7tl/6HDkp2bp3185dJFOQULfuWaxBw/KeUVlTIy6qmPANwMSjZ2dJPH2Tk21tKAzBbV3/okjJb//cF2y4DMAzMAbMAPHkVGp2Hm2oDsJPKThATp7OiQ4aFBuXr5knz2+Wfyt08+kZhTp9RxB84/du7cIUmJiUr9IAvD1DS6ZlAlgMWOr3YomOXn5as8ac+uPXLwwCEpKipW2RFyKIAMVYLkx4ly/kKsqgsE1cfftP47JztT9u7dLc9SUgUgKykrl33798nBg/tVrgP7+M033yhFhgYx5YbignWkLFBoABkUGkCGTX+ALjU1VcsI9QZLia1ywA5rsa1YkIX6Rf9qZEgK8/Lk4L79Env6jFrRDEAR1dQK7rri7tyV+PgEZYcVyFpb1ZPU1ctX5PNPv5Dqyhrd4fRMqgTVA9WZ2LMKZs1trSonbMPZ8ZPH8t3hbxWAsHz7+MljFdSjV9fS1iI1dTWSlJQon372qZyNPSvxD+7LrZs3ZPv2L9TfQGdXlxQVFsnund/I/Ttx8uTJY7lz944cOXZESsqK5dz5WNn5NSw/cswcOfz9UdkHkOXlS2dnh9y8fk2+2bFDdu3aLXF37qn1URxgwF52dHaqF3ks/lJWgJqxwTjSPvSF/YyjKJC9PwD8XkB0GZD1D/TpjhmDZmhwKBSGB4eFwDMm6FoD+SCbMjDDLZvqTg0PSl+gS0pLCiXmxHEFAMhC5DdVFeXqKOH/+MP/Jfv3H1TBP7KpAwf2y8ULnr5Zeka6spzsUuD0A3nZv/73f5WTMSdlcGBQbt68JZ988nf58ovt0tzUos+8QT+oljCTnyapHhmTDxAZHRtT1YvcnCzZv2+vPE1JkY6ubikpKZW9+/cqW4mA+tr1a/Jv//ZvCl5sNABsABWgyoaBS5Fh5vrJkyfqZYm0UGEI7/E+DghmZmVpHWrq62RsHJZqSNU7mhob5db167J9+5dy/fp1eZaaquC1b89+lftlZmbJhUuXJObUSWlpbZHqqiq5cvGSfPn5dgUyPVKmumsjyt7FnIpRv6BpGWnqo+DuPc8L+rffHtLdQ3TAAC1kZOwo5uRmS3Z2ljpbYWPj0sULcjfujly5fFH+5V/+q1y6clkS8ZFw5ar87d//JumpaZKdlSW3bt2Qo8c9IMPp8v4D+yQx8ZGkQGF+vUu+2Pm1ZObmysjwkCTE35fPP/tU/vrXjyQnL1+6uwO6WXHl0mXdjUVkEP/ggcoDY8+e8fq6s8NTUVmjeMNALhqvTRz0W28n1JwwM6+s5VYAmYEYsQLg0KCMDg9Jfx/b/OW6xc/Pu7u6ZByqaWhQnjx+IkeOHpOzZ89JZ0en7oI9TIhXgNu5c6eyPAAD8hsqACV0+tRpQSiOzlVmRqaciz2nlBnqCtpJeo7UMxyJigW7cKnpqQpk5AFbXVZWrBRhfkGhYJ+8raNDHiU+kt17dsnevXvUPRbAFZ8QL1CFlBs2F/UPjLpBeUFxQaFRNgAL4IBCo5FRx2CXEznart27dMeuurZGxnH6gGoLLHlfnzQ11MuN69dUUXfn11/L4cPfq6C/o61T6uobJPFxsu5cAp4tTU3yODFJzpw6I82NLaoQixySUFlZoUL7r77aLl9/vVOIAVI8u6MCwaLCbqptZKAP9jTlqZw8FaNpcYyck5MtxUWFcvvWDfnk47/Jnr175evdu2Xv3v0SdydO/SKy05yWmiJx9+5IS1uzZGSlax47v94pJ46fkKMnTujOaQU+PMeDCpYnThyXffsP6ILR0x2QjLR0OR97TnJzcoVNHVh62Fp2iykDlBxGDehLlxr7rU/AaPk3B2i3FMgALgWwgQHVBTMgA6wGBvukp7tLcECAKgOUFQMVygRgKMXhR0Wlytag6qBU8nJzVYUB+RRu3fmGQc01rBqqAOggkR/b+dVV1UpFsmmhelq+rlZbe6vurEGNMJlR4KRMHR1tUllRrioZ/YOD0jfgOU2AQsE3Jbt46HcZKwk48W/kY5SFcgNadk858KAE4PC+ublZTzCkp6frDl5ZZbmguwXLZAMaMMOpAwq6aNzjUQrVipamVhkcGFKHEQ34xayv83wTBgKCjh06XYFArwrLUTxmJ5S8y8pKJSszQzLS03RHOJ+dyPo61V+jTdDsV8quplpBrQEnEYUFkp6eJkVFhQogUMk3b15XdY1HSUmSnZsr+YVF0tzcohsi+EjEaUtdXY309geE9tX/ZmVJSXGJlFdWSn1jo3R2d2lbsAuNP9Mbt27JwBBihgFpaWqWmqoq6ehol6rKStUva2xoUKVdgLK3r9dXGo4CmY2VaLwEgsuArK+/VycHwAGLZmFoYEgI3DMh1xMG+wfUkS7OdPkuBG6DgNDSzihsqwKcOhBlZ4qt9lFfsXZIgcjl5+lEBcYwVtdliZe9V/Ck7JTDCbDRQ7DLzjuV60VgodnNBQx9hWGjDOw/K5XJ3hPb4NMNEL8cXOs7n3W38vGc9OzkaQCQh4aXNlLIj/rTV9YO/kYLentKDQ/0yzBtreICb0ea5/3G9ltbGMUcyseOqw1JdXWl3L9/V2DzcK46zKkG/1ynJ4BnQFFW8u+XQf+oGwrVvId152QHwIpPUuRuFy9dkvyiIj3t4dV9UIX7HtXFOPP6iH4BKCmztrvPWobqa+WNxktj4ANsC8YZhAMaAtu2CsgAMwU0H8hsEDIJDXh0MPtgw3ObvDrJmej+pDYgWAto2H/cWCd3aAPCAy9VOXGfhU9qd2CsUI6NlCc0WcnTl0lSVlh8ZfP9cgBeGhy5Jendei27ph0d4B5icdC8vI0XA7E+Rybqfq9lARCHB2VoZFCVXHNysiT5cZIOFvqGc50sNoCVtxCgutMvKFXrd/4ipe+Hh6S3v1eg9m7cvCEXLl5UOWRPb6+gW0jfGugCWp6Io08GAWFtG2+xYeEDzNyyRq+dRcwdpx/Y9TIg6+0LqGY57AbkvoXB/kEhcI8Qe61BqbC+fhmw4FBzIWqPCRlG6XHvTSafqvBBJnzQrocyXCkt1KeFldLo81XAzf2OMrr3K13bPy120+lk1gntUbHuO/fa2jC8/UhDvgaUxJYnfUsAWOyZ5ambMdYXtPmQF/oGepVl7O31WGhY9RHA1e87jpWRF+n6B53NHZ9SVAqwv1c4BoZMDtYb36F4me5jPGl5uaZslGspDOhY9DehtE7r4wisbtH4991uqOQg2uH0zDYXyAArF8jseq0gZulCIAaYhQGZR1W8DWSks0nqfvN7uo4EYFY/e2exPQ+PrY1WAjL7XmOAMVJwwOGtfHwwg3JD9sX3Si0PDskIO9mwuT7weUDW9xaQUWb+z/eML8YFgIleoQdi/RpzDZB5LP7bZQWMAczwNojeR9uEMfAWkBmYuUBmILZeiszLA0D0QdEZiEyAdwHZ+w5Sm8jvm89WfL9a2ewd8Ub/7ebxrutV/+HLqDgDqkDDBosCmaeeY+Bi/wix7k5f6zuorT4oraU62fUSZeafLAFAwyhK+8+qZXX+GU33YQHcMiDj4HRvb4/apOrr7ZX+3r4lthDLC30MxvWH/j5W2LdZ0vcByEj58cxjTzz2SSefPwF5HukbS2/v7N6N7d1WxPYfN+9Iz9z3W3Vt/bFa/t6itEStr5Z2w+/CQIx/bjiv6Le/SNstjYuV+8rSbEVfsvEGa4lGwLatAjLAL7zwkVZMW9VJu5ZJFZ6ne29gQOw+j16vPNB+LW3jjo1fS5mi5Vh53BhAWUxbeaICL7a2s/fE9syN32fOLweyAILYbukN9EgfAlmlynploLdPqTOUPDcaIoGZW4lf8nqzymLU6VrKbmlX+rf73L1eS97RNJEnRrRdPC7ql24Hxm/vCmDmlkWJDTgmEzk4m4nrJUDQGkBP06PIfitAZjuNKyC721iRrmnojYCFfWffEgPs/AMqwpMFRZ5UtgDYt+Hlsrx5vlKa8G+i95HbOtouS+3ijqtfql16mV/MTX83eqX/RgIyqDLS67t1cFP/VCBjcnNeEiS10MRh4bY2PfKzUgMY60EncTQIzXniSOkVYHzAIz3/tM4ljvRN+DO+4SwoZUOrH2sX3PNP3pHeygSYuf/knfu/lf4ZniY8XXie4WWM3i9N3mhbLG8LxhJjlXnFPGtsalJ5EoYOwsfZu9ouNM79cY25KvJkbhDbvACISGvqSMwTNy1WmymTbSKF//e9gKynp1N6erok0NMtvfwkEPBYzECv9AV6Vf8HHaCNBirDtzSegQPnFePj49U4IucWsfyK+RusWpAuPNj3VJyGIB3mpTm4bWl5Z9fsonG8he/oOBra8rA0bsy3lM0NdAAHvzk3yYFmDDmiQQyoud/S+AAZz/gHeXBtgGd5LvvGryPv+Ma+Cy+j7Qa6dYuUT/TZ22PmQ2kTKCGlhpx5w0ZbL8fYGhrU2i/mozDmia08rLAYmFkb2fjj3h2vNj4tHTEEBA5rsAKDDUHOPGP2nYXeA6k+4f9QS8y7gsJCtf13+84d1fdCQdrNz/5H7D5fyzWACZjy/21bDWQUyApJg3GkALtiHAAH0EpLS9ULClYlCJyf5BujRgzd9X6gXzshPz9fgQ/DjFZhd9UwjXvAiI6joqwcoXx9qsy+jRRjTgabYgnx8VpO7KABnORJmfiHlRGg4Zmbjw0Cq7uBEd+g1W7gZ3nYt6RTdtVnpe15NP5wwWq1vg+EARlaB4SK8nJvniUmSm5enloOBlSYD3BEttDauNR/qLrM6u3MLiGGEPAtkZ2TrWbbq6urFbQAT0AMwX6gp0eKioskKTlZnqWkaGB+Mxf5v9UJgoNg9+uJlwFZd3eHdHd36mHuQLdHlSll1hOQ3p6AVphKbzQAXob4rAQgKCAGSNAAIDzghksnqDRWDaOgaDSA3ko+ZAAAHhxJREFUraCwQA9uNzU3hbymAIYFBQUKkpSNg9wAG05AoNgAHPKn0THCiPYv/yZtS3OzlJWW6mFuKLum5ma12IodMICHAPDhGAX7YmYHjeeUl3zIGxAmJi1p+D8gS5mN3KZulIdnlI1vuGcF455vKLutkh2dHaG6UD/SkpeVKxov9dGH3haMV458EWgL1Kfgohrr69XUEotwUXGxNLe0SFt7m8bMKeYG88Daj/nJeNSx3NSszm4Y09jE47ml4xvGOaarnj57qnOyrb1dsFWn+cHF9fbKANZcGhs9QuDhQ6mqrlavW8xFwKymplZ6A16ZA4EeCfR6nIz9Z60xRADlwwLNtl8UyLq69MdJSUnKptGoRt0YiYjpaia2TXQAC6usgB8WMGhgTOXQKIWFhQosNC72yjC/QzreVVRUKNBhDhszNjQgViow3peflyePk5P1GfljsRWHJN1+59IZzU3N8uzpU+0M2EkAjNWC/5tdMupBmRgAlIm86GTAGMDiG5xv0On8n7IpWCclKpVHOtLTETZgyAvQ5R3kOysY5SavtXZwNN2HAXaRgAytg4K8PEl8+FBSnj0T0mDVhVMVCOIZGwY67jiB42CsYaQUWVZhQaFgSdg4JMY+iy1zDZNWjH0oMjxiAWYGTAApFFllRYXOB7xvYVYLEQzzhjGN4VOMajLPFMgCS6Dqluld11sGZACBG2gwDT7q4jIM8ywY34OthFqhgWClEEpClV2+fFnNWSOPMsoNcpiGAwygYGgQKDqADADgHSACqPAe3h1wgDpiaxZ7YTwnLfGd27clNydHbdFD9t64eVM7hDOBKrDs65fWlhZJTkqSWzdvKqiQDwBLx1IunIpQXvIEhMmXclIG3iP74zllxVgiMjbSAGR4VeIeahDAAmxJR3vwH4wzQq0RdPV7+jQEdO/q3Oj7DwPE6GcDMmLrd4As5elTFYmwYEMoGPtmcmPmpHJJPlUEe8nYhV28e/eeGrp89ChRnj19pgs6gME8xc9Ec0uzmqK/ezdOHTxfv3FdxyzzV8vUE5CBvl4pLytV8Q+uGj0Q7VeTWLg5zM/Nl0D3JgNZV1e7dHV1KGvZg4u07m4/9Eigu0dRGCReLXR1d4sbursBMNjSgNqeh18Gebs6O6ShoU6wTQX6M9FpJAJ8M8Bz5coVpW4QIuIxCUBgsgMGXDPhMzI9m/NcAwaACgDIN4AIrCRUGcAB2PEtIAS1AzjFnDgh9+5iQjpebt66qdZXi0tKvJUF/ZbePrWVRV4I+oltMwIgI28Ahs6HUqITeU65yBPXcJQHu2RQaqQFoKgjQGfgxLeUkfzIn2ucmVBv0hCgUPk/eRmbHo03vvn0e2u7nkBACG69nsDCJSRIYUGBAhnvunu6QyIeXAxiiBSjpFBMVZVVuogyhu/cvqM+MJISk6Wyskpt4VneABlmmZpbmqShsV7tz2EIkzlbUlYmHco19OlmYVlxsYpm4JQ8OV6vAlkinFVOvnR39SgVh3tAgv1jPTEADLfE3Nm2FUBmIGZARgOwK9rd5QEZHnjS0j0BPOelEJwDalBhAAeTH9BiElNIAAvggwKCzcLFGFQLz5EjYZ753r17ChZ8CzVm8iuADHCAJKajkBucPXMmlG96RoakpqdLTV2dtHd2ep0dCCgL+jj5sYIIZDdAAhABXlCD/J8y84x8oQoBK9hIXLoBRkahAcQAGJ0EWAFMpGUFIw3lJT9YSurPLi4UK2moN99Ara2nk6Npl0/uD6k9ABcWQeYTRAIyKILusPf3K3UP68j4ysrKVjksiypuAOEOYk7EyOPHT6SpsVmGBod13DGHQ6DT16MWSzo629UQ57nz5yQ3P1+tK2OYFKqwvLREkpOTdJ7haCfQF1BWFK6qqKBYsBAMOxrKF4wIA+R33S8Dss7ONunsbJfurk7pRgiI4E5Dt/R0dSvFQSVXCwj7lgLUG5RcQAvbo9QZqNul/2lorFNXYgAUVBIkK8JHAAcwYNJDZcFLw37xHBBB6A0YIVcDyKBiADLYL0ADIOA7EJr0THzYPsAPQAQAeY9s7Orly1JcWKT/r6uvl9q6OnUIAlWpjdcTkKaGBjW/TTlDLHB/v5aDDQD+R1n4B2ADBQaIYlGWzoIqRE7HM+oFkEHSU16AjG+4x1kv/6A+DDwAnPcAHHUmIJczdoDycR0N0TZYaQzA2TB/GIfMBxZbKCnmGYHNI1wfNjU2aWhva1euoqS0RAkCHEMrRVZRJX19/R6Qqe5mp7R3sGnQJB1d7RoXFuQLLgDz8vN1DqEUi4ysprpKHj9OlsSkRN1MgyXF3yllqqqoUtaSsQyliMiJeKX6rPQc7AATmD/bNhvIurqWAxluzQzJAcumxgZJSIhXwbztyjHJYckITGAanokOkEH9AEyAAu8ADlYSAA+QAAxJx7eAFuwjHUkHEngG68k/+D4nO1uuXL4smenpSklVVlUpWQw1BolO4yCwbKirE0h0QIt8YK1pePIAdAAnKDL+T0PCvkI58T/ACD+YgCdlQX5HWekQgNkoMu6hHPFoRD3JmwEIdYnJ66rqKpUXAmb2/5U6Nfo8Cmw2BkzWamIRFnA2nUrLSnWM4RMDAbydcyRm7KmM7N5dSUtLlwf34+XZ0xRpa2vXtIx9QLC+vk4yszKkpLRY/TDAXWE4s6KCDSmUbT0NfcyXZ2Skq68INgUysjJ0ziOT7mjrUBPtYANy6V8lkEGZLYEZLCWUmccHA2TYzGfi3om7owAECQwIAU40pk1YAMIUZ032BRhBBcHqQY3B0tG4gBxgAQCQFyAHiCC7AgQgl1kJiouKpK62VrIyMlRGxnN2OrNysqW5tVW6kOWxFeyzloAeQMTAYJDQmawAgBVloyysbgwU6kF+xAAVZSAt7ygrZeR7ZY0zMxXQuAd4eQ/QUReADZBUh8W3b4coTd6R3gZrNI4C12pjgLHHuGJMMn9wPsMCzHjUsaTz0hvTzDmUXBFxsNC2tuDvNUdSU9NUfsa4Y4GHaoL9ZNcSRXECFBc+LXDpp5sObCDoOO1WJ8/IyG7fua2yaMQuEA4meuK/CmQboMao+zKKrKOjVR1wIIjv6uhQ9lJZzM4u6e6EHVwiSVe7piIWcI5L6CIPv7CAWVdXp7S1tUplVaWyWIAEDQclA9VlulcUkmvADNBy00CtGSUEywXLC2ABELbTR2eZ/AoQAhzIB63i9o52qUfnrKhI5WuQ0/iaVH2Ybk8fhrJ2tHvpjDSnHlYuBglloyz8H0ADVPk/dQG0ACjqYGU1MCTmWyhL8uOe/PiP3QPoUKu0D/mSlv/wnnJEQ7QNVhsDjBPGJmOK8cj8ITAvGEvMYwCEMUU+sJ2MQcYsakeIgxrqG6S6ukaauPcXcdLitKa4mLmTr+CHaKS1rdUnVvzFBXFStzeHmdc2lhnXOg/89/xfWd6uzlBZVqtX+DtkzMwluJltmwVkNI4BGbGBnv1cgazbK7g920i8nslMQ1ln8S++1e8BBeeeZ5qWZ254hyzKzdPy3up4I20W/SYKfCqrNgABxMKCjmX/vZtWr23e9HgUVPi3SlX5LKI3f1hwLbzd9uTJ/zy5nSe/Y/7Zf9c6XpcBWXs77FGrdHa0q3dnPDwTujo61b8kyP4+QdHfBxSuKaQBzGbGBpwrxav9a60N92tIt1o9ou9W35T6UNunG7m1E0IA0tmhrv+4p23cNG5b2bh3n4Vf44OUANdFPipeWmWzkH9yioXAtftv7/t39yUsLxQfcuxtvySQhVf+13RvnbXROFJdVsorUtpIzyJ9Hyld9Nm7B/2H3EbhILFeIFut7Qx0OrqWQNH9H9+6QGn3BnwabwaQtfkUGbsMRo158eZQZCZH0gr4LCfXkSbpL/GMf0dDtA0+tDHggsu7gGw9beMCWSTqirxcisvuVwOytf5/GUXW2tYsbW2wl20q4EbI7YUOPXOFwHqjwVhSY/e4t+u1FnYr0lkZovGSLDPaFr//tmDzjUBfK1vX0a5e3hWA2ABw3q93PJAHG2nElo/7r0jPtAzKki79275Zy/+RR6OVgE7ntpa2Zmlt807Hu4DFwVGC+2w91wZi4bE24nvK3cLzjN6/nxwz2n4fXvsBOhY2o/8tL2L01AjrzXe93/0iQGagh2oCahKoIRC43opg+Udjr52j7fBhtMNWzKWtyHMrxiPc2pZTZAAZ+l00CpVAf4WwFRVy87f/RGOvvaPt8Ptuh62aT5ud71aMw+VA1tosLa2wl60KPIAPgfNXdgbLnm0kRgHOqDJAjetoiLZBdAxEx8D7joEtBzJjKyPxyFslI1uLcDCa5vcv0P7Q+jjSHPs1PtuKfkHLIcRacpKdwNEDqCcLba1tQrD7jcRQcHxnlNxqAGfvovHGd4mjbRdtO8ZAJCD7PY4NKDKOVXGGdNs/A8h+6UZdUikx1ZLogP+l+yD6v9/umMPeP+HX1oe/HSDz5XQqr1tBn81tZA5+u4GGjwRi9uzX1jHR8vx2J/uvue9UjcqfS2tRqXJVr2x+WfxrqucyIGtqaRRCSwtC/+Xs5UbYyZW+MfaSGCAxvRMlg01fzTfwpml91tZYXPd7u2aDYim0qQMRnIhYIF37O4LlFY29TZ5oO/y22oH5xhin30yMA9iEs5fYFWMuGait1s8GZJonm4A+RUbMfLONwPDNQJv7bt7hwKeEhl9eN91GrpG7YVEDE17bfgkgs0J6De4dUFezQWgBc2AVbeMOLFeigNuhxtwUwFhF/HvvnafSQX4GYAq+CmhtaqGy1aiy0O5rFMys/aPxbwuk3tlfyLBbWqUDkGpv8wiRNsxyeSdooFg4vE0AyEjLXFsNzAAnVWb1iQvMbnF8kZM/hBCQ8d7RbDAQMzC1si8BmTe3bT5DbFiajcbLgKyxuUGamhvV4CHmaJdtiTa3SMu7wlrUKRD4a2iR1pYm6Wwj3wapra6U4qJCKSkukZqaOmlpZSXpllalzACtpUAnECgfNoiweFlTU62dp+aDurqkvaPT/9bv1NYW/7/8n2sLVh4vdjsher204RNti193WzCn8PZlc4t53NTarNwOemA4DyksLpbS8nL1SaH+LQEQfxPPnesKQK2+2pVPPOicY86oalarD2bt0tjQKCUlperWrbyiYhlmAEoAKHkDVmbaCwKDed2CbmlrqzSBG6hm+aG5tUUI6xlzADZ2CDFEuu29gQygWwOYeQ3eIp3trdJQVy0Zac/kxvUrcj42VmLPxsqVK9fk8eNn0tCAThsrzP/f3rV2NZFlUX/VrOn50KunHzNr7B4bHW20iWDkTYAQSCARFVCRdxAkBOUpJIRXnvVKCPRf27P2qVwMURQUeklbH866VZVbVbdO3bOzz72n7inawocniJWUzHtxNcuZWebGXBQA1g0DuZwO3bRKYEaaTaUo4Kooj16+A2Rn6ThO3S8L2AhgRbqWpb7Ozw3NvCF5I8bGx9HXF0S3349AXx9ezs0JASBDItgcvcuS66iGlcStLB6K7dmuo00C9gt5aLks3qyt4cmTp+jrCyEQ6JUMSlzdmcvp0DZ5bd5DeUrCyOTbzkMUDw6xf3CI/H4RZt4GNAKZAjFVHrWtLIrifcfODGR508L75IitfQTIyPTylomCZaJYsLAwP4e+QA8a6t3oaPegubkZtXdr0drqwcuXzOytH2NjhoAlwzj2hSFyPXtmKuIa4+lMSpLzzszNYT22icL+ge1i8gU5QPa2w36kU7yvozjHvizgqnwfAmQEDgEQMhwD2ztbkse1oaERdXX30NjcDPf9+3g2PCzLTJMtiStXFl5F0BFvLG+J20nPyCYTDIov2EBpGVhdWUawrw+/17hQX9+IpqZmSX7NHBVcFVm1T9hYGdsiGyMLI3hZBFJ6ToqhvQfIFKiq651UHgMyzchBNzRJnGuYFd9CGqYsfWsZpuR5rCy5LK5IxfeTBj9LKhNG9BPILEPDbmITdbW1qKutkyQdzMpSLBYwOTEOl6sG16uqsLa6Jq5mLqshbxVgmVweOiep1nPZnCzLS7cylWZC3DW46+/jtsuFR4NDSGWyNn21THk5wsxKQMo2iJgEVbq5tpyGUTp1Tse8HT39mXoybc/DNFDIm5K56MnQEH77rRrdPQFsbe9Kwmyuk8+8rSw5riSupZWXzwezOXuYhmvxi53mC9jZo21loRm8roXDYgHpvR0MPOzHjaoqPHz4GLvJFKzCvthkfHNTbFIBGIGSbqySHJMAvVnH8uoaYokEspouNipupmXBsMxj8s4Q1wlEiWyPACqu5XkDmQIwvQRkfBjOiHKgUMumMTUxhrs1LvT3P8ZeMiX+dz5vYmsrjqHBx/j55/9g+NkwBgeGMDI8ir29FA72D/BiekaOM+mHJC95Poyp8BQmw5P4/scf8Ldv/oGau3V4GYmK/03l2ArhuJ8tDpD9mUbm3OvCQd00oesaLFMX2VhbQ83tO/B1dSO68Br5ApfWORCywfX7CVRcMUKW1OEEQL6A+GYcHR3tGBsfk+2VlVV0dnVjanpG1uwvFgr442AfLyYn4GlpRltLC3b3ksjvH4j3wzX91bUJYGqiYb9YFCBb39hAbzCIOvd91N5zoyfQi9dLyzIMdK5AltOzkjWYCtGNio+6S3nvTN3A+0TlxSv/wJTjVURyJdwnoNDH3t1JoLenG3W19zA+PiWKJgs0TA3ZHLOAh3Hz5nUE/H60NLXA3x3A1ua2zKIMPB5AZ6dXMhQxgW23vxvPR4axuPQad2p+x7Xr19HlD2B9MwHdMqHJdckwj4tlGrAMA3l+91kSvuDLJOX65vZlarvT1nPsa7QzjbleDWjZDCIvZ/HvH3/EwMAQtnf2sH/wB8zSBBn7OvsKJ8pSyTTSqbTkc+WkmdfbCZ+vCw/6+9HbG0Rbeyfm5hegabq4lcW8if5gL9x1d/EgGJREvEVeO1+A2LdpHiUvIUPiADzvFYvHMfTkCarv3EFPIIDHg0MYn5zC8tqa4IMM+hOMTeOYvOMZnmCfBE4m52HGsisXAWTlYMZtNkxYV2IDbS1NcLvrMT09K74ywVM3mEUojfnoLFyu2+jydsJdew+dHV7EY5sCZP0P+tHS0irp1pivr9PbifHxMaRSSfQF+9Dh82H65RzyB4fQLFMUbIPkXwvIKkHMAbJzBIYTDOZLBV/2b9oPZxVzmRSmJyfwz2+/xbNnz7GXzqJQPJQsSDKWnbeQSqcQnY9ifIwpGKewTGaka5h+EUZzcxOqqq7j1q1qDI+MiXspIU8cZzZ0+H1euGvvYmhoUICMjMww88L2OIbFDE1c4JAkg2NmzJw0MTmJ5tZW3KmpweqbN+JSZnI5JNNpiMdGt/K8gCyrZZDTsoLsTJemlts4YluaDuNDUmJtrM9zeQ1NSm7ryJWOWZaOrUQM3k4PXK67GBufFEZG/1nTskhnkpiZDaO6+iYC/h7U369Hh6cDG282JKEnsx+3e9olge3TZ0/h7fJidJyu5y78gQDavV2YniWQHSCt5Y4YmTJ8GzB1mIYujIyszCyJquOUX8caXn+l98x+TUaWTScxG57C9999h8HBISR29sS+dI5vc7IunxfXMeAPoPq326ipcYE2RSKQTCfR3NKMb/7+Da5e/RmxeELOtYNoTRRMAw/6elHvvifJre2B+iIsyw7l4MfbnLn0er2oqqrCjRs3BNBol/fcbvSFQiCA2eFRRZm1JJCJcIkv8eBIaGw57ftRAMo8slfOC8jegpgmcSaMNRFwk7XINJiWjlRqB1NTY7h583/wersQi8Ul5oRresfjMfT3h/DzL1cxOjKCtpY2eFrbkIgnZCal19+LhvoGTE1OSbLPSiAjI5udi2D/8FDAk+6lMLLSgo5KSQ6QOWB1WkO5DPU4w2cQAPQcVpZe47+/XEVjUxPmmNGbKdcOOEu5DxIGunzbW9vi5WzGE5J8l+eurC6jsakRP3z/A65d+xVzkSgymZyMoXEopljIY2z0OerdbjTcr8cOk1/vM9vagcSBMScmI+yZQ5O5WMnGeGz4+XPU1tUKK0umUjhgXky2hTZp2bFkBLFzATKysSNGpuU+mZF9EMg49mZqyGlpJLZiaPe0yaylv8cvqZw469DR2YFb1bfQ0NCA9Tdv8CAYkpAMxpiFJ8MyE1NdfRvhqTCUa0lGlkwl0dvXC1dtHYL9D5HY3hH/m353OZCpTqlYWHmpfrssZaWrc1na7bTzAv5ETHucjEC2u7OFR4/6UeOqQavHg7GJSUQiUUy/mMHCq1fY2t4qhUgwpKII07Swu7uDYLAPbZ42tDS3yPCNt7MLi4tLdsRCKYRp/c0a+kMh3Ll9B93dPZiaCuPl7EvM8NoLC0fjYmRJnOTgoP/i0hK8XV2oun4dg0+eYPrFC0SiUazH4tAMzlRaAmIKzNRQ0Gn7yXFGlssgl8u+Fbpl2ltWxYzD+odE06U+z8lpORGeI+fxtyN3MwdNzwqgzc7MwOftgvueGz6fDx0dHbj26zX89K+f0NrWiqXXixgdGUV7mweuGhc6Ozpxu/o2mpuaMR+Zl3Gyh48eSlAs/f6R0VHcu38f7Z1eRKILNiMr0VTlKqvS0MkUj4v67TKUJ73ky9B2p40Xs1otQyjEhrMZyQLu6/aJS9fY1IwuXzd8PT0yXrW1tSUgQwBjkHkup2FtbRWedg8GBgYEmCbGJ9DY2IQXL2bAUCeCElkbJxVeLSyIvdIt9Xja0dXlA8lIOByWMTL2TdbnHy1LsjT+5rp7F/WNjfB0dODRwACWlldsGzXNY8NQyms6bT/hPfhMvMeVYyBGhSgwkrErjl+dXirPfbdBHIPTJMguHovj+cgIunw+9PT0SGCdy+WSOLJunw/RyDxeRRcQCoZEyWRiS0tL8jnTRmwDK6sriMfjYPwLP5MYm5jA0+FhROajopx37213okoQ4/5JdS/q+Elg5By/AMZSGlr4K+uW3gXBRsnO7g7C09Pw+wPCiAYGB7GysnLUzxn7ybCJbCaL9Y11CWOiTbG/7+3uYTo8jdWVVWTSGTt0Q9fkz5+/c1aSJKO3tw893T1im2tra+JKEsBYh7pmSaDJZLN49eoVgqEQ/L29Qjr4yZQaIysfTxcgO4M9fhjIPhPMKoGPD1QpVDyPEfE5HSzfTu7uYnV1VdA1Oj+P7a0t6Jp29Dt9bo67CfPLlVhj2bUVA1STDpX3LN8vB7Py4872u+/K0cnl04kCEtoVgYQl7Ua9SzWRp/bJtggiwqRMq2Rn9nNL3ZK98rqcOKAdKrtlKbZZZovquqwv4Ga8rS+Te6yrxsbKJgbVeactjwFZNpvBO5LLwqardhQ9G3qeQqWqh2RjyhXPAUlS0mwmI4qnIpTwAdkOdT73uS37jHVj3VKAnjrulKdn1I6u/hq6ol0om1Flua0ce89kWzJZ8NaWeE55/cpt/k5AU9em/apr0j4VcMoxMrSyr3wIYAQzSvY9on5T1/tQyfsfuZbvgBiB7YKBTIGRaiQ/OKVwn41TilGor0CU+6ynFKWUVl6quudRqvs7pf2v7ujhcuhB9X31vtR+ZcnfOTRDUXWVHdIWWZ/HVanstPI65XUr69j3sO02ncmAQpbIcIyTJHtK4nQMyDKZNCgENNmueDD1gJ9aqgcrL9W1lEL4G5MIUNS2qs9joowS2HFb1VPXuahStUW1zSntd+To4cvWg7IX9Z6UfSibKi9VnfJS2SXPKz9eua2uU3n8ffupdBpK0ryukhK4KZDjcdXej5UkPIlEQmJLr3CAnj6yptszjrLPoNYzDPJ/qK5SSnmp6pOyltNWdfxLKaV9avbzLGWZy8tnKX92Z/t8hykcfX5cn8qeTqsrVf9c+25pEpFsSxiXci9L+/YxYpDtdpa34aTtY4wsmdyT6PjdvR3sJfckLouxWRyn+tqFGVre9+9ymmM892vXn/P8jg0d9YFUEnsfEcGdM2AP7TAWi2FychJXNjbWsbi8iGh0HpHInC3zEUQokYh8P8VvqM5TeN3LIPPz8/hcuQzP6bTxcvTHS/ue5iOYI5acQgR3StjzseeNRqPywfjTp09xhaushqcZLT+EUCgoEgwFQQmFQggGg1+1UAeOODpw+sCn9wHGkJ1VTqPvBw8egMK6V2LxDWFfo2OjGBgcOCaDg4OgMOr3POXx48d49OjRFy9s5+c8t9KfU9r9yNHD16kHBuSeVc7SV4SR8Vurzc24rLS6vLKM5eUlkaXlJYmkZzT958ri4uJnX+Nz2/Ap53MRx4uQT2nLh865iDZepmt+SDf8rfJZGOXuyJ+vg+WVFZxKzmB3fI8MpP8/lFeeGMq+X6gAAAAASUVORK5CYII=;" vertex="1" parent="1">
          <mxGeometry x="50" y="50" width="306" height="505" as="geometry" />
        </mxCell>
        <mxCell id="dDoI7u6ORTxiVec4iSAH-2" value="emacs" style="text;whiteSpace=wrap;html=1;" vertex="1" parent="1">
          <mxGeometry x="90" y="10" width="60" height="30" as="geometry" />
        </mxCell>
      </root>
    </mxGraphModel>
  </diagram>
</mxfile>
